<svg width="121" height="48" viewBox="0 0 121 48" fill="none" xmlns="http://www.w3.org/2000/svg">
<path d="M117.921 20.4439C119.665 22.3535 119.665 25.2779 117.921 27.1875L100.988 45.7279C100.373 46.402 99.25 45.9664 99.25 45.0535L99.25 2.57787C99.25 1.66495 100.373 1.22941 100.988 1.90351L117.921 20.4439Z" fill="#A4D2E9"/>
<rect x="1" y="1.31567" width="100" height="45" rx="1" fill="#A4D2E9"/>
<path d="M19.6846 20.5405C21.538 22.4745 21.538 25.5255 19.6846 27.4595L1.72199 46.2031C1.09844 46.8538 -2.50204e-07 46.4124 -2.10812e-07 45.5112L1.66976e-06 2.48876C1.70915e-06 1.58756 1.09845 1.1462 1.72199 1.79686L19.6846 20.5405Z" fill="white"/>
<path d="M26.5057 22.3157V16.4975H30.358V17.5117H27.7358V18.8981H30.1023V19.9123H27.7358V22.3157H26.5057ZM32.8139 22.4009C32.3726 22.4009 31.991 22.3072 31.669 22.1197C31.349 21.9303 31.1018 21.667 30.9276 21.3299C30.7533 20.9909 30.6662 20.5979 30.6662 20.1509C30.6662 19.7001 30.7533 19.3062 30.9276 18.9691C31.1018 18.6301 31.349 18.3668 31.669 18.1793C31.991 17.9899 32.3726 17.8952 32.8139 17.8952C33.2552 17.8952 33.6359 17.9899 33.956 18.1793C34.2779 18.3668 34.526 18.6301 34.7003 18.9691C34.8745 19.3062 34.9616 19.7001 34.9616 20.1509C34.9616 20.5979 34.8745 20.9909 34.7003 21.3299C34.526 21.667 34.2779 21.9303 33.956 22.1197C33.6359 22.3072 33.2552 22.4009 32.8139 22.4009ZM32.8196 21.4634C33.0204 21.4634 33.188 21.4066 33.3224 21.2929C33.4569 21.1774 33.5582 21.0202 33.6264 20.8214C33.6965 20.6225 33.7315 20.3962 33.7315 20.1424C33.7315 19.8886 33.6965 19.6623 33.6264 19.4634C33.5582 19.2645 33.4569 19.1073 33.3224 18.9918C33.188 18.8763 33.0204 18.8185 32.8196 18.8185C32.617 18.8185 32.4465 18.8763 32.3082 18.9918C32.1719 19.1073 32.0687 19.2645 31.9986 19.4634C31.9304 19.6623 31.8963 19.8886 31.8963 20.1424C31.8963 20.3962 31.9304 20.6225 31.9986 20.8214C32.0687 21.0202 32.1719 21.1774 32.3082 21.2929C32.4465 21.4066 32.617 21.4634 32.8196 21.4634ZM36.9588 19.7929V22.3157H35.7486V17.952H36.902V18.7219H36.9531C37.0497 18.4681 37.2116 18.2674 37.4389 18.1197C37.6662 17.97 37.9418 17.8952 38.2656 17.8952C38.5687 17.8952 38.8329 17.9615 39.0582 18.0941C39.2836 18.2267 39.4588 18.4161 39.5838 18.6623C39.7088 18.9066 39.7713 19.1982 39.7713 19.5373V22.3157H38.5611V19.7532C38.563 19.4861 38.4948 19.2778 38.3565 19.1282C38.2183 18.9767 38.0279 18.9009 37.7855 18.9009C37.6226 18.9009 37.4787 18.9359 37.3537 19.006C37.2306 19.0761 37.134 19.1784 37.0639 19.3128C36.9957 19.4454 36.9607 19.6054 36.9588 19.7929ZM42.3331 22.3867C42.0017 22.3867 41.7015 22.3015 41.4325 22.131C41.1655 21.9587 40.9534 21.7058 40.7962 21.3725C40.6409 21.0373 40.5632 20.6263 40.5632 20.1395C40.5632 19.6395 40.6437 19.2238 40.8047 18.8924C40.9657 18.559 41.1797 18.31 41.4467 18.1452C41.7157 17.9786 42.0102 17.8952 42.3303 17.8952C42.5746 17.8952 42.7782 17.9369 42.9411 18.0202C43.1058 18.1017 43.2384 18.2039 43.3388 18.327C43.4411 18.4482 43.5187 18.5676 43.5717 18.685H43.6087V16.4975H44.8161V22.3157H43.6229V21.6168H43.5717C43.5149 21.738 43.4344 21.8583 43.3303 21.9776C43.228 22.095 43.0945 22.1926 42.9297 22.2702C42.7668 22.3479 42.5679 22.3867 42.3331 22.3867ZM42.7166 21.4236C42.9117 21.4236 43.0765 21.3706 43.2109 21.2645C43.3473 21.1566 43.4515 21.006 43.5234 20.8128C43.5973 20.6197 43.6342 20.3933 43.6342 20.1339C43.6342 19.8744 43.5982 19.649 43.5263 19.4577C43.4543 19.2664 43.3501 19.1187 43.2138 19.0145C43.0774 18.9104 42.9117 18.8583 42.7166 18.8583C42.5178 18.8583 42.3501 18.9123 42.2138 19.0202C42.0774 19.1282 41.9742 19.2778 41.9041 19.4691C41.834 19.6604 41.799 19.882 41.799 20.1339C41.799 20.3876 41.834 20.6121 41.9041 20.8072C41.9761 21.0003 42.0793 21.1518 42.2138 21.2617C42.3501 21.3697 42.5178 21.4236 42.7166 21.4236ZM47.0554 22.3981C46.777 22.3981 46.5289 22.3498 46.3111 22.2532C46.0933 22.1547 45.9209 22.0098 45.794 21.8185C45.669 21.6253 45.6065 21.3848 45.6065 21.0969C45.6065 20.8545 45.651 20.6509 45.7401 20.4861C45.8291 20.3214 45.9503 20.1888 46.1037 20.0884C46.2571 19.988 46.4313 19.9123 46.6264 19.8611C46.8234 19.81 47.0298 19.774 47.2457 19.7532C47.4995 19.7267 47.7041 19.702 47.8594 19.6793C48.0147 19.6547 48.1274 19.6187 48.1974 19.5714C48.2675 19.524 48.3026 19.4539 48.3026 19.3611V19.3441C48.3026 19.1642 48.2457 19.025 48.1321 18.9265C48.0204 18.828 47.8613 18.7787 47.6548 18.7787C47.437 18.7787 47.2637 18.827 47.1349 18.9236C47.0062 19.0183 46.9209 19.1376 46.8793 19.2816L45.7599 19.1907C45.8168 18.9255 45.9285 18.6964 46.0952 18.5032C46.2618 18.3081 46.4768 18.1585 46.7401 18.0543C47.0052 17.9482 47.312 17.8952 47.6605 17.8952C47.9029 17.8952 48.1349 17.9236 48.3565 17.9804C48.58 18.0373 48.7779 18.1253 48.9503 18.2447C49.1245 18.364 49.2618 18.5174 49.3622 18.7049C49.4626 18.8905 49.5128 19.113 49.5128 19.3725V22.3157H48.3651V21.7106H48.331C48.2609 21.8469 48.1671 21.9672 48.0497 22.0714C47.9323 22.1736 47.7912 22.2541 47.6264 22.3128C47.4616 22.3697 47.2713 22.3981 47.0554 22.3981ZM47.402 21.5628C47.58 21.5628 47.7372 21.5278 47.8736 21.4577C48.0099 21.3857 48.117 21.2892 48.1946 21.1679C48.2723 21.0467 48.3111 20.9094 48.3111 20.756V20.2929C48.2732 20.3176 48.2211 20.3403 48.1548 20.3611C48.0904 20.3801 48.0175 20.3981 47.9361 20.4151C47.8546 20.4303 47.7732 20.4445 47.6918 20.4577C47.6103 20.4691 47.5365 20.4795 47.4702 20.489C47.3281 20.5098 47.2041 20.5429 47.098 20.5884C46.992 20.6339 46.9096 20.6954 46.8509 20.7731C46.7921 20.8488 46.7628 20.9435 46.7628 21.0572C46.7628 21.2219 46.8224 21.3479 46.9418 21.435C47.063 21.5202 47.2164 21.5628 47.402 21.5628ZM54.0824 19.1964L52.9744 19.2645C52.9555 19.1698 52.9148 19.0846 52.8523 19.0089C52.7898 18.9312 52.7074 18.8697 52.6051 18.8242C52.5047 18.7768 52.3845 18.7532 52.2443 18.7532C52.0568 18.7532 51.8987 18.7929 51.7699 18.8725C51.6411 18.9501 51.5767 19.0543 51.5767 19.185C51.5767 19.2892 51.6184 19.3772 51.7017 19.4492C51.785 19.5212 51.928 19.5789 52.1307 19.6225L52.9205 19.7816C53.3447 19.8687 53.661 20.0089 53.8693 20.202C54.0777 20.3952 54.1818 20.649 54.1818 20.9634C54.1818 21.2494 54.0975 21.5003 53.929 21.7162C53.7623 21.9322 53.5331 22.1007 53.2415 22.2219C52.9517 22.3412 52.6174 22.4009 52.2386 22.4009C51.661 22.4009 51.2008 22.2806 50.858 22.0401C50.517 21.7977 50.3172 21.4681 50.2585 21.0515L51.4489 20.989C51.4848 21.1651 51.572 21.2996 51.7102 21.3924C51.8485 21.4833 52.0256 21.5287 52.2415 21.5287C52.4536 21.5287 52.6241 21.488 52.7528 21.4066C52.8835 21.3232 52.9498 21.2162 52.9517 21.0856C52.9498 20.9757 52.9034 20.8857 52.8125 20.8157C52.7216 20.7437 52.5814 20.6888 52.392 20.6509L51.6364 20.5003C51.2102 20.4151 50.893 20.2674 50.6847 20.0572C50.4782 19.8469 50.375 19.5789 50.375 19.2532C50.375 18.9729 50.4508 18.7314 50.6023 18.5287C50.7557 18.3261 50.9706 18.1698 51.2472 18.06C51.5256 17.9501 51.8513 17.8952 52.2244 17.8952C52.7756 17.8952 53.2093 18.0117 53.5256 18.2447C53.8438 18.4776 54.0294 18.7948 54.0824 19.1964ZM54.9439 22.3157V17.952H56.1541V22.3157H54.9439ZM55.5518 17.3895C55.3719 17.3895 55.2176 17.3299 55.0888 17.2106C54.9619 17.0893 54.8984 16.9445 54.8984 16.7759C54.8984 16.6092 54.9619 16.4662 55.0888 16.3469C55.2176 16.2257 55.3719 16.1651 55.5518 16.1651C55.7318 16.1651 55.8852 16.2257 56.0121 16.3469C56.1409 16.4662 56.2053 16.6092 56.2053 16.7759C56.2053 16.9445 56.1409 17.0893 56.0121 17.2106C55.8852 17.3299 55.7318 17.3895 55.5518 17.3895Z" fill="white"/>
<path d="M28.2472 31.3853C27.919 31.3853 27.6265 31.3289 27.3697 31.2162C27.1145 31.1036 26.9115 30.9469 26.7607 30.7464C26.6115 30.5442 26.5303 30.3098 26.517 30.0429H27.1435C27.1567 30.207 27.2131 30.3487 27.3125 30.468C27.4119 30.5857 27.542 30.6768 27.7028 30.7415C27.8635 30.8061 28.0417 30.8384 28.2372 30.8384C28.456 30.8384 28.6499 30.8003 28.8189 30.7241C28.9879 30.6478 29.1205 30.5418 29.2166 30.4059C29.3127 30.27 29.3608 30.1125 29.3608 29.9336C29.3608 29.7463 29.3144 29.5814 29.2216 29.4389C29.1288 29.2947 28.9929 29.182 28.8139 29.1008C28.6349 29.0196 28.4162 28.979 28.1577 28.979H27.75V28.4322H28.1577C28.3598 28.4322 28.5372 28.3957 28.6896 28.3228C28.8438 28.2499 28.9639 28.1471 29.0501 28.0145C29.1379 27.882 29.1818 27.7262 29.1818 27.5472C29.1818 27.3749 29.1437 27.2249 29.0675 27.0973C28.9912 26.9697 28.8835 26.8702 28.7443 26.799C28.6068 26.7277 28.4444 26.6921 28.2571 26.6921C28.0814 26.6921 27.9157 26.7244 27.7599 26.789C27.6058 26.852 27.4799 26.944 27.3821 27.065C27.2843 27.1843 27.2313 27.3285 27.223 27.4975H26.6264C26.6364 27.2307 26.7167 26.997 26.8675 26.7965C27.0183 26.5943 27.2156 26.4369 27.4592 26.3242C27.7044 26.2115 27.9737 26.1552 28.267 26.1552C28.5819 26.1552 28.852 26.219 29.0774 26.3466C29.3028 26.4725 29.476 26.6391 29.5969 26.8462C29.7179 27.0534 29.7784 27.2771 29.7784 27.5174C29.7784 27.8041 29.703 28.0485 29.5522 28.2507C29.4031 28.4529 29.2 28.5929 28.9432 28.6708V28.7106C29.2647 28.7636 29.5157 28.9003 29.6964 29.1207C29.877 29.3395 29.9673 29.6104 29.9673 29.9336C29.9673 30.2103 29.8919 30.4589 29.7411 30.6793C29.592 30.8981 29.3881 31.0704 29.1296 31.1964C28.8711 31.3223 28.5769 31.3853 28.2472 31.3853ZM35.1502 28.4968V29.0437H32.9229V28.4968H35.1502ZM39.8316 31.3853C39.6228 31.382 39.414 31.3422 39.2052 31.266C38.9964 31.1897 38.8058 31.0613 38.6334 30.8807C38.4611 30.6984 38.3227 30.4523 38.2183 30.1424C38.1139 29.8308 38.0617 29.4397 38.0617 28.9691C38.0617 28.5183 38.104 28.1189 38.1885 27.7709C38.273 27.4213 38.3956 27.1271 38.5564 26.8885C38.7171 26.6482 38.911 26.4659 39.1381 26.3416C39.3667 26.2173 39.6244 26.1552 39.9111 26.1552C40.1962 26.1552 40.4497 26.2123 40.6718 26.3267C40.8955 26.4394 41.0778 26.5968 41.2187 26.799C41.3595 27.0012 41.4507 27.234 41.4921 27.4975H40.8856C40.8292 27.2688 40.7198 27.079 40.5574 26.9282C40.395 26.7774 40.1796 26.702 39.9111 26.702C39.5167 26.702 39.206 26.8736 38.979 27.2166C38.7536 27.5596 38.6401 28.0411 38.6384 28.6608H38.6782C38.771 28.52 38.8812 28.3998 39.0088 28.3004C39.1381 28.1993 39.2806 28.1214 39.4363 28.0667C39.5921 28.0121 39.757 27.9847 39.931 27.9847C40.2227 27.9847 40.4895 28.0576 40.7314 28.2035C40.9734 28.3476 41.1673 28.5473 41.3131 28.8025C41.459 29.0561 41.5319 29.3469 41.5319 29.675C41.5319 29.9899 41.4614 30.2783 41.3206 30.5401C41.1797 30.8003 40.9817 31.0074 40.7265 31.1616C40.4729 31.314 40.1746 31.3886 39.8316 31.3853ZM39.8316 30.8384C40.0404 30.8384 40.2277 30.7862 40.3934 30.6818C40.5608 30.5774 40.6925 30.4374 40.7886 30.2617C40.8864 30.086 40.9353 29.8905 40.9353 29.675C40.9353 29.4646 40.8881 29.2732 40.7936 29.1008C40.7008 28.9268 40.5724 28.7884 40.4083 28.6857C40.2459 28.583 40.0603 28.5316 39.8515 28.5316C39.694 28.5316 39.5474 28.5631 39.4115 28.626C39.2756 28.6874 39.1563 28.7719 39.0535 28.8796C38.9524 28.9873 38.8729 29.1108 38.8149 29.25C38.7569 29.3875 38.7279 29.5325 38.7279 29.685C38.7279 29.8872 38.7751 30.0761 38.8696 30.2518C38.9657 30.4274 39.0966 30.5691 39.2623 30.6768C39.4297 30.7845 39.6195 30.8384 39.8316 30.8384ZM47.3517 27.4975C47.3219 27.2456 47.2009 27.05 46.9888 26.9108C46.7767 26.7716 46.5165 26.702 46.2083 26.702C45.9829 26.702 45.7857 26.7385 45.6167 26.8114C45.4493 26.8843 45.3184 26.9846 45.2239 27.1122C45.1311 27.2398 45.0847 27.3848 45.0847 27.5472C45.0847 27.6831 45.117 27.7999 45.1816 27.8977C45.2479 27.9938 45.3324 28.0742 45.4352 28.1388C45.5379 28.2018 45.6457 28.254 45.7583 28.2954C45.871 28.3352 45.9746 28.3675 46.0691 28.3924L46.5861 28.5316C46.7187 28.5664 46.8662 28.6144 47.0286 28.6758C47.1926 28.7371 47.3493 28.8208 47.4984 28.9268C47.6492 29.0312 47.7735 29.1655 47.8713 29.3295C47.969 29.4936 48.0179 29.6949 48.0179 29.9336C48.0179 30.2087 47.9458 30.4572 47.8017 30.6793C47.6592 30.9014 47.4503 31.0779 47.1752 31.2088C46.9018 31.3397 46.5695 31.4052 46.1784 31.4052C45.8139 31.4052 45.4982 31.3463 45.2314 31.2287C44.9662 31.111 44.7574 30.9469 44.6049 30.7365C44.4541 30.526 44.3688 30.2816 44.3489 30.0032H44.9853C45.0018 30.1954 45.0665 30.3545 45.1792 30.4804C45.2935 30.6047 45.4377 30.6975 45.6117 30.7589C45.7873 30.8185 45.9763 30.8483 46.1784 30.8483C46.4138 30.8483 46.6251 30.8102 46.8123 30.734C46.9996 30.6561 47.1479 30.5484 47.2573 30.4108C47.3667 30.2716 47.4213 30.1092 47.4213 29.9236C47.4213 29.7546 47.3741 29.617 47.2797 29.511C47.1852 29.4049 47.0609 29.3188 46.9068 29.2525C46.7527 29.1862 46.5861 29.1282 46.4071 29.0785L45.7807 28.8995C45.383 28.7851 45.0681 28.6219 44.8361 28.4098C44.6041 28.1977 44.4881 27.9201 44.4881 27.577C44.4881 27.292 44.5652 27.0434 44.7193 26.8313C44.8751 26.6175 45.0839 26.4518 45.3457 26.3341C45.6092 26.2148 45.9033 26.1552 46.2282 26.1552C46.5563 26.1552 46.848 26.214 47.1032 26.3317C47.3584 26.4477 47.5605 26.6067 47.7097 26.8089C47.8605 27.0111 47.94 27.2406 47.9483 27.4975H47.3517ZM50.6025 31.3157H49.0315V26.2248H50.6721C51.166 26.2248 51.5886 26.3267 51.9399 26.5305C52.2912 26.7327 52.5605 27.0235 52.7478 27.403C52.935 27.7809 53.0287 28.2333 53.0287 28.7603C53.0287 29.2906 52.9342 29.7471 52.7453 30.1299C52.5564 30.5111 52.2813 30.8044 51.92 31.0099C51.5587 31.2138 51.1196 31.3157 50.6025 31.3157ZM49.648 30.7688H50.5628C50.9837 30.7688 51.3325 30.6876 51.6093 30.5252C51.886 30.3628 52.0924 30.1316 52.2282 29.8317C52.3641 29.5317 52.4321 29.1746 52.4321 28.7603C52.4321 28.3493 52.365 27.9955 52.2307 27.6988C52.0965 27.4005 51.896 27.1719 51.6292 27.0128C51.3624 26.852 51.0301 26.7716 50.6324 26.7716H49.648V30.7688ZM56.1608 28.7702C56.1608 28.1438 56.242 27.5679 56.4044 27.0426C56.5684 26.5156 56.8021 26.0309 57.1054 25.5884H57.6224C57.5031 25.7525 57.3912 25.9546 57.2868 26.1949C57.1841 26.4336 57.0938 26.6962 57.0159 26.9829C56.938 27.268 56.8767 27.563 56.8319 27.8679C56.7889 28.1728 56.7673 28.4736 56.7673 28.7702C56.7673 29.1646 56.8054 29.5648 56.8817 29.9709C56.9579 30.3769 57.0606 30.7539 57.1899 31.1019C57.3192 31.4499 57.4633 31.7333 57.6224 31.952H57.1054C56.8021 31.5096 56.5684 31.0257 56.4044 30.5003C56.242 29.9733 56.1608 29.3966 56.1608 28.7702ZM58.16 31.3157L58.2395 30.8682L60.2182 29.0287C60.4502 28.8133 60.6433 28.6252 60.7974 28.4645C60.9532 28.3037 61.0742 28.1529 61.1603 28.0121C61.2482 27.8712 61.3053 27.7229 61.3319 27.5671C61.3617 27.3881 61.3459 27.2332 61.2846 27.1023C61.2233 26.9713 61.1264 26.8702 60.9938 26.799C60.8612 26.7277 60.7021 26.6921 60.5165 26.6921C60.321 26.6921 60.1428 26.7327 59.9821 26.8139C59.8213 26.8934 59.6879 27.0061 59.5819 27.152C59.4758 27.2961 59.4062 27.4643 59.373 27.6566H58.7864C58.8361 27.3583 58.9496 27.0965 59.127 26.8711C59.3059 26.6457 59.5255 26.47 59.7857 26.3441C60.0475 26.2181 60.3276 26.1552 60.6259 26.1552C60.9242 26.1552 61.1769 26.2181 61.3841 26.3441C61.5912 26.47 61.7412 26.6399 61.834 26.8537C61.9268 27.0674 61.9516 27.3053 61.9086 27.5671C61.8754 27.756 61.81 27.9391 61.7122 28.1165C61.6144 28.2938 61.4644 28.4918 61.2623 28.7106C61.0617 28.9277 60.79 29.1928 60.4469 29.506L59.1046 30.729L59.0946 30.7688H61.4611L61.3716 31.3157H58.16ZM64.0488 31.3853C63.6743 31.3853 63.3727 31.2834 63.144 31.0795C62.9153 30.874 62.7645 30.5766 62.6916 30.1871C62.6187 29.796 62.627 29.3237 62.7164 28.7702C62.8059 28.22 62.9526 27.7502 63.1564 27.3608C63.3603 26.9697 63.6113 26.6714 63.9096 26.4659C64.2079 26.2587 64.5427 26.1552 64.9139 26.1552C65.2851 26.1552 65.5859 26.2587 65.8162 26.4659C66.0482 26.673 66.2024 26.9713 66.2786 27.3608C66.3565 27.7502 66.349 28.22 66.2562 28.7702C66.1634 29.3237 66.0151 29.7952 65.8113 30.1846C65.6074 30.5741 65.3564 30.8715 65.0581 31.077C64.7598 31.2825 64.4234 31.3853 64.0488 31.3853ZM64.1383 30.8384C64.5112 30.8384 64.8302 30.6594 65.0953 30.3015C65.3622 29.9419 65.5502 29.4314 65.6596 28.7702C65.7325 28.3294 65.7475 27.954 65.7044 27.6442C65.6613 27.3343 65.5652 27.0981 65.416 26.9357C65.2669 26.7733 65.0697 26.6921 64.8244 26.6921C64.4565 26.6921 64.14 26.8736 63.8748 27.2365C63.6097 27.5978 63.4224 28.109 63.313 28.7702C63.2401 29.211 63.2244 29.5856 63.2658 29.8938C63.3072 30.202 63.4017 30.4365 63.5492 30.5973C63.6967 30.758 63.8931 30.8384 64.1383 30.8384ZM68.5133 31.3853C68.1819 31.3853 67.8944 31.3298 67.6507 31.2187C67.4088 31.106 67.2282 30.9494 67.1088 30.7489C66.9895 30.5467 66.9473 30.3114 66.9821 30.0429H67.5985C67.5836 30.2054 67.6118 30.3462 67.6831 30.4655C67.756 30.5848 67.8637 30.6768 68.0062 30.7415C68.1504 30.8061 68.3227 30.8384 68.5233 30.8384C68.737 30.8384 68.9376 30.8011 69.1248 30.7265C69.3137 30.652 69.472 30.5442 69.5996 30.4034C69.7272 30.2609 69.8059 30.091 69.8358 29.8938C69.8623 29.7165 69.8424 29.559 69.7761 29.4215C69.7098 29.284 69.5955 29.1762 69.4331 29.0983C69.2723 29.0188 69.0618 28.979 68.8017 28.979H68.3841L68.4735 28.4322H68.8613C69.0635 28.4322 69.2491 28.394 69.4181 28.3178C69.5872 28.2416 69.728 28.1347 69.8407 27.9971C69.9534 27.8579 70.0247 27.6947 70.0545 27.5074C70.0827 27.3434 70.0711 27.2009 70.0197 27.0799C69.97 26.9572 69.8838 26.862 69.7612 26.794C69.6402 26.7261 69.4861 26.6921 69.2988 26.6921C69.1199 26.6921 68.9442 26.7244 68.7718 26.789C68.6011 26.852 68.4553 26.944 68.3343 27.065C68.2134 27.1843 68.1371 27.3285 68.1056 27.4975H67.5091C67.5604 27.2323 67.6756 26.9995 67.8546 26.799C68.0336 26.5968 68.2515 26.4394 68.5083 26.3267C68.7669 26.2123 69.0403 26.1552 69.3287 26.1552C69.6485 26.1552 69.912 26.2215 70.1191 26.354C70.3279 26.4849 70.4771 26.6573 70.5666 26.8711C70.6561 27.0832 70.6809 27.3119 70.6412 27.5572C70.5964 27.8372 70.4812 28.0742 70.2956 28.2681C70.11 28.462 69.8838 28.5995 69.617 28.6807V28.7106C69.9302 28.7652 70.1573 28.9094 70.2981 29.1431C70.4406 29.3751 70.4854 29.6518 70.4324 29.9733C70.3859 30.2617 70.2741 30.5119 70.0968 30.7241C69.9194 30.9345 69.6949 31.0978 69.4231 31.2138C69.1513 31.3281 68.8481 31.3853 68.5133 31.3853ZM72.8113 31.3853C72.5196 31.3853 72.266 31.3273 72.0506 31.2113C71.8352 31.0953 71.6736 30.9362 71.5659 30.734C71.4582 30.5318 71.4192 30.3015 71.449 30.0429H72.0456C72.0307 30.2716 72.1045 30.4614 72.2669 30.6122C72.4309 30.763 72.6422 30.8384 72.9007 30.8384C73.1096 30.8384 73.3034 30.7895 73.4824 30.6917C73.6631 30.594 73.8139 30.4597 73.9348 30.289C74.0575 30.1183 74.137 29.9236 74.1735 29.7049C74.2099 29.4828 74.1942 29.284 74.1262 29.1083C74.0583 28.9326 73.9481 28.7942 73.7956 28.6932C73.6432 28.5921 73.4576 28.5415 73.2388 28.5415C73.0847 28.5415 72.9215 28.5664 72.7491 28.6161C72.5784 28.6642 72.4334 28.7255 72.3141 28.8L71.7473 28.7304L72.4732 26.2248H75.1181L75.0286 26.7716H72.9007L72.4732 28.2731H72.503C72.6223 28.1885 72.764 28.1198 72.9281 28.0667C73.0938 28.0121 73.2637 27.9847 73.4377 27.9847C73.7492 27.9847 74.0144 28.0593 74.2331 28.2084C74.4535 28.3559 74.6118 28.5589 74.7079 28.8174C74.8057 29.0743 74.8264 29.3668 74.7701 29.6949C74.717 30.0197 74.5969 30.3098 74.4096 30.565C74.224 30.8185 73.992 31.019 73.7136 31.1665C73.4368 31.3124 73.1361 31.3853 72.8113 31.3853ZM77.07 29.1679C77.07 29.7944 76.988 30.3711 76.824 30.8981C76.6615 31.4234 76.4287 31.9073 76.1254 32.3498H75.6084C75.7277 32.1857 75.8387 31.9835 75.9415 31.7432C76.0459 31.5046 76.137 31.2428 76.2149 30.9577C76.2928 30.671 76.3533 30.3752 76.3964 30.0703C76.4411 29.7637 76.4635 29.4629 76.4635 29.1679C76.4635 28.7735 76.4254 28.3733 76.3492 27.9673C76.2729 27.5613 76.1702 27.1843 76.0409 26.8363C75.9117 26.4883 75.7675 26.2049 75.6084 25.9861H76.1254C76.4287 26.4286 76.6615 26.9133 76.824 27.4403C76.988 27.9657 77.07 28.5415 77.07 29.1679Z" fill="white"/>
</svg>
