<svg width="120" height="48" viewBox="0 0 120 48" fill="none" xmlns="http://www.w3.org/2000/svg">
<path d="M116.921 20.4439C118.665 22.3535 118.665 25.2779 116.921 27.1875L99.9884 45.7279C99.3728 46.402 98.25 45.9664 98.25 45.0535L98.25 2.57787C98.25 1.66495 99.3728 1.22941 99.9884 1.90351L116.921 20.4439Z" fill="#ADADD6"/>
<rect y="1.31567" width="100" height="45" rx="1" fill="#ADADD6"/>
<path d="M5.50568 22.3157V16.4975H9.42614V17.5117H6.7358V18.8981H9.22443V19.9123H6.7358V21.3015H9.4375V22.3157H5.50568ZM11.478 21.06L11.4808 19.6083H11.657L13.0547 17.952H14.4439L12.5661 20.1452H12.2791L11.478 21.06ZM10.3814 22.3157V16.4975H11.5916V22.3157H10.3814ZM13.1087 22.3157L11.8246 20.4151L12.6314 19.56L14.5263 22.3157H13.1087ZM15.0376 23.952V17.952H16.2308V18.685H16.2848C16.3378 18.5676 16.4145 18.4482 16.5149 18.327C16.6172 18.2039 16.7498 18.1017 16.9126 18.0202C17.0774 17.9369 17.282 17.8952 17.5263 17.8952C17.8445 17.8952 18.138 17.9786 18.407 18.1452C18.6759 18.31 18.8909 18.559 19.0518 18.8924C19.2128 19.2238 19.2933 19.6395 19.2933 20.1395C19.2933 20.6263 19.2147 21.0373 19.0575 21.3725C18.9022 21.7058 18.6901 21.9587 18.4212 22.131C18.1541 22.3015 17.8549 22.3867 17.5234 22.3867C17.2886 22.3867 17.0888 22.3479 16.924 22.2702C16.7611 22.1926 16.6276 22.095 16.5234 21.9776C16.4193 21.8583 16.3397 21.738 16.2848 21.6168H16.2479V23.952H15.0376ZM16.2223 20.1339C16.2223 20.3933 16.2583 20.6197 16.3303 20.8128C16.4022 21.006 16.5064 21.1566 16.6428 21.2645C16.7791 21.3706 16.9448 21.4236 17.1399 21.4236C17.3369 21.4236 17.5036 21.3697 17.6399 21.2617C17.7763 21.1518 17.8795 21.0003 17.9496 20.8072C18.0215 20.6121 18.0575 20.3876 18.0575 20.1339C18.0575 19.882 18.0225 19.6604 17.9524 19.4691C17.8823 19.2778 17.7791 19.1282 17.6428 19.0202C17.5064 18.9123 17.3388 18.8583 17.1399 18.8583C16.9429 18.8583 16.7763 18.9104 16.6399 19.0145C16.5054 19.1187 16.4022 19.2664 16.3303 19.4577C16.2583 19.649 16.2223 19.8744 16.2223 20.1339ZM21.3104 16.4975V22.3157H20.1001V16.4975H21.3104ZM24.2514 22.4009C23.8101 22.4009 23.4285 22.3072 23.1065 22.1197C22.7865 21.9303 22.5393 21.667 22.3651 21.3299C22.1908 20.9909 22.1037 20.5979 22.1037 20.1509C22.1037 19.7001 22.1908 19.3062 22.3651 18.9691C22.5393 18.6301 22.7865 18.3668 23.1065 18.1793C23.4285 17.9899 23.8101 17.8952 24.2514 17.8952C24.6927 17.8952 25.0734 17.9899 25.3935 18.1793C25.7154 18.3668 25.9635 18.6301 26.1378 18.9691C26.312 19.3062 26.3991 19.7001 26.3991 20.1509C26.3991 20.5979 26.312 20.9909 26.1378 21.3299C25.9635 21.667 25.7154 21.9303 25.3935 22.1197C25.0734 22.3072 24.6927 22.4009 24.2514 22.4009ZM24.2571 21.4634C24.4579 21.4634 24.6255 21.4066 24.7599 21.2929C24.8944 21.1774 24.9957 21.0202 25.0639 20.8214C25.134 20.6225 25.169 20.3962 25.169 20.1424C25.169 19.8886 25.134 19.6623 25.0639 19.4634C24.9957 19.2645 24.8944 19.1073 24.7599 18.9918C24.6255 18.8763 24.4579 18.8185 24.2571 18.8185C24.0545 18.8185 23.884 18.8763 23.7457 18.9918C23.6094 19.1073 23.5062 19.2645 23.4361 19.4634C23.3679 19.6623 23.3338 19.8886 23.3338 20.1424C23.3338 20.3962 23.3679 20.6225 23.4361 20.8214C23.5062 21.0202 23.6094 21.1774 23.7457 21.2929C23.884 21.4066 24.0545 21.4634 24.2571 21.4634ZM27.1861 22.3157V17.952H28.3594V18.7134H28.4048C28.4844 18.4426 28.6179 18.238 28.8054 18.0998C28.9929 17.9596 29.2088 17.8895 29.4531 17.8895C29.5137 17.8895 29.5791 17.8933 29.6491 17.9009C29.7192 17.9085 29.7808 17.9189 29.8338 17.9322V19.006C29.777 18.989 29.6984 18.9738 29.598 18.9606C29.4976 18.9473 29.4058 18.9407 29.3224 18.9407C29.1444 18.9407 28.9853 18.9795 28.8452 19.0572C28.7069 19.1329 28.5971 19.239 28.5156 19.3753C28.4361 19.5117 28.3963 19.6689 28.3963 19.8469V22.3157H27.1861ZM31.5788 22.3981C31.3004 22.3981 31.0523 22.3498 30.8345 22.2532C30.6167 22.1547 30.4444 22.0098 30.3175 21.8185C30.1925 21.6253 30.13 21.3848 30.13 21.0969C30.13 20.8545 30.1745 20.6509 30.2635 20.4861C30.3525 20.3214 30.4737 20.1888 30.6271 20.0884C30.7805 19.988 30.9548 19.9123 31.1499 19.8611C31.3468 19.81 31.5533 19.774 31.7692 19.7532C32.023 19.7267 32.2275 19.702 32.3828 19.6793C32.5381 19.6547 32.6508 19.6187 32.7209 19.5714C32.791 19.524 32.826 19.4539 32.826 19.3611V19.3441C32.826 19.1642 32.7692 19.025 32.6555 18.9265C32.5438 18.828 32.3847 18.7787 32.1783 18.7787C31.9605 18.7787 31.7872 18.827 31.6584 18.9236C31.5296 19.0183 31.4444 19.1376 31.4027 19.2816L30.2834 19.1907C30.3402 18.9255 30.4519 18.6964 30.6186 18.5032C30.7853 18.3081 31.0002 18.1585 31.2635 18.0543C31.5286 17.9482 31.8355 17.8952 32.1839 17.8952C32.4264 17.8952 32.6584 17.9236 32.88 17.9804C33.1035 18.0373 33.3014 18.1253 33.4737 18.2447C33.648 18.364 33.7853 18.5174 33.8857 18.7049C33.986 18.8905 34.0362 19.113 34.0362 19.3725V22.3157H32.8885V21.7106H32.8544C32.7843 21.8469 32.6906 21.9672 32.5732 22.0714C32.4557 22.1736 32.3146 22.2541 32.1499 22.3128C31.9851 22.3697 31.7947 22.3981 31.5788 22.3981ZM31.9254 21.5628C32.1035 21.5628 32.2607 21.5278 32.397 21.4577C32.5334 21.3857 32.6404 21.2892 32.718 21.1679C32.7957 21.0467 32.8345 20.9094 32.8345 20.756V20.2929C32.7966 20.3176 32.7446 20.3403 32.6783 20.3611C32.6139 20.3801 32.541 20.3981 32.4595 20.4151C32.3781 20.4303 32.2966 20.4445 32.2152 20.4577C32.1338 20.4691 32.0599 20.4795 31.9936 20.489C31.8516 20.5098 31.7275 20.5429 31.6214 20.5884C31.5154 20.6339 31.433 20.6954 31.3743 20.7731C31.3156 20.8488 31.2862 20.9435 31.2862 21.0572C31.2862 21.2219 31.3459 21.3479 31.4652 21.435C31.5864 21.5202 31.7398 21.5628 31.9254 21.5628ZM38.6058 19.1964L37.4979 19.2645C37.4789 19.1698 37.4382 19.0846 37.3757 19.0089C37.3132 18.9312 37.2308 18.8697 37.1286 18.8242C37.0282 18.7768 36.9079 18.7532 36.7678 18.7532C36.5803 18.7532 36.4221 18.7929 36.2933 18.8725C36.1645 18.9501 36.1001 19.0543 36.1001 19.185C36.1001 19.2892 36.1418 19.3772 36.2251 19.4492C36.3085 19.5212 36.4515 19.5789 36.6541 19.6225L37.4439 19.7816C37.8681 19.8687 38.1844 20.0089 38.3928 20.202C38.6011 20.3952 38.7053 20.649 38.7053 20.9634C38.7053 21.2494 38.621 21.5003 38.4524 21.7162C38.2857 21.9322 38.0566 22.1007 37.7649 22.2219C37.4751 22.3412 37.1409 22.4009 36.7621 22.4009C36.1844 22.4009 35.7242 22.2806 35.3814 22.0401C35.0405 21.7977 34.8407 21.4681 34.782 21.0515L35.9723 20.989C36.0083 21.1651 36.0954 21.2996 36.2337 21.3924C36.3719 21.4833 36.549 21.5287 36.7649 21.5287C36.977 21.5287 37.1475 21.488 37.2763 21.4066C37.407 21.3232 37.4732 21.2162 37.4751 21.0856C37.4732 20.9757 37.4268 20.8857 37.3359 20.8157C37.245 20.7437 37.1049 20.6888 36.9155 20.6509L36.1598 20.5003C35.7337 20.4151 35.4164 20.2674 35.2081 20.0572C35.0017 19.8469 34.8984 19.5789 34.8984 19.2532C34.8984 18.9729 34.9742 18.7314 35.1257 18.5287C35.2791 18.3261 35.4941 18.1698 35.7706 18.06C36.049 17.9501 36.3748 17.8952 36.7479 17.8952C37.299 17.8952 37.7327 18.0117 38.049 18.2447C38.3672 18.4776 38.5528 18.7948 38.6058 19.1964ZM39.4673 22.3157V17.952H40.6776V22.3157H39.4673ZM40.0753 17.3895C39.8954 17.3895 39.741 17.3299 39.6122 17.2106C39.4853 17.0893 39.4219 16.9445 39.4219 16.7759C39.4219 16.6092 39.4853 16.4662 39.6122 16.3469C39.741 16.2257 39.8954 16.1651 40.0753 16.1651C40.2552 16.1651 40.4086 16.2257 40.5355 16.3469C40.6643 16.4662 40.7287 16.6092 40.7287 16.7759C40.7287 16.9445 40.6643 17.0893 40.5355 17.2106C40.4086 17.3299 40.2552 17.3895 40.0753 17.3895Z" fill="white"/>
<path d="M7.31676 26.2248V31.3157H6.70028V26.8711H6.67045L5.42756 27.6964V27.0699L6.70028 26.2248H7.31676ZM12.9471 28.4968V29.0437H10.7198V28.4968H12.9471ZM15.9381 31.3157V30.8682L17.6185 29.0287C17.8157 28.8133 17.9781 28.626 18.1057 28.467C18.2333 28.3062 18.3278 28.1554 18.3891 28.0145C18.4521 27.872 18.4836 27.7229 18.4836 27.5671C18.4836 27.3881 18.4405 27.2332 18.3543 27.1023C18.2698 26.9713 18.1538 26.8702 18.0063 26.799C17.8588 26.7277 17.6931 26.6921 17.5091 26.6921C17.3136 26.6921 17.1429 26.7327 16.9971 26.8139C16.8529 26.8934 16.741 27.0053 16.6615 27.1495C16.5836 27.2937 16.5447 27.4627 16.5447 27.6566H15.958C15.958 27.3583 16.0268 27.0965 16.1643 26.8711C16.3019 26.6457 16.4891 26.47 16.7261 26.3441C16.9648 26.2181 17.2324 26.1552 17.529 26.1552C17.8273 26.1552 18.0916 26.2181 18.322 26.3441C18.5523 26.47 18.733 26.6399 18.8639 26.8537C18.9948 27.0674 19.0603 27.3053 19.0603 27.5671C19.0603 27.7544 19.0263 27.9375 18.9584 28.1165C18.8921 28.2938 18.7761 28.4918 18.6104 28.7106C18.4463 28.9277 18.2184 29.1928 17.9268 29.506L16.7833 30.729V30.7688H19.1498V31.3157H15.9381ZM25.0187 27.4975C24.9889 27.2456 24.8679 27.05 24.6558 26.9108C24.4437 26.7716 24.1835 26.702 23.8753 26.702C23.6499 26.702 23.4527 26.7385 23.2836 26.8114C23.1163 26.8843 22.9854 26.9846 22.8909 27.1122C22.7981 27.2398 22.7517 27.3848 22.7517 27.5472C22.7517 27.6831 22.784 27.7999 22.8486 27.8977C22.9149 27.9938 22.9994 28.0742 23.1022 28.1388C23.2049 28.2018 23.3126 28.254 23.4253 28.2954C23.538 28.3352 23.6416 28.3675 23.7361 28.3924L24.2531 28.5316C24.3857 28.5664 24.5332 28.6144 24.6956 28.6758C24.8596 28.7371 25.0162 28.8208 25.1654 28.9268C25.3162 29.0312 25.4405 29.1655 25.5383 29.3295C25.636 29.4936 25.6849 29.6949 25.6849 29.9336C25.6849 30.2087 25.6128 30.4572 25.4687 30.6793C25.3261 30.9014 25.1173 31.0779 24.8422 31.2088C24.5688 31.3397 24.2365 31.4052 23.8454 31.4052C23.4809 31.4052 23.1652 31.3463 22.8983 31.2287C22.6332 31.111 22.4244 30.9469 22.2719 30.7365C22.1211 30.526 22.0358 30.2816 22.0159 30.0032H22.6523C22.6688 30.1954 22.7335 30.3545 22.8461 30.4804C22.9605 30.6047 23.1047 30.6975 23.2787 30.7589C23.4543 30.8185 23.6433 30.8483 23.8454 30.8483C24.0808 30.8483 24.2921 30.8102 24.4793 30.734C24.6666 30.6561 24.8149 30.5484 24.9243 30.4108C25.0336 30.2716 25.0883 30.1092 25.0883 29.9236C25.0883 29.7546 25.0411 29.617 24.9466 29.511C24.8522 29.4049 24.7279 29.3188 24.5738 29.2525C24.4197 29.1862 24.2531 29.1282 24.0741 29.0785L23.4477 28.8995C23.05 28.7851 22.7351 28.6219 22.5031 28.4098C22.2711 28.1977 22.1551 27.9201 22.1551 27.577C22.1551 27.292 22.2322 27.0434 22.3863 26.8313C22.5421 26.6175 22.7509 26.4518 23.0127 26.3341C23.2762 26.2148 23.5703 26.1552 23.8952 26.1552C24.2233 26.1552 24.5149 26.214 24.7702 26.3317C25.0254 26.4477 25.2275 26.6067 25.3767 26.8089C25.5275 27.0111 25.607 27.2406 25.6153 27.4975H25.0187ZM28.2695 31.3157H26.6985V26.2248H28.3391C28.833 26.2248 29.2556 26.3267 29.6069 26.5305C29.9582 26.7327 30.2275 27.0235 30.4148 27.403C30.602 27.7809 30.6957 28.2333 30.6957 28.7603C30.6957 29.2906 30.6012 29.7471 30.4123 30.1299C30.2234 30.5111 29.9483 30.8044 29.587 31.0099C29.2257 31.2138 28.7866 31.3157 28.2695 31.3157ZM27.315 30.7688H28.2298C28.6507 30.7688 28.9995 30.6876 29.2763 30.5252C29.553 30.3628 29.7594 30.1316 29.8952 29.8317C30.0311 29.5317 30.0991 29.1746 30.0991 28.7603C30.0991 28.3493 30.032 27.9955 29.8977 27.6988C29.7635 27.4005 29.563 27.1719 29.2962 27.0128C29.0294 26.852 28.6971 26.7716 28.2994 26.7716H27.315V30.7688ZM33.8278 28.7702C33.8278 28.1438 33.909 27.5679 34.0714 27.0426C34.2354 26.5156 34.4691 26.0309 34.7724 25.5884H35.2894C35.1701 25.7525 35.0582 25.9546 34.9538 26.1949C34.8511 26.4336 34.7608 26.6962 34.6829 26.9829C34.605 27.268 34.5437 27.563 34.4989 27.8679C34.4558 28.1728 34.4343 28.4736 34.4343 28.7702C34.4343 29.1646 34.4724 29.5648 34.5487 29.9709C34.6249 30.3769 34.7276 30.7539 34.8569 31.1019C34.9862 31.4499 35.1303 31.7333 35.2894 31.952H34.7724C34.4691 31.5096 34.2354 31.0257 34.0714 30.5003C33.909 29.9733 33.8278 29.3966 33.8278 28.7702ZM35.827 31.3157L35.9065 30.8682L37.8852 29.0287C38.1172 28.8133 38.3103 28.6252 38.4644 28.4645C38.6202 28.3037 38.7412 28.1529 38.8273 28.0121C38.9152 27.8712 38.9723 27.7229 38.9988 27.5671C39.0287 27.3881 39.0129 27.2332 38.9516 27.1023C38.8903 26.9713 38.7934 26.8702 38.6608 26.799C38.5282 26.7277 38.3691 26.6921 38.1835 26.6921C37.988 26.6921 37.8098 26.7327 37.6491 26.8139C37.4883 26.8934 37.3549 27.0061 37.2488 27.152C37.1428 27.2961 37.0732 27.4643 37.04 27.6566H36.4534C36.5031 27.3583 36.6166 27.0965 36.7939 26.8711C36.9729 26.6457 37.1925 26.47 37.4527 26.3441C37.7145 26.2181 37.9946 26.1552 38.2929 26.1552C38.5912 26.1552 38.8439 26.2181 39.051 26.3441C39.2582 26.47 39.4082 26.6399 39.501 26.8537C39.5938 27.0674 39.6186 27.3053 39.5756 27.5671C39.5424 27.756 39.4769 27.9391 39.3792 28.1165C39.2814 28.2938 39.1314 28.4918 38.9292 28.7106C38.7287 28.9277 38.4569 29.1928 38.1139 29.506L36.7716 30.729L36.7616 30.7688H39.1281L39.0386 31.3157H35.827ZM41.7158 31.3853C41.3413 31.3853 41.0397 31.2834 40.811 31.0795C40.5823 30.874 40.4315 30.5766 40.3586 30.1871C40.2857 29.796 40.2939 29.3237 40.3834 28.7702C40.4729 28.22 40.6196 27.7502 40.8234 27.3608C41.0273 26.9697 41.2783 26.6714 41.5766 26.4659C41.8749 26.2587 42.2097 26.1552 42.5809 26.1552C42.9521 26.1552 43.2529 26.2587 43.4832 26.4659C43.7152 26.673 43.8693 26.9713 43.9456 27.3608C44.0235 27.7502 44.016 28.22 43.9232 28.7702C43.8304 29.3237 43.6821 29.7952 43.4782 30.1846C43.2744 30.5741 43.0233 30.8715 42.7251 31.077C42.4268 31.2825 42.0903 31.3853 41.7158 31.3853ZM41.8053 30.8384C42.1782 30.8384 42.4972 30.6594 42.7623 30.3015C43.0291 29.9419 43.2172 29.4314 43.3266 28.7702C43.3995 28.3294 43.4144 27.954 43.3714 27.6442C43.3283 27.3343 43.2322 27.0981 43.083 26.9357C42.9339 26.7733 42.7367 26.6921 42.4914 26.6921C42.1235 26.6921 41.807 26.8736 41.5418 27.2365C41.2767 27.5978 41.0894 28.109 40.98 28.7702C40.9071 29.211 40.8914 29.5856 40.9328 29.8938C40.9742 30.202 41.0687 30.4365 41.2162 30.5973C41.3637 30.758 41.56 30.8384 41.8053 30.8384ZM46.1803 31.3853C45.8489 31.3853 45.5613 31.3298 45.3177 31.2187C45.0758 31.106 44.8952 30.9494 44.7758 30.7489C44.6565 30.5467 44.6143 30.3114 44.6491 30.0429H45.2655C45.2506 30.2054 45.2788 30.3462 45.3501 30.4655C45.423 30.5848 45.5307 30.6768 45.6732 30.7415C45.8174 30.8061 45.9897 30.8384 46.1903 30.8384C46.404 30.8384 46.6046 30.8011 46.7918 30.7265C46.9807 30.652 47.139 30.5442 47.2666 30.4034C47.3942 30.2609 47.4729 30.091 47.5028 29.8938C47.5293 29.7165 47.5094 29.559 47.4431 29.4215C47.3768 29.284 47.2625 29.1762 47.1001 29.0983C46.9393 29.0188 46.7288 28.979 46.4687 28.979H46.051L46.1405 28.4322H46.5283C46.7305 28.4322 46.9161 28.394 47.0851 28.3178C47.2542 28.2416 47.395 28.1347 47.5077 27.9971C47.6204 27.8579 47.6917 27.6947 47.7215 27.5074C47.7497 27.3434 47.7381 27.2009 47.6867 27.0799C47.637 26.9572 47.5508 26.862 47.4282 26.794C47.3072 26.7261 47.1531 26.6921 46.9658 26.6921C46.7868 26.6921 46.6112 26.7244 46.4388 26.789C46.2681 26.852 46.1223 26.944 46.0013 27.065C45.8804 27.1843 45.8041 27.3285 45.7726 27.4975H45.176C45.2274 27.2323 45.3426 26.9995 45.5216 26.799C45.7006 26.5968 45.9185 26.4394 46.1753 26.3267C46.4339 26.2123 46.7073 26.1552 46.9956 26.1552C47.3155 26.1552 47.579 26.2215 47.7861 26.354C47.9949 26.4849 48.1441 26.6573 48.2336 26.8711C48.3231 27.0832 48.3479 27.3119 48.3081 27.5572C48.2634 27.8372 48.1482 28.0742 47.9626 28.2681C47.777 28.462 47.5508 28.5995 47.284 28.6807V28.7106C47.5972 28.7652 47.8242 28.9094 47.9651 29.1431C48.1076 29.3751 48.1524 29.6518 48.0993 29.9733C48.0529 30.2617 47.9411 30.5119 47.7638 30.7241C47.5864 30.9345 47.3619 31.0978 47.0901 31.2138C46.8183 31.3281 46.5151 31.3853 46.1803 31.3853ZM50.4782 31.3853C50.1866 31.3853 49.933 31.3273 49.7176 31.2113C49.5022 31.0953 49.3406 30.9362 49.2329 30.734C49.1251 30.5318 49.0862 30.3015 49.116 30.0429H49.7126C49.6977 30.2716 49.7715 30.4614 49.9339 30.6122C50.0979 30.763 50.3092 30.8384 50.5677 30.8384C50.7765 30.8384 50.9704 30.7895 51.1494 30.6917C51.33 30.594 51.4809 30.4597 51.6018 30.289C51.7245 30.1183 51.804 29.9236 51.8405 29.7049C51.8769 29.4828 51.8612 29.284 51.7932 29.1083C51.7253 28.9326 51.6151 28.7942 51.4626 28.6932C51.3102 28.5921 51.1246 28.5415 50.9058 28.5415C50.7517 28.5415 50.5885 28.5664 50.4161 28.6161C50.2454 28.6642 50.1004 28.7255 49.9811 28.8L49.4143 28.7304L50.1402 26.2248H52.7851L52.6956 26.7716H50.5677L50.1402 28.2731H50.17C50.2893 28.1885 50.431 28.1198 50.5951 28.0667C50.7608 28.0121 50.9307 27.9847 51.1047 27.9847C51.4162 27.9847 51.6814 28.0593 51.9001 28.2084C52.1205 28.3559 52.2788 28.5589 52.3749 28.8174C52.4727 29.0743 52.4934 29.3668 52.4371 29.6949C52.384 30.0197 52.2639 30.3098 52.0766 30.565C51.891 30.8185 51.659 31.019 51.3806 31.1665C51.1038 31.3124 50.8031 31.3853 50.4782 31.3853ZM54.737 29.1679C54.737 29.7944 54.655 30.3711 54.4909 30.8981C54.3285 31.4234 54.0957 31.9073 53.7924 32.3498H53.2754C53.3947 32.1857 53.5057 31.9835 53.6085 31.7432C53.7129 31.5046 53.804 31.2428 53.8819 30.9577C53.9598 30.671 54.0203 30.3752 54.0634 30.0703C54.1081 29.7637 54.1305 29.4629 54.1305 29.1679C54.1305 28.7735 54.0924 28.3733 54.0162 27.9673C53.9399 27.5613 53.8372 27.1843 53.7079 26.8363C53.5787 26.4883 53.4345 26.2049 53.2754 25.9861H53.7924C54.0957 26.4286 54.3285 26.9133 54.4909 27.4403C54.655 27.9657 54.737 28.5415 54.737 29.1679Z" fill="white"/>
</svg>
