<svg width="120" height="48" viewBox="0 0 120 48" fill="none" xmlns="http://www.w3.org/2000/svg">
<path d="M116.921 20.4439C118.665 22.3535 118.665 25.2779 116.921 27.1875L99.9884 45.7279C99.3728 46.402 98.25 45.9664 98.25 45.0535L98.25 2.57787C98.25 1.66495 99.3728 1.22941 99.9884 1.90351L116.921 20.4439Z" fill="#F58A73"/>
<rect y="1.31567" width="100" height="45" rx="1" fill="#F58A73"/>
<path d="M19.6846 20.5405C21.538 22.4745 21.538 25.5255 19.6846 27.4595L1.72199 46.2031C1.09844 46.8538 -2.50204e-07 46.4124 -2.10812e-07 45.5112L1.66976e-06 2.48876C1.70915e-06 1.58756 1.09845 1.1462 1.72199 1.79686L19.6846 20.5405Z" fill="white"/>
<path d="M35.5057 22.3157V16.4975H37.8011C38.2424 16.4975 38.6184 16.5818 38.929 16.7503C39.2396 16.917 39.4763 17.149 39.6392 17.4464C39.804 17.7418 39.8864 18.0827 39.8864 18.4691C39.8864 18.8554 39.803 19.1964 39.6364 19.4918C39.4697 19.7873 39.2282 20.0174 38.9119 20.1822C38.5975 20.3469 38.2169 20.4293 37.7699 20.4293H36.3068V19.4435H37.571C37.8078 19.4435 38.0028 19.4028 38.1562 19.3214C38.3116 19.238 38.4271 19.1234 38.5028 18.9776C38.5805 18.8299 38.6193 18.6604 38.6193 18.4691C38.6193 18.2759 38.5805 18.1073 38.5028 17.9634C38.4271 17.8176 38.3116 17.7049 38.1562 17.6253C38.0009 17.5439 37.804 17.5032 37.5653 17.5032H36.7358V22.3157H35.5057ZM40.6626 22.3157V17.952H41.8359V18.7134H41.8814C41.9609 18.4426 42.0945 18.238 42.282 18.0998C42.4695 17.9596 42.6854 17.8895 42.9297 17.8895C42.9903 17.8895 43.0556 17.8933 43.1257 17.9009C43.1958 17.9085 43.2573 17.9189 43.3104 17.9322V19.006C43.2536 18.989 43.175 18.9738 43.0746 18.9606C42.9742 18.9473 42.8823 18.9407 42.799 18.9407C42.621 18.9407 42.4619 18.9795 42.3217 19.0572C42.1835 19.1329 42.0736 19.239 41.9922 19.3753C41.9126 19.5117 41.8729 19.6689 41.8729 19.8469V22.3157H40.6626ZM45.7045 22.4009C45.2633 22.4009 44.8816 22.3072 44.5597 22.1197C44.2396 21.9303 43.9924 21.667 43.8182 21.3299C43.6439 20.9909 43.5568 20.5979 43.5568 20.1509C43.5568 19.7001 43.6439 19.3062 43.8182 18.9691C43.9924 18.6301 44.2396 18.3668 44.5597 18.1793C44.8816 17.9899 45.2633 17.8952 45.7045 17.8952C46.1458 17.8952 46.5265 17.9899 46.8466 18.1793C47.1686 18.3668 47.4167 18.6301 47.5909 18.9691C47.7652 19.3062 47.8523 19.7001 47.8523 20.1509C47.8523 20.5979 47.7652 20.9909 47.5909 21.3299C47.4167 21.667 47.1686 21.9303 46.8466 22.1197C46.5265 22.3072 46.1458 22.4009 45.7045 22.4009ZM45.7102 21.4634C45.911 21.4634 46.0786 21.4066 46.2131 21.2929C46.3475 21.1774 46.4489 21.0202 46.517 20.8214C46.5871 20.6225 46.6222 20.3962 46.6222 20.1424C46.6222 19.8886 46.5871 19.6623 46.517 19.4634C46.4489 19.2645 46.3475 19.1073 46.2131 18.9918C46.0786 18.8763 45.911 18.8185 45.7102 18.8185C45.5076 18.8185 45.3371 18.8763 45.1989 18.9918C45.0625 19.1073 44.9593 19.2645 44.8892 19.4634C44.821 19.6623 44.7869 19.8886 44.7869 20.1424C44.7869 20.3962 44.821 20.6225 44.8892 20.8214C44.9593 21.0202 45.0625 21.1774 45.1989 21.2929C45.3371 21.4066 45.5076 21.4634 45.7102 21.4634ZM50.9858 17.952V18.8611H48.2926V17.952H50.9858ZM48.9091 22.3157V17.6367C48.9091 17.3204 48.9706 17.0581 49.0938 16.8498C49.2188 16.6414 49.3892 16.4852 49.6051 16.381C49.821 16.2768 50.0663 16.2248 50.3409 16.2248C50.5265 16.2248 50.696 16.239 50.8494 16.2674C51.0047 16.2958 51.1203 16.3214 51.196 16.3441L50.9801 17.2532C50.9328 17.238 50.8741 17.2238 50.804 17.2106C50.7358 17.1973 50.6657 17.1907 50.5938 17.1907C50.4157 17.1907 50.2917 17.2323 50.2216 17.3157C50.1515 17.3971 50.1165 17.5117 50.1165 17.6594V22.3157H48.9091ZM51.7251 22.3157V17.952H52.9354V22.3157H51.7251ZM52.3331 17.3895C52.1532 17.3895 51.9988 17.3299 51.87 17.2106C51.7431 17.0893 51.6797 16.9445 51.6797 16.7759C51.6797 16.6092 51.7431 16.4662 51.87 16.3469C51.9988 16.2257 52.1532 16.1651 52.3331 16.1651C52.513 16.1651 52.6664 16.2257 52.7933 16.3469C52.9221 16.4662 52.9865 16.6092 52.9865 16.7759C52.9865 16.9445 52.9221 17.0893 52.7933 17.2106C52.6664 17.3299 52.513 17.3895 52.3331 17.3895ZM57.5355 19.1964L56.4276 19.2645C56.4086 19.1698 56.3679 19.0846 56.3054 19.0089C56.2429 18.9312 56.1605 18.8697 56.0582 18.8242C55.9579 18.7768 55.8376 18.7532 55.6974 18.7532C55.5099 18.7532 55.3518 18.7929 55.223 18.8725C55.0942 18.9501 55.0298 19.0543 55.0298 19.185C55.0298 19.2892 55.0715 19.3772 55.1548 19.4492C55.2382 19.5212 55.3812 19.5789 55.5838 19.6225L56.3736 19.7816C56.7978 19.8687 57.1141 20.0089 57.3224 20.202C57.5308 20.3952 57.6349 20.649 57.6349 20.9634C57.6349 21.2494 57.5507 21.5003 57.3821 21.7162C57.2154 21.9322 56.9863 22.1007 56.6946 22.2219C56.4048 22.3412 56.0705 22.4009 55.6918 22.4009C55.1141 22.4009 54.6539 22.2806 54.3111 22.0401C53.9702 21.7977 53.7704 21.4681 53.7116 21.0515L54.902 20.989C54.938 21.1651 55.0251 21.2996 55.1634 21.3924C55.3016 21.4833 55.4787 21.5287 55.6946 21.5287C55.9067 21.5287 56.0772 21.488 56.206 21.4066C56.3366 21.3232 56.4029 21.2162 56.4048 21.0856C56.4029 20.9757 56.3565 20.8857 56.2656 20.8157C56.1747 20.7437 56.0346 20.6888 55.8452 20.6509L55.0895 20.5003C54.6634 20.4151 54.3461 20.2674 54.1378 20.0572C53.9313 19.8469 53.8281 19.5789 53.8281 19.2532C53.8281 18.9729 53.9039 18.7314 54.0554 18.5287C54.2088 18.3261 54.4238 18.1698 54.7003 18.06C54.9787 17.9501 55.3045 17.8952 55.6776 17.8952C56.2287 17.8952 56.6624 18.0117 56.9787 18.2447C57.2969 18.4776 57.4825 18.7948 57.5355 19.1964ZM58.397 22.3157V17.952H59.6072V22.3157H58.397ZM59.005 17.3895C58.825 17.3895 58.6707 17.3299 58.5419 17.2106C58.415 17.0893 58.3516 16.9445 58.3516 16.7759C58.3516 16.6092 58.415 16.4662 58.5419 16.3469C58.6707 16.2257 58.825 16.1651 59.005 16.1651C59.1849 16.1651 59.3383 16.2257 59.4652 16.3469C59.594 16.4662 59.6584 16.6092 59.6584 16.7759C59.6584 16.9445 59.594 17.0893 59.4652 17.2106C59.3383 17.3299 59.1849 17.3895 59.005 17.3895ZM62.5653 22.4009C62.1165 22.4009 61.7301 22.31 61.4062 22.1282C61.0843 21.9445 60.8362 21.685 60.6619 21.3498C60.4877 21.0126 60.4006 20.614 60.4006 20.1537C60.4006 19.7049 60.4877 19.3109 60.6619 18.9719C60.8362 18.6329 61.0814 18.3687 61.3977 18.1793C61.7159 17.9899 62.089 17.8952 62.517 17.8952C62.8049 17.8952 63.0729 17.9416 63.321 18.0344C63.571 18.1253 63.7888 18.2626 63.9744 18.4464C64.1619 18.6301 64.3078 18.8611 64.4119 19.1395C64.5161 19.4161 64.5682 19.7399 64.5682 20.1111V20.4435H60.8835V19.6935H63.429C63.429 19.5193 63.3911 19.3649 63.3153 19.2304C63.2396 19.096 63.1345 18.9909 63 18.9151C62.8674 18.8375 62.7131 18.7986 62.5369 18.7986C62.3532 18.7986 62.1903 18.8412 62.0483 18.9265C61.9081 19.0098 61.7983 19.1225 61.7188 19.2645C61.6392 19.4047 61.5985 19.5609 61.5966 19.7333V20.4464C61.5966 20.6623 61.6364 20.8488 61.7159 21.006C61.7973 21.1632 61.9119 21.2844 62.0597 21.3697C62.2074 21.4549 62.3826 21.4975 62.5852 21.4975C62.7197 21.4975 62.8428 21.4786 62.9545 21.4407C63.0663 21.4028 63.1619 21.346 63.2415 21.2702C63.321 21.1945 63.3816 21.1017 63.4233 20.9918L64.5426 21.0657C64.4858 21.3346 64.3693 21.5695 64.1932 21.7702C64.0189 21.9691 63.7936 22.1244 63.517 22.2361C63.2424 22.346 62.9252 22.4009 62.5653 22.4009ZM66.5682 19.7929V22.3157H65.358V17.952H66.5114V18.7219H66.5625C66.6591 18.4681 66.821 18.2674 67.0483 18.1197C67.2756 17.97 67.5511 17.8952 67.875 17.8952C68.178 17.8952 68.4422 17.9615 68.6676 18.0941C68.893 18.2267 69.0682 18.4161 69.1932 18.6623C69.3182 18.9066 69.3807 19.1982 69.3807 19.5373V22.3157H68.1705V19.7532C68.1723 19.4861 68.1042 19.2778 67.9659 19.1282C67.8277 18.9767 67.6373 18.9009 67.3949 18.9009C67.232 18.9009 67.0881 18.9359 66.9631 19.006C66.84 19.0761 66.7434 19.1784 66.6733 19.3128C66.6051 19.4454 66.5701 19.6054 66.5682 19.7929ZM73.9652 19.1964L72.8572 19.2645C72.8383 19.1698 72.7976 19.0846 72.7351 19.0089C72.6726 18.9312 72.5902 18.8697 72.4879 18.8242C72.3875 18.7768 72.2673 18.7532 72.1271 18.7532C71.9396 18.7532 71.7815 18.7929 71.6527 18.8725C71.5239 18.9501 71.4595 19.0543 71.4595 19.185C71.4595 19.2892 71.5012 19.3772 71.5845 19.4492C71.6679 19.5212 71.8108 19.5789 72.0135 19.6225L72.8033 19.7816C73.2275 19.8687 73.5438 20.0089 73.7521 20.202C73.9605 20.3952 74.0646 20.649 74.0646 20.9634C74.0646 21.2494 73.9804 21.5003 73.8118 21.7162C73.6451 21.9322 73.416 22.1007 73.1243 22.2219C72.8345 22.3412 72.5002 22.4009 72.1214 22.4009C71.5438 22.4009 71.0836 22.2806 70.7408 22.0401C70.3999 21.7977 70.2 21.4681 70.1413 21.0515L71.3317 20.989C71.3677 21.1651 71.4548 21.2996 71.593 21.3924C71.7313 21.4833 71.9084 21.5287 72.1243 21.5287C72.3364 21.5287 72.5069 21.488 72.6357 21.4066C72.7663 21.3232 72.8326 21.2162 72.8345 21.0856C72.8326 20.9757 72.7862 20.8857 72.6953 20.8157C72.6044 20.7437 72.4643 20.6888 72.2749 20.6509L71.5192 20.5003C71.093 20.4151 70.7758 20.2674 70.5675 20.0572C70.361 19.8469 70.2578 19.5789 70.2578 19.2532C70.2578 18.9729 70.3336 18.7314 70.4851 18.5287C70.6385 18.3261 70.8535 18.1698 71.13 18.06C71.4084 17.9501 71.7341 17.8952 72.1072 17.8952C72.6584 17.8952 73.0921 18.0117 73.4084 18.2447C73.7266 18.4776 73.9122 18.7948 73.9652 19.1964ZM74.8267 22.3157V17.952H76.0369V22.3157H74.8267ZM75.4347 17.3895C75.2547 17.3895 75.1004 17.3299 74.9716 17.2106C74.8447 17.0893 74.7812 16.9445 74.7812 16.7759C74.7812 16.6092 74.8447 16.4662 74.9716 16.3469C75.1004 16.2257 75.2547 16.1651 75.4347 16.1651C75.6146 16.1651 75.768 16.2257 75.8949 16.3469C76.0237 16.4662 76.0881 16.6092 76.0881 16.7759C76.0881 16.9445 76.0237 17.0893 75.8949 17.2106C75.768 17.3299 75.6146 17.3895 75.4347 17.3895Z" fill="white"/>
<path d="M37.3168 26.2248V31.3157H36.7003V26.8711H36.6705L35.4276 27.6964V27.0699L36.7003 26.2248H37.3168ZM40.4414 31.3853C40.0669 31.3853 39.7479 31.2834 39.4844 31.0795C39.2209 30.874 39.0195 30.5766 38.8803 30.1871C38.7411 29.796 38.6715 29.3237 38.6715 28.7702C38.6715 28.22 38.7411 27.7502 38.8803 27.3608C39.0212 26.9697 39.2234 26.6714 39.4869 26.4659C39.752 26.2587 40.0702 26.1552 40.4414 26.1552C40.8126 26.1552 41.13 26.2587 41.3935 26.4659C41.6586 26.6714 41.8608 26.9697 42 27.3608C42.1409 27.7502 42.2113 28.22 42.2113 28.7702C42.2113 29.3237 42.1417 29.796 42.0025 30.1871C41.8633 30.5766 41.6619 30.874 41.3984 31.0795C41.1349 31.2834 40.8159 31.3853 40.4414 31.3853ZM40.4414 30.8384C40.8126 30.8384 41.101 30.6594 41.3065 30.3015C41.512 29.9435 41.6147 29.4331 41.6147 28.7702C41.6147 28.3294 41.5675 27.954 41.473 27.6442C41.3802 27.3343 41.246 27.0981 41.0703 26.9357C40.8963 26.7733 40.6867 26.6921 40.4414 26.6921C40.0735 26.6921 39.786 26.8736 39.5788 27.2365C39.3717 27.5978 39.2681 28.109 39.2681 28.7702C39.2681 29.211 39.3145 29.5856 39.4073 29.8938C39.5001 30.202 39.6335 30.4365 39.8075 30.5973C39.9832 30.758 40.1945 30.8384 40.4414 30.8384ZM47.3221 28.4968V29.0437H45.0948V28.4968H47.3221ZM52.1029 26.2248V31.3157H51.4864V26.8711H51.4566L50.2137 27.6964V27.0699L51.4864 26.2248H52.1029ZM53.567 31.3157V30.8682L55.2474 29.0287C55.4446 28.8133 55.607 28.626 55.7346 28.467C55.8622 28.3062 55.9567 28.1554 56.018 28.0145C56.081 27.872 56.1125 27.7229 56.1125 27.5671C56.1125 27.3881 56.0694 27.2332 55.9832 27.1023C55.8987 26.9713 55.7827 26.8702 55.6352 26.799C55.4877 26.7277 55.322 26.6921 55.1381 26.6921C54.9425 26.6921 54.7718 26.7327 54.626 26.8139C54.4818 26.8934 54.3699 27.0053 54.2904 27.1495C54.2125 27.2937 54.1736 27.4627 54.1736 27.6566H53.5869C53.5869 27.3583 53.6557 27.0965 53.7932 26.8711C53.9308 26.6457 54.118 26.47 54.355 26.3441C54.5937 26.2181 54.8613 26.1552 55.1579 26.1552C55.4562 26.1552 55.7206 26.2181 55.9509 26.3441C56.1813 26.47 56.3619 26.6399 56.4928 26.8537C56.6237 27.0674 56.6892 27.3053 56.6892 27.5671C56.6892 27.7544 56.6552 27.9375 56.5873 28.1165C56.521 28.2938 56.405 28.4918 56.2393 28.7106C56.0752 28.9277 55.8473 29.1928 55.5557 29.506L54.4122 30.729V30.7688H56.7787V31.3157H53.567ZM62.6476 27.4975C62.6178 27.2456 62.4968 27.05 62.2847 26.9108C62.0726 26.7716 61.8124 26.702 61.5042 26.702C61.2788 26.702 61.0816 26.7385 60.9126 26.8114C60.7452 26.8843 60.6143 26.9846 60.5198 27.1122C60.427 27.2398 60.3806 27.3848 60.3806 27.5472C60.3806 27.6831 60.4129 27.7999 60.4775 27.8977C60.5438 27.9938 60.6283 28.0742 60.7311 28.1388C60.8338 28.2018 60.9416 28.254 61.0542 28.2954C61.1669 28.3352 61.2705 28.3675 61.365 28.3924L61.882 28.5316C62.0146 28.5664 62.1621 28.6144 62.3245 28.6758C62.4885 28.7371 62.6452 28.8208 62.7943 28.9268C62.9451 29.0312 63.0694 29.1655 63.1672 29.3295C63.2649 29.4936 63.3138 29.6949 63.3138 29.9336C63.3138 30.2087 63.2417 30.4572 63.0976 30.6793C62.955 30.9014 62.7462 31.0779 62.4711 31.2088C62.1977 31.3397 61.8654 31.4052 61.4743 31.4052C61.1098 31.4052 60.7941 31.3463 60.5273 31.2287C60.2621 31.111 60.0533 30.9469 59.9008 30.7365C59.75 30.526 59.6647 30.2816 59.6448 30.0032H60.2812C60.2977 30.1954 60.3624 30.3545 60.4751 30.4804C60.5894 30.6047 60.7336 30.6975 60.9076 30.7589C61.0832 30.8185 61.2722 30.8483 61.4743 30.8483C61.7097 30.8483 61.921 30.8102 62.1082 30.734C62.2955 30.6561 62.4438 30.5484 62.5532 30.4108C62.6626 30.2716 62.7172 30.1092 62.7172 29.9236C62.7172 29.7546 62.67 29.617 62.5756 29.511C62.4811 29.4049 62.3568 29.3188 62.2027 29.2525C62.0486 29.1862 61.882 29.1282 61.703 29.0785L61.0766 28.8995C60.6789 28.7851 60.364 28.6219 60.132 28.4098C59.9 28.1977 59.784 27.9201 59.784 27.577C59.784 27.292 59.8611 27.0434 60.0152 26.8313C60.171 26.6175 60.3798 26.4518 60.6416 26.3341C60.9051 26.2148 61.1992 26.1552 61.5241 26.1552C61.8522 26.1552 62.1439 26.214 62.3991 26.3317C62.6543 26.4477 62.8564 26.6067 63.0056 26.8089C63.1564 27.0111 63.2359 27.2406 63.2442 27.4975H62.6476ZM64.3274 26.2248H65.0632L66.7933 30.4506H66.853L68.5831 26.2248H69.3189V31.3157H68.7422V27.4478H68.6925L67.1016 31.3157H66.5447L64.9538 27.4478H64.9041V31.3157H64.3274V26.2248ZM70.7638 31.3157H70.1175L71.9868 26.2248H72.6231L74.4925 31.3157H73.8461L72.3248 27.0302H72.2851L70.7638 31.3157ZM71.0024 29.327H73.6075V29.8739H71.0024V29.327ZM77.3834 28.7702C77.3834 28.1438 77.4646 27.5679 77.627 27.0426C77.7911 26.5156 78.0248 26.0309 78.328 25.5884H78.8451C78.7258 25.7525 78.6139 25.9546 78.5095 26.1949C78.4068 26.4336 78.3164 26.6962 78.2385 26.9829C78.1607 27.268 78.0993 27.563 78.0546 27.8679C78.0115 28.1728 77.99 28.4736 77.99 28.7702C77.99 29.1646 78.0281 29.5648 78.1043 29.9709C78.1805 30.3769 78.2833 30.7539 78.4126 31.1019C78.5418 31.4499 78.686 31.7333 78.8451 31.952H78.328C78.0248 31.5096 77.7911 31.0257 77.627 30.5003C77.4646 29.9733 77.3834 29.3966 77.3834 28.7702ZM79.3826 31.3157L79.4622 30.8682L81.4409 29.0287C81.6729 28.8133 81.8659 28.6252 82.0201 28.4645C82.1758 28.3037 82.2968 28.1529 82.383 28.0121C82.4708 27.8712 82.528 27.7229 82.5545 27.5671C82.5843 27.3881 82.5686 27.2332 82.5073 27.1023C82.446 26.9713 82.349 26.8702 82.2164 26.799C82.0839 26.7277 81.9248 26.6921 81.7392 26.6921C81.5436 26.6921 81.3655 26.7327 81.2047 26.8139C81.044 26.8934 80.9106 27.0061 80.8045 27.152C80.6984 27.2961 80.6288 27.4643 80.5957 27.6566H80.0091C80.0588 27.3583 80.1723 27.0965 80.3496 26.8711C80.5286 26.6457 80.7482 26.47 81.0083 26.3441C81.2702 26.2181 81.5502 26.1552 81.8485 26.1552C82.1468 26.1552 82.3996 26.2181 82.6067 26.3441C82.8139 26.47 82.9638 26.6399 83.0566 26.8537C83.1494 27.0674 83.1743 27.3053 83.1312 27.5671C83.0981 27.756 83.0326 27.9391 82.9348 28.1165C82.8371 28.2938 82.6871 28.4918 82.4849 28.7106C82.2844 28.9277 82.0126 29.1928 81.6696 29.506L80.3272 30.729L80.3173 30.7688H82.6838L82.5943 31.3157H79.3826ZM85.2715 31.3853C84.897 31.3853 84.5953 31.2834 84.3667 31.0795C84.138 30.874 83.9872 30.5766 83.9142 30.1871C83.8413 29.796 83.8496 29.3237 83.9391 28.7702C84.0286 28.22 84.1752 27.7502 84.3791 27.3608C84.5829 26.9697 84.834 26.6714 85.1323 26.4659C85.4306 26.2587 85.7653 26.1552 86.1365 26.1552C86.5078 26.1552 86.8085 26.2587 87.0389 26.4659C87.2709 26.673 87.425 26.9713 87.5012 27.3608C87.5791 27.7502 87.5717 28.22 87.4789 28.7702C87.3861 29.3237 87.2377 29.7952 87.0339 30.1846C86.8301 30.5741 86.579 30.8715 86.2807 31.077C85.9824 31.2825 85.646 31.3853 85.2715 31.3853ZM85.361 30.8384C85.7338 30.8384 86.0529 30.6594 86.318 30.3015C86.5848 29.9419 86.7729 29.4314 86.8823 28.7702C86.9552 28.3294 86.9701 27.954 86.927 27.6442C86.8839 27.3343 86.7878 27.0981 86.6387 26.9357C86.4895 26.7733 86.2923 26.6921 86.0471 26.6921C85.6792 26.6921 85.3626 26.8736 85.0975 27.2365C84.8323 27.5978 84.6451 28.109 84.5357 28.7702C84.4628 29.211 84.447 29.5856 84.4885 29.8938C84.5299 30.202 84.6243 30.4365 84.7718 30.5973C84.9193 30.758 85.1157 30.8384 85.361 30.8384ZM87.9959 31.3157L88.0755 30.8682L90.0542 29.0287C90.2862 28.8133 90.4792 28.6252 90.6333 28.4645C90.7891 28.3037 90.9101 28.1529 90.9963 28.0121C91.0841 27.8712 91.1413 27.7229 91.1678 27.5671C91.1976 27.3881 91.1819 27.2332 91.1206 27.1023C91.0592 26.9713 90.9623 26.8702 90.8297 26.799C90.6971 26.7277 90.5381 26.6921 90.3525 26.6921C90.1569 26.6921 89.9788 26.7327 89.818 26.8139C89.6573 26.8934 89.5239 27.0061 89.4178 27.152C89.3117 27.2961 89.2421 27.4643 89.209 27.6566H88.6223C88.6721 27.3583 88.7856 27.0965 88.9629 26.8711C89.1419 26.6457 89.3614 26.47 89.6216 26.3441C89.8835 26.2181 90.1635 26.1552 90.4618 26.1552C90.7601 26.1552 91.0128 26.2181 91.22 26.3441C91.4271 26.47 91.5771 26.6399 91.6699 26.8537C91.7627 27.0674 91.7876 27.3053 91.7445 27.5671C91.7114 27.756 91.6459 27.9391 91.5481 28.1165C91.4503 28.2938 91.3004 28.4918 91.0982 28.7106C90.8977 28.9277 90.6259 29.1928 90.2828 29.506L88.9405 30.729L88.9306 30.7688H91.2971L91.2076 31.3157H87.9959ZM93.8152 31.3853C93.5235 31.3853 93.2699 31.3273 93.0545 31.2113C92.8391 31.0953 92.6775 30.9362 92.5698 30.734C92.4621 30.5318 92.4231 30.3015 92.4529 30.0429H93.0495C93.0346 30.2716 93.1084 30.4614 93.2708 30.6122C93.4348 30.763 93.6461 30.8384 93.9047 30.8384C94.1135 30.8384 94.3074 30.7895 94.4863 30.6917C94.667 30.594 94.8178 30.4597 94.9387 30.289C95.0614 30.1183 95.1409 29.9236 95.1774 29.7049C95.2138 29.4828 95.1981 29.284 95.1301 29.1083C95.0622 28.9326 94.952 28.7942 94.7995 28.6932C94.6471 28.5921 94.4615 28.5415 94.2427 28.5415C94.0886 28.5415 93.9254 28.5664 93.753 28.6161C93.5823 28.6642 93.4373 28.7255 93.318 28.8L92.7512 28.7304L93.4771 26.2248H96.122L96.0325 26.7716H93.9047L93.4771 28.2731H93.5069C93.6262 28.1885 93.7679 28.1198 93.932 28.0667C94.0977 28.0121 94.2676 27.9847 94.4416 27.9847C94.7531 27.9847 95.0183 28.0593 95.237 28.2084C95.4574 28.3559 95.6157 28.5589 95.7118 28.8174C95.8096 29.0743 95.8303 29.3668 95.774 29.6949C95.7209 30.0197 95.6008 30.3098 95.4135 30.565C95.2279 30.8185 94.9959 31.019 94.7175 31.1665C94.4408 31.3124 94.14 31.3853 93.8152 31.3853ZM98.074 29.1679C98.074 29.7944 97.9919 30.3711 97.8279 30.8981C97.6655 31.4234 97.4326 31.9073 97.1294 32.3498H96.6123C96.7316 32.1857 96.8427 31.9835 96.9454 31.7432C97.0498 31.5046 97.141 31.2428 97.2188 30.9577C97.2967 30.671 97.3572 30.3752 97.4003 30.0703C97.445 29.7637 97.4674 29.4629 97.4674 29.1679C97.4674 28.7735 97.4293 28.3733 97.3531 27.9673C97.2768 27.5613 97.1741 27.1843 97.0448 26.8363C96.9156 26.4883 96.7714 26.2049 96.6123 25.9861H97.1294C97.4326 26.4286 97.6655 26.9133 97.8279 27.4403C97.9919 27.9657 98.074 28.5415 98.074 29.1679Z" fill="white"/>
</svg>
