<svg width="120" height="48" viewBox="0 0 120 48" fill="none" xmlns="http://www.w3.org/2000/svg">
<path d="M116.921 20.4439C118.665 22.3535 118.665 25.2779 116.921 27.1875L99.9884 45.7279C99.3728 46.402 98.25 45.9664 98.25 45.0535L98.25 2.57787C98.25 1.66495 99.3728 1.22941 99.9884 1.90351L116.921 20.4439Z" fill="#92C69A"/>
<rect y="1.31567" width="100" height="45" rx="1" fill="#92C69A"/>
<path d="M19.6846 20.5405C21.538 22.4745 21.538 25.5255 19.6846 27.4595L1.72199 46.2031C1.09844 46.8538 -2.50204e-07 46.4124 -2.10812e-07 45.5112L1.66976e-06 2.48876C1.70915e-06 1.58756 1.09845 1.1462 1.72199 1.79686L19.6846 20.5405Z" fill="white"/>
<path d="M28.5085 22.3157H27.1903L29.1989 16.4975H30.7841L32.7898 22.3157H31.4716L30.0142 17.827H29.9688L28.5085 22.3157ZM28.4261 20.0287H31.5398V20.989H28.4261V20.0287ZM34.5639 21.06L34.5668 19.6083H34.7429L36.1406 17.952H37.5298L35.652 20.1452H35.3651L34.5639 21.06ZM33.4673 22.3157V16.4975H34.6776V22.3157H33.4673ZM36.1946 22.3157L34.9105 20.4151L35.7173 19.56L37.6122 22.3157H36.1946ZM41.7543 19.1964L40.6463 19.2645C40.6274 19.1698 40.5866 19.0846 40.5241 19.0089C40.4616 18.9312 40.3793 18.8697 40.277 18.8242C40.1766 18.7768 40.0563 18.7532 39.9162 18.7532C39.7287 18.7532 39.5705 18.7929 39.4418 18.8725C39.313 18.9501 39.2486 19.0543 39.2486 19.185C39.2486 19.2892 39.2902 19.3772 39.3736 19.4492C39.4569 19.5212 39.5999 19.5789 39.8026 19.6225L40.5923 19.7816C41.0166 19.8687 41.3329 20.0089 41.5412 20.202C41.7495 20.3952 41.8537 20.649 41.8537 20.9634C41.8537 21.2494 41.7694 21.5003 41.6009 21.7162C41.4342 21.9322 41.205 22.1007 40.9134 22.2219C40.6236 22.3412 40.2893 22.4009 39.9105 22.4009C39.3329 22.4009 38.8726 22.2806 38.5298 22.0401C38.1889 21.7977 37.9891 21.4681 37.9304 21.0515L39.1207 20.989C39.1567 21.1651 39.2438 21.2996 39.3821 21.3924C39.5204 21.4833 39.6974 21.5287 39.9134 21.5287C40.1255 21.5287 40.2959 21.488 40.4247 21.4066C40.5554 21.3232 40.6217 21.2162 40.6236 21.0856C40.6217 20.9757 40.5753 20.8857 40.4844 20.8157C40.3935 20.7437 40.2533 20.6888 40.0639 20.6509L39.3082 20.5003C38.8821 20.4151 38.5649 20.2674 38.3565 20.0572C38.1501 19.8469 38.0469 19.5789 38.0469 19.2532C38.0469 18.9729 38.1226 18.7314 38.2741 18.5287C38.4276 18.3261 38.6425 18.1698 38.919 18.06C39.1974 17.9501 39.5232 17.8952 39.8963 17.8952C40.4474 17.8952 40.8812 18.0117 41.1974 18.2447C41.5156 18.4776 41.7012 18.7948 41.7543 19.1964ZM44.6044 22.4009C44.1555 22.4009 43.7692 22.31 43.4453 22.1282C43.1233 21.9445 42.8752 21.685 42.701 21.3498C42.5268 21.0126 42.4396 20.614 42.4396 20.1537C42.4396 19.7049 42.5268 19.3109 42.701 18.9719C42.8752 18.6329 43.1205 18.3687 43.4368 18.1793C43.755 17.9899 44.1281 17.8952 44.5561 17.8952C44.844 17.8952 45.112 17.9416 45.3601 18.0344C45.6101 18.1253 45.8279 18.2626 46.0135 18.4464C46.201 18.6301 46.3468 18.8611 46.451 19.1395C46.5552 19.4161 46.6072 19.7399 46.6072 20.1111V20.4435H42.9226V19.6935H45.468C45.468 19.5193 45.4302 19.3649 45.3544 19.2304C45.2786 19.096 45.1735 18.9909 45.0391 18.9151C44.9065 18.8375 44.7521 18.7986 44.576 18.7986C44.3923 18.7986 44.2294 18.8412 44.0874 18.9265C43.9472 19.0098 43.8374 19.1225 43.7578 19.2645C43.6783 19.4047 43.6375 19.5609 43.6357 19.7333V20.4464C43.6357 20.6623 43.6754 20.8488 43.755 21.006C43.8364 21.1632 43.951 21.2844 44.0987 21.3697C44.2464 21.4549 44.4216 21.4975 44.6243 21.4975C44.7588 21.4975 44.8819 21.4786 44.9936 21.4407C45.1054 21.4028 45.201 21.346 45.2805 21.2702C45.3601 21.1945 45.4207 21.1017 45.4624 20.9918L46.5817 21.0657C46.5249 21.3346 46.4084 21.5695 46.2322 21.7702C46.058 21.9691 45.8326 22.1244 45.5561 22.2361C45.2815 22.346 44.9643 22.4009 44.6044 22.4009ZM48.6072 16.4975V22.3157H47.397V16.4975H48.6072ZM51.5653 22.4009C51.1165 22.4009 50.7301 22.31 50.4062 22.1282C50.0843 21.9445 49.8362 21.685 49.6619 21.3498C49.4877 21.0126 49.4006 20.614 49.4006 20.1537C49.4006 19.7049 49.4877 19.3109 49.6619 18.9719C49.8362 18.6329 50.0814 18.3687 50.3977 18.1793C50.7159 17.9899 51.089 17.8952 51.517 17.8952C51.8049 17.8952 52.0729 17.9416 52.321 18.0344C52.571 18.1253 52.7888 18.2626 52.9744 18.4464C53.1619 18.6301 53.3078 18.8611 53.4119 19.1395C53.5161 19.4161 53.5682 19.7399 53.5682 20.1111V20.4435H49.8835V19.6935H52.429C52.429 19.5193 52.3911 19.3649 52.3153 19.2304C52.2396 19.096 52.1345 18.9909 52 18.9151C51.8674 18.8375 51.7131 18.7986 51.5369 18.7986C51.3532 18.7986 51.1903 18.8412 51.0483 18.9265C50.9081 19.0098 50.7983 19.1225 50.7188 19.2645C50.6392 19.4047 50.5985 19.5609 50.5966 19.7333V20.4464C50.5966 20.6623 50.6364 20.8488 50.7159 21.006C50.7973 21.1632 50.9119 21.2844 51.0597 21.3697C51.2074 21.4549 51.3826 21.4975 51.5852 21.4975C51.7197 21.4975 51.8428 21.4786 51.9545 21.4407C52.0663 21.4028 52.1619 21.346 52.2415 21.2702C52.321 21.1945 52.3816 21.1017 52.4233 20.9918L53.5426 21.0657C53.4858 21.3346 53.3693 21.5695 53.1932 21.7702C53.0189 21.9691 52.7936 22.1244 52.517 22.2361C52.2424 22.346 51.9252 22.4009 51.5653 22.4009ZM54.358 22.3157V17.952H55.5312V18.7134H55.5767C55.6563 18.4426 55.7898 18.238 55.9773 18.0998C56.1648 17.9596 56.3807 17.8895 56.625 17.8895C56.6856 17.8895 56.7509 17.8933 56.821 17.9009C56.8911 17.9085 56.9527 17.9189 57.0057 17.9322V19.006C56.9489 18.989 56.8703 18.9738 56.7699 18.9606C56.6695 18.9473 56.5777 18.9407 56.4943 18.9407C56.3163 18.9407 56.1572 18.9795 56.017 19.0572C55.8788 19.1329 55.7689 19.239 55.6875 19.3753C55.608 19.5117 55.5682 19.6689 55.5682 19.8469V22.3157H54.358ZM58.7507 22.3981C58.4723 22.3981 58.2242 22.3498 58.0064 22.2532C57.7886 22.1547 57.6162 22.0098 57.4893 21.8185C57.3643 21.6253 57.3018 21.3848 57.3018 21.0969C57.3018 20.8545 57.3464 20.6509 57.4354 20.4861C57.5244 20.3214 57.6456 20.1888 57.799 20.0884C57.9524 19.988 58.1267 19.9123 58.3217 19.8611C58.5187 19.81 58.7251 19.774 58.9411 19.7532C59.1948 19.7267 59.3994 19.702 59.5547 19.6793C59.71 19.6547 59.8227 19.6187 59.8928 19.5714C59.9628 19.524 59.9979 19.4539 59.9979 19.3611V19.3441C59.9979 19.1642 59.9411 19.025 59.8274 18.9265C59.7157 18.828 59.5566 18.7787 59.3501 18.7787C59.1323 18.7787 58.959 18.827 58.8303 18.9236C58.7015 19.0183 58.6162 19.1376 58.5746 19.2816L57.4553 19.1907C57.5121 18.9255 57.6238 18.6964 57.7905 18.5032C57.9571 18.3081 58.1721 18.1585 58.4354 18.0543C58.7005 17.9482 59.0073 17.8952 59.3558 17.8952C59.5982 17.8952 59.8303 17.9236 60.0518 17.9804C60.2753 18.0373 60.4732 18.1253 60.6456 18.2447C60.8198 18.364 60.9571 18.5174 61.0575 18.7049C61.1579 18.8905 61.2081 19.113 61.2081 19.3725V22.3157H60.0604V21.7106H60.0263C59.9562 21.8469 59.8625 21.9672 59.745 22.0714C59.6276 22.1736 59.4865 22.2541 59.3217 22.3128C59.157 22.3697 58.9666 22.3981 58.7507 22.3981ZM59.0973 21.5628C59.2753 21.5628 59.4325 21.5278 59.5689 21.4577C59.7053 21.3857 59.8123 21.2892 59.8899 21.1679C59.9676 21.0467 60.0064 20.9094 60.0064 20.756V20.2929C59.9685 20.3176 59.9164 20.3403 59.8501 20.3611C59.7857 20.3801 59.7128 20.3981 59.6314 20.4151C59.55 20.4303 59.4685 20.4445 59.3871 20.4577C59.3056 20.4691 59.2318 20.4795 59.1655 20.489C59.0234 20.5098 58.8994 20.5429 58.7933 20.5884C58.6873 20.6339 58.6049 20.6954 58.5462 20.7731C58.4875 20.8488 58.4581 20.9435 58.4581 21.0572C58.4581 21.2219 58.5178 21.3479 58.6371 21.435C58.7583 21.5202 58.9117 21.5628 59.0973 21.5628ZM65.7777 19.1964L64.6697 19.2645C64.6508 19.1698 64.6101 19.0846 64.5476 19.0089C64.4851 18.9312 64.4027 18.8697 64.3004 18.8242C64.2 18.7768 64.0798 18.7532 63.9396 18.7532C63.7521 18.7532 63.594 18.7929 63.4652 18.8725C63.3364 18.9501 63.272 19.0543 63.272 19.185C63.272 19.2892 63.3137 19.3772 63.397 19.4492C63.4804 19.5212 63.6233 19.5789 63.826 19.6225L64.6158 19.7816C65.04 19.8687 65.3563 20.0089 65.5646 20.202C65.773 20.3952 65.8771 20.649 65.8771 20.9634C65.8771 21.2494 65.7929 21.5003 65.6243 21.7162C65.4576 21.9322 65.2285 22.1007 64.9368 22.2219C64.647 22.3412 64.3127 22.4009 63.9339 22.4009C63.3563 22.4009 62.8961 22.2806 62.5533 22.0401C62.2124 21.7977 62.0125 21.4681 61.9538 21.0515L63.1442 20.989C63.1802 21.1651 63.2673 21.2996 63.4055 21.3924C63.5438 21.4833 63.7209 21.5287 63.9368 21.5287C64.1489 21.5287 64.3194 21.488 64.4482 21.4066C64.5788 21.3232 64.6451 21.2162 64.647 21.0856C64.6451 20.9757 64.5987 20.8857 64.5078 20.8157C64.4169 20.7437 64.2768 20.6888 64.0874 20.6509L63.3317 20.5003C62.9055 20.4151 62.5883 20.2674 62.38 20.0572C62.1735 19.8469 62.0703 19.5789 62.0703 19.2532C62.0703 18.9729 62.1461 18.7314 62.2976 18.5287C62.451 18.3261 62.666 18.1698 62.9425 18.06C63.2209 17.9501 63.5466 17.8952 63.9197 17.8952C64.4709 17.8952 64.9046 18.0117 65.2209 18.2447C65.5391 18.4776 65.7247 18.7948 65.7777 19.1964ZM66.6392 22.3157V17.952H67.8494V22.3157H66.6392ZM67.2472 17.3895C67.0672 17.3895 66.9129 17.3299 66.7841 17.2106C66.6572 17.0893 66.5938 16.9445 66.5938 16.7759C66.5938 16.6092 66.6572 16.4662 66.7841 16.3469C66.9129 16.2257 67.0672 16.1651 67.2472 16.1651C67.4271 16.1651 67.5805 16.2257 67.7074 16.3469C67.8362 16.4662 67.9006 16.6092 67.9006 16.7759C67.9006 16.9445 67.8362 17.0893 67.7074 17.2106C67.5805 17.3299 67.4271 17.3895 67.2472 17.3895Z" fill="white"/>
<path d="M27.6861 31.3157L29.9631 26.8114V26.7716H27.3381V26.2248H30.5994V26.8015L28.3324 31.3157H27.6861ZM35.6922 28.4968V29.0437H33.4649V28.4968H35.6922ZM40.304 26.1552C40.5128 26.1568 40.7216 26.1966 40.9304 26.2745C41.1392 26.3524 41.3298 26.4816 41.5021 26.6623C41.6745 26.8412 41.8129 27.0857 41.9173 27.3956C42.0217 27.7055 42.0739 28.0941 42.0739 28.5614C42.0739 29.0138 42.0308 29.4157 41.9446 29.767C41.8601 30.1167 41.7375 30.4117 41.5767 30.652C41.4176 30.8923 41.2237 31.0746 40.995 31.1988C40.768 31.3231 40.5111 31.3853 40.2244 31.3853C39.9394 31.3853 39.685 31.3289 39.4613 31.2162C39.2392 31.1019 39.0569 30.9436 38.9144 30.7415C38.7736 30.5376 38.6832 30.3015 38.6435 30.033H39.25C39.3047 30.2667 39.4132 30.4597 39.5756 30.6122C39.7397 30.763 39.956 30.8384 40.2244 30.8384C40.6172 30.8384 40.9271 30.6669 41.1541 30.3238C41.3828 29.9808 41.4972 29.4961 41.4972 28.8697H41.4574C41.3646 29.0089 41.2544 29.129 41.1268 29.2301C40.9992 29.3312 40.8575 29.4091 40.7017 29.4638C40.5459 29.5184 40.3802 29.5458 40.2045 29.5458C39.9129 29.5458 39.6452 29.4737 39.4016 29.3295C39.1597 29.1837 38.9658 28.984 38.82 28.7304C38.6758 28.4752 38.6037 28.1836 38.6037 27.8554C38.6037 27.5439 38.6733 27.2589 38.8125 27.0003C38.9534 26.7402 39.1506 26.533 39.4041 26.3789C39.6593 26.2248 39.9593 26.1502 40.304 26.1552ZM40.304 26.702C40.0952 26.702 39.9071 26.7542 39.7397 26.8586C39.574 26.9614 39.4422 27.1006 39.3445 27.2763C39.2483 27.4503 39.2003 27.6433 39.2003 27.8554C39.2003 28.0676 39.2467 28.2606 39.3395 28.4346C39.4339 28.607 39.5624 28.7445 39.7248 28.8473C39.8888 28.9484 40.0753 28.9989 40.2841 28.9989C40.4415 28.9989 40.5882 28.9683 40.7241 28.9069C40.86 28.844 40.9785 28.7586 41.0795 28.6509C41.1823 28.5415 41.2627 28.4181 41.3207 28.2805C41.3787 28.1413 41.4077 27.9963 41.4077 27.8455C41.4077 27.6466 41.3596 27.4602 41.2635 27.2862C41.169 27.1122 41.0381 26.9713 40.8707 26.8636C40.705 26.7559 40.5161 26.702 40.304 26.702ZM47.8937 27.4975C47.8639 27.2456 47.7429 27.05 47.5308 26.9108C47.3187 26.7716 47.0585 26.702 46.7503 26.702C46.5249 26.702 46.3277 26.7385 46.1586 26.8114C45.9913 26.8843 45.8604 26.9846 45.7659 27.1122C45.6731 27.2398 45.6267 27.3848 45.6267 27.5472C45.6267 27.6831 45.659 27.7999 45.7236 27.8977C45.7899 27.9938 45.8744 28.0742 45.9772 28.1388C46.0799 28.2018 46.1876 28.254 46.3003 28.2954C46.413 28.3352 46.5166 28.3675 46.6111 28.3924L47.1281 28.5316C47.2607 28.5664 47.4082 28.6144 47.5706 28.6758C47.7346 28.7371 47.8912 28.8208 48.0404 28.9268C48.1912 29.0312 48.3155 29.1655 48.4133 29.3295C48.511 29.4936 48.5599 29.6949 48.5599 29.9336C48.5599 30.2087 48.4878 30.4572 48.3437 30.6793C48.2011 30.9014 47.9923 31.0779 47.7172 31.2088C47.4438 31.3397 47.1115 31.4052 46.7204 31.4052C46.3559 31.4052 46.0402 31.3463 45.7733 31.2287C45.5082 31.111 45.2994 30.9469 45.1469 30.7365C44.9961 30.526 44.9108 30.2816 44.8909 30.0032H45.5273C45.5438 30.1954 45.6085 30.3545 45.7211 30.4804C45.8355 30.6047 45.9797 30.6975 46.1537 30.7589C46.3293 30.8185 46.5183 30.8483 46.7204 30.8483C46.9558 30.8483 47.1671 30.8102 47.3543 30.734C47.5416 30.6561 47.6899 30.5484 47.7993 30.4108C47.9086 30.2716 47.9633 30.1092 47.9633 29.9236C47.9633 29.7546 47.9161 29.617 47.8216 29.511C47.7272 29.4049 47.6029 29.3188 47.4488 29.2525C47.2947 29.1862 47.1281 29.1282 46.9491 29.0785L46.3227 28.8995C45.925 28.7851 45.6101 28.6219 45.3781 28.4098C45.1461 28.1977 45.0301 27.9201 45.0301 27.577C45.0301 27.292 45.1072 27.0434 45.2613 26.8313C45.4171 26.6175 45.6259 26.4518 45.8877 26.3341C46.1512 26.2148 46.4453 26.1552 46.7702 26.1552C47.0983 26.1552 47.3899 26.214 47.6452 26.3317C47.9004 26.4477 48.1025 26.6067 48.2517 26.8089C48.4025 27.0111 48.482 27.2406 48.4903 27.4975H47.8937ZM49.5735 26.2248H50.3093L52.0394 30.4506H52.0991L53.8292 26.2248H54.565V31.3157H53.9883V27.4478H53.9386L52.3477 31.3157H51.7908L50.1999 27.4478H50.1502V31.3157H49.5735V26.2248ZM55.801 31.3157V26.2248H57.5212C57.9206 26.2248 58.2471 26.2969 58.5006 26.441C58.7558 26.5835 58.9448 26.7766 59.0674 27.0202C59.19 27.2638 59.2513 27.5356 59.2513 27.8356C59.2513 28.1355 59.19 28.4081 59.0674 28.6534C58.9464 28.8987 58.7591 29.0942 58.5056 29.24C58.252 29.3842 57.9272 29.4563 57.5312 29.4563H56.2982V28.9094H57.5113C57.7847 28.9094 58.0043 28.8622 58.17 28.7677C58.3357 28.6733 58.4559 28.5457 58.5305 28.3849C58.6067 28.2225 58.6448 28.0394 58.6448 27.8356C58.6448 27.6317 58.6067 27.4494 58.5305 27.2887C58.4559 27.1279 58.3349 27.002 58.1675 26.9108C58.0001 26.818 57.7781 26.7716 57.5013 26.7716H56.4175V31.3157H55.801ZM62.3424 28.7702C62.3424 28.1438 62.4236 27.5679 62.586 27.0426C62.7501 26.5156 62.9838 26.0309 63.287 25.5884H63.8041C63.6847 25.7525 63.5729 25.9546 63.4685 26.1949C63.3657 26.4336 63.2754 26.6962 63.1975 26.9829C63.1196 27.268 63.0583 27.563 63.0136 27.8679C62.9705 28.1728 62.949 28.4736 62.949 28.7702C62.949 29.1646 62.9871 29.5648 63.0633 29.9709C63.1395 30.3769 63.2423 30.7539 63.3715 31.1019C63.5008 31.4499 63.645 31.7333 63.8041 31.952H63.287C62.9838 31.5096 62.7501 31.0257 62.586 30.5003C62.4236 29.9733 62.3424 29.3966 62.3424 28.7702ZM64.3416 31.3157L64.4212 30.8682L66.3999 29.0287C66.6319 28.8133 66.8249 28.6252 66.979 28.4645C67.1348 28.3037 67.2558 28.1529 67.342 28.0121C67.4298 27.8712 67.487 27.7229 67.5135 27.5671C67.5433 27.3881 67.5276 27.2332 67.4663 27.1023C67.4049 26.9713 67.308 26.8702 67.1754 26.799C67.0429 26.7277 66.8838 26.6921 66.6982 26.6921C66.5026 26.6921 66.3245 26.7327 66.1637 26.8139C66.003 26.8934 65.8696 27.0061 65.7635 27.152C65.6574 27.2961 65.5878 27.4643 65.5547 27.6566H64.968C65.0178 27.3583 65.1313 27.0965 65.3086 26.8711C65.4876 26.6457 65.7071 26.47 65.9673 26.3441C66.2292 26.2181 66.5092 26.1552 66.8075 26.1552C67.1058 26.1552 67.3585 26.2181 67.5657 26.3441C67.7728 26.47 67.9228 26.6399 68.0156 26.8537C68.1084 27.0674 68.1333 27.3053 68.0902 27.5671C68.0571 27.756 67.9916 27.9391 67.8938 28.1165C67.796 28.2938 67.6461 28.4918 67.4439 28.7106C67.2434 28.9277 66.9716 29.1928 66.6286 29.506L65.2862 30.729L65.2763 30.7688H67.6428L67.5533 31.3157H64.3416ZM70.2305 31.3853C69.8559 31.3853 69.5543 31.2834 69.3256 31.0795C69.0969 30.874 68.9461 30.5766 68.8732 30.1871C68.8003 29.796 68.8086 29.3237 68.8981 28.7702C68.9876 28.22 69.1342 27.7502 69.3381 27.3608C69.5419 26.9697 69.793 26.6714 70.0913 26.4659C70.3896 26.2587 70.7243 26.1552 71.0955 26.1552C71.4667 26.1552 71.7675 26.2587 71.9979 26.4659C72.2299 26.673 72.384 26.9713 72.4602 27.3608C72.5381 27.7502 72.5307 28.22 72.4379 28.7702C72.3451 29.3237 72.1967 29.7952 71.9929 30.1846C71.7891 30.5741 71.538 30.8715 71.2397 31.077C70.9414 31.2825 70.605 31.3853 70.2305 31.3853ZM70.32 30.8384C70.6928 30.8384 71.0118 30.6594 71.277 30.3015C71.5438 29.9419 71.7319 29.4314 71.8413 28.7702C71.9142 28.3294 71.9291 27.954 71.886 27.6442C71.8429 27.3343 71.7468 27.0981 71.5977 26.9357C71.4485 26.7733 71.2513 26.6921 71.006 26.6921C70.6381 26.6921 70.3216 26.8736 70.0565 27.2365C69.7913 27.5978 69.604 28.109 69.4947 28.7702C69.4218 29.211 69.406 29.5856 69.4474 29.8938C69.4889 30.202 69.5833 30.4365 69.7308 30.5973C69.8783 30.758 70.0747 30.8384 70.32 30.8384ZM74.695 31.3853C74.3635 31.3853 74.076 31.3298 73.8324 31.2187C73.5904 31.106 73.4098 30.9494 73.2905 30.7489C73.1712 30.5467 73.1289 30.3114 73.1637 30.0429H73.7802C73.7653 30.2054 73.7934 30.3462 73.8647 30.4655C73.9376 30.5848 74.0453 30.6768 74.1879 30.7415C74.332 30.8061 74.5044 30.8384 74.7049 30.8384C74.9187 30.8384 75.1192 30.8011 75.3065 30.7265C75.4954 30.652 75.6536 30.5442 75.7812 30.4034C75.9089 30.2609 75.9876 30.091 76.0174 29.8938C76.0439 29.7165 76.024 29.559 75.9577 29.4215C75.8915 29.284 75.7771 29.1762 75.6147 29.0983C75.454 29.0188 75.2435 28.979 74.9833 28.979H74.5657L74.6552 28.4322H75.043C75.2451 28.4322 75.4308 28.394 75.5998 28.3178C75.7688 28.2416 75.9097 28.1347 76.0224 27.9971C76.1351 27.8579 76.2063 27.6947 76.2362 27.5074C76.2643 27.3434 76.2527 27.2009 76.2013 27.0799C76.1516 26.9572 76.0655 26.862 75.9428 26.794C75.8219 26.7261 75.6677 26.6921 75.4805 26.6921C75.3015 26.6921 75.1258 26.7244 74.9535 26.789C74.7828 26.852 74.637 26.944 74.516 27.065C74.395 27.1843 74.3188 27.3285 74.2873 27.4975H73.6907C73.7421 27.2323 73.8572 26.9995 74.0362 26.799C74.2152 26.5968 74.4331 26.4394 74.69 26.3267C74.9485 26.2123 75.2219 26.1552 75.5103 26.1552C75.8301 26.1552 76.0936 26.2215 76.3008 26.354C76.5096 26.4849 76.6587 26.6573 76.7482 26.8711C76.8377 27.0832 76.8626 27.3119 76.8228 27.5572C76.7781 27.8372 76.6629 28.0742 76.4773 28.2681C76.2917 28.462 76.0655 28.5995 75.7987 28.6807V28.7106C76.1119 28.7652 76.3389 28.9094 76.4798 29.1431C76.6223 29.3751 76.667 29.6518 76.614 29.9733C76.5676 30.2617 76.4557 30.5119 76.2784 30.7241C76.1011 30.9345 75.8765 31.0978 75.6048 31.2138C75.333 31.3281 75.0297 31.3853 74.695 31.3853ZM79.0625 31.3853C78.688 31.3853 78.3864 31.2834 78.1577 31.0795C77.929 30.874 77.7782 30.5766 77.7053 30.1871C77.6323 29.796 77.6406 29.3237 77.7301 28.7702C77.8196 28.22 77.9663 27.7502 78.1701 27.3608C78.3739 26.9697 78.625 26.6714 78.9233 26.4659C79.2216 26.2587 79.5563 26.1552 79.9276 26.1552C80.2988 26.1552 80.5996 26.2587 80.8299 26.4659C81.0619 26.673 81.216 26.9713 81.2923 27.3608C81.3701 27.7502 81.3627 28.22 81.2699 28.7702C81.1771 29.3237 81.0288 29.7952 80.8249 30.1846C80.6211 30.5741 80.37 30.8715 80.0717 31.077C79.7734 31.2825 79.437 31.3853 79.0625 31.3853ZM79.152 30.8384C79.5249 30.8384 79.8439 30.6594 80.109 30.3015C80.3758 29.9419 80.5639 29.4314 80.6733 28.7702C80.7462 28.3294 80.7611 27.954 80.718 27.6442C80.675 27.3343 80.5788 27.0981 80.4297 26.9357C80.2805 26.7733 80.0833 26.6921 79.8381 26.6921C79.4702 26.6921 79.1536 26.8736 78.8885 27.2365C78.6233 27.5978 78.4361 28.109 78.3267 28.7702C78.2538 29.211 78.238 29.5856 78.2795 29.8938C78.3209 30.202 78.4154 30.4365 78.5629 30.5973C78.7103 30.758 78.9067 30.8384 79.152 30.8384ZM83.3679 29.1679C83.3679 29.7944 83.2859 30.3711 83.1218 30.8981C82.9594 31.4234 82.7266 31.9073 82.4233 32.3498H81.9062C82.0256 32.1857 82.1366 31.9835 82.2393 31.7432C82.3438 31.5046 82.4349 31.2428 82.5128 30.9577C82.5907 30.671 82.6512 30.3752 82.6942 30.0703C82.739 29.7637 82.7614 29.4629 82.7614 29.1679C82.7614 28.7735 82.7232 28.3733 82.647 27.9673C82.5708 27.5613 82.468 27.1843 82.3388 26.8363C82.2095 26.4883 82.0653 26.2049 81.9062 25.9861H82.4233C82.7266 26.4286 82.9594 26.9133 83.1218 27.4403C83.2859 27.9657 83.3679 28.5415 83.3679 29.1679Z" fill="white"/>
</svg>
