<svg width="215" height="209" viewBox="0 0 215 209" fill="none" xmlns="http://www.w3.org/2000/svg">
<rect x="1" y="1" width="213" height="207" rx="11" fill="#D9D9D9" fill-opacity="0.01" stroke="#6BAC8C" stroke-width="2"/>
<path d="M34.3497 24.7273H37.5415V35.3764C37.5415 36.3608 37.3202 37.2159 36.8778 37.9418C36.4403 38.6676 35.8312 39.2269 35.0507 39.6197C34.2702 40.0124 33.3628 40.2088 32.3287 40.2088C31.409 40.2088 30.5738 40.0472 29.8231 39.7241C29.0773 39.396 28.4857 38.8988 28.0482 38.2326C27.6107 37.5614 27.3944 36.7187 27.3994 35.7045H30.6135C30.6235 36.1072 30.7055 36.4528 30.8596 36.7411C31.0187 37.0245 31.235 37.2433 31.5084 37.3974C31.7868 37.5465 32.115 37.6211 32.4928 37.6211C32.8905 37.6211 33.2261 37.5366 33.4996 37.3675C33.778 37.1935 33.9893 36.94 34.1334 36.6069C34.2776 36.2738 34.3497 35.8636 34.3497 35.3764V24.7273ZM43.4179 40.2163C42.6871 40.2163 42.0358 40.0895 41.464 39.8359C40.8923 39.5774 40.4399 39.1971 40.1068 38.695C39.7787 38.1879 39.6146 37.5565 39.6146 36.8008C39.6146 36.1644 39.7314 35.63 39.9651 35.1974C40.1988 34.7649 40.517 34.4169 40.9197 34.1534C41.3224 33.8899 41.7797 33.6911 42.2918 33.5568C42.8089 33.4226 43.3508 33.3281 43.9175 33.2734C44.5837 33.2038 45.1206 33.1392 45.5283 33.0795C45.936 33.0149 46.2318 32.9205 46.4157 32.7962C46.5997 32.6719 46.6917 32.4879 46.6917 32.2443V32.1996C46.6917 31.7273 46.5425 31.3619 46.2442 31.1033C45.9509 30.8448 45.5333 30.7156 44.9914 30.7156C44.4197 30.7156 43.9648 30.8423 43.6267 31.0959C43.2886 31.3445 43.0649 31.6577 42.9555 32.0355L40.0173 31.7969C40.1665 31.1009 40.4598 30.4993 40.8973 29.9922C41.3348 29.4801 41.8991 29.0874 42.5901 28.8139C43.2861 28.5355 44.0915 28.3963 45.0063 28.3963C45.6427 28.3963 46.2517 28.4709 46.8334 28.62C47.42 28.7692 47.9395 29.0004 48.392 29.3136C48.8493 29.6268 49.2098 30.0295 49.4733 30.5217C49.7368 31.0089 49.8685 31.593 49.8685 32.2741V40H46.8557V38.4116H46.7662C46.5823 38.7695 46.3362 39.0852 46.028 39.3587C45.7197 39.6271 45.3493 39.8384 44.9168 39.9925C44.4843 40.1417 43.9846 40.2163 43.4179 40.2163ZM44.3277 38.0238C44.795 38.0238 45.2077 37.9318 45.5656 37.7479C45.9236 37.5589 46.2045 37.3054 46.4083 36.9872C46.6121 36.669 46.714 36.3086 46.714 35.9059V34.6903C46.6146 34.755 46.4779 34.8146 46.3039 34.8693C46.1349 34.919 45.9434 34.9663 45.7297 35.011C45.5159 35.0508 45.3021 35.0881 45.0883 35.1229C44.8746 35.1527 44.6807 35.18 44.5067 35.2049C44.1338 35.2596 43.8082 35.3466 43.5297 35.4659C43.2513 35.5852 43.0351 35.7468 42.8809 35.9506C42.7268 36.1495 42.6498 36.3981 42.6498 36.6964C42.6498 37.1289 42.8064 37.4595 43.1196 37.6882C43.4378 37.9119 43.8405 38.0238 44.3277 38.0238ZM55.51 24.7273V40H52.3332V24.7273H55.51ZM65.4004 35.1229V28.5455H68.5772V40H65.5272V37.9194H65.4078C65.1493 38.5906 64.7193 39.13 64.1177 39.5376C63.5211 39.9453 62.7928 40.1491 61.9327 40.1491C61.1671 40.1491 60.4934 39.9751 59.9118 39.6271C59.3301 39.2791 58.8752 38.7844 58.5471 38.1431C58.2239 37.5018 58.0598 36.7337 58.0549 35.8388V28.5455H61.2317V35.272C61.2367 35.9482 61.4181 36.4826 61.7761 36.8754C62.1341 37.2681 62.6138 37.4645 63.2154 37.4645C63.5982 37.4645 63.9561 37.3775 64.2892 37.2035C64.6223 37.0245 64.8908 36.761 65.0946 36.413C65.3034 36.065 65.4054 35.6349 65.4004 35.1229ZM71.1183 40V28.5455H74.1982V30.544H74.3176C74.5264 29.8331 74.8769 29.2962 75.3691 28.9332C75.8612 28.5653 76.428 28.3814 77.0693 28.3814C77.2284 28.3814 77.3999 28.3913 77.5839 28.4112C77.7678 28.4311 77.9294 28.4585 78.0686 28.4933V31.3121C77.9195 31.2674 77.7132 31.2276 77.4497 31.1928C77.1862 31.158 76.945 31.1406 76.7263 31.1406C76.259 31.1406 75.8414 31.2425 75.4735 31.4464C75.1105 31.6452 74.8222 31.9237 74.6084 32.2816C74.3996 32.6396 74.2952 33.0522 74.2952 33.5195V40H71.1183ZM84.6311 40V24.7273H87.808V30.4695H87.9049C88.0441 30.1612 88.2455 29.848 88.509 29.5298C88.7774 29.2067 89.1254 28.9382 89.553 28.7244C89.9855 28.5057 90.5225 28.3963 91.1638 28.3963C91.999 28.3963 92.7696 28.6151 93.4756 29.0526C94.1816 29.4851 94.7458 30.1388 95.1684 31.0138C95.591 31.8839 95.8023 32.9751 95.8023 34.2876C95.8023 35.5653 95.596 36.6442 95.1833 37.5241C94.7757 38.3991 94.2188 39.0629 93.5129 39.5153C92.8119 39.9627 92.0264 40.1864 91.1563 40.1864C90.5399 40.1864 90.0154 40.0845 89.5828 39.8807C89.1553 39.6768 88.8048 39.4208 88.5313 39.1126C88.2579 38.7994 88.0491 38.4837 87.9049 38.1655H87.7632V40H84.6311ZM87.7409 34.2727C87.7409 34.9538 87.8353 35.5479 88.0242 36.055C88.2132 36.5621 88.4866 36.9574 88.8445 37.2408C89.2025 37.5192 89.6375 37.6584 90.1496 37.6584C90.6666 37.6584 91.1041 37.5167 91.4621 37.2333C91.82 36.945 92.091 36.5472 92.2749 36.0401C92.4639 35.5281 92.5583 34.9389 92.5583 34.2727C92.5583 33.6115 92.4664 33.0298 92.2824 32.5277C92.0985 32.0256 91.8275 31.6328 91.4695 31.3494C91.1116 31.0661 90.6716 30.9244 90.1496 30.9244C89.6325 30.9244 89.195 31.0611 88.8371 31.3345C88.4841 31.608 88.2132 31.9957 88.0242 32.4979C87.8353 33 87.7409 33.5916 87.7409 34.2727ZM101.188 40.2163C100.458 40.2163 99.8063 40.0895 99.2346 39.8359C98.6628 39.5774 98.2104 39.1971 97.8773 38.695C97.5492 38.1879 97.3851 37.5565 97.3851 36.8008C97.3851 36.1644 97.502 35.63 97.7356 35.1974C97.9693 34.7649 98.2875 34.4169 98.6902 34.1534C99.0929 33.8899 99.5502 33.6911 100.062 33.5568C100.579 33.4226 101.121 33.3281 101.688 33.2734C102.354 33.2038 102.891 33.1392 103.299 33.0795C103.706 33.0149 104.002 32.9205 104.186 32.7962C104.37 32.6719 104.462 32.4879 104.462 32.2443V32.1996C104.462 31.7273 104.313 31.3619 104.015 31.1033C103.721 30.8448 103.304 30.7156 102.762 30.7156C102.19 30.7156 101.735 30.8423 101.397 31.0959C101.059 31.3445 100.835 31.6577 100.726 32.0355L97.7878 31.7969C97.937 31.1009 98.2303 30.4993 98.6678 29.9922C99.1053 29.4801 99.6696 29.0874 100.361 28.8139C101.057 28.5355 101.862 28.3963 102.777 28.3963C103.413 28.3963 104.022 28.4709 104.604 28.62C105.191 28.7692 105.71 29.0004 106.162 29.3136C106.62 29.6268 106.98 30.0295 107.244 30.5217C107.507 31.0089 107.639 31.593 107.639 32.2741V40H104.626V38.4116H104.537C104.353 38.7695 104.107 39.0852 103.798 39.3587C103.49 39.6271 103.12 39.8384 102.687 39.9925C102.255 40.1417 101.755 40.2163 101.188 40.2163ZM102.098 38.0238C102.566 38.0238 102.978 37.9318 103.336 37.7479C103.694 37.5589 103.975 37.3054 104.179 36.9872C104.383 36.669 104.485 36.3086 104.485 35.9059V34.6903C104.385 34.755 104.248 34.8146 104.074 34.8693C103.905 34.919 103.714 34.9663 103.5 35.011C103.286 35.0508 103.073 35.0881 102.859 35.1229C102.645 35.1527 102.451 35.18 102.277 35.2049C101.904 35.2596 101.579 35.3466 101.3 35.4659C101.022 35.5852 100.806 35.7468 100.651 35.9506C100.497 36.1495 100.42 36.3981 100.42 36.6964C100.42 37.1289 100.577 37.4595 100.89 37.6882C101.208 37.9119 101.611 38.0238 102.098 38.0238ZM110.104 40V28.5455H113.184V30.544H113.303C113.512 29.8331 113.862 29.2962 114.354 28.9332C114.847 28.5653 115.413 28.3814 116.055 28.3814C116.214 28.3814 116.385 28.3913 116.569 28.4112C116.753 28.4311 116.915 28.4585 117.054 28.4933V31.3121C116.905 31.2674 116.699 31.2276 116.435 31.1928C116.172 31.158 115.93 31.1406 115.712 31.1406C115.244 31.1406 114.827 31.2425 114.459 31.4464C114.096 31.6452 113.808 31.9237 113.594 32.2816C113.385 32.6396 113.281 33.0522 113.281 33.5195V40H110.104ZM126.042 35.1229V28.5455H129.219V40H126.169V37.9194H126.049C125.791 38.5906 125.361 39.13 124.759 39.5376C124.163 39.9453 123.434 40.1491 122.574 40.1491C121.809 40.1491 121.135 39.9751 120.553 39.6271C119.972 39.2791 119.517 38.7844 119.189 38.1431C118.866 37.5018 118.701 36.7337 118.696 35.8388V28.5455H121.873V35.272C121.878 35.9482 122.06 36.4826 122.418 36.8754C122.776 37.2681 123.255 37.4645 123.857 37.4645C124.24 37.4645 124.598 37.3775 124.931 37.2035C125.264 37.0245 125.532 36.761 125.736 36.413C125.945 36.065 126.047 35.6349 126.042 35.1229ZM144.182 35.3168V28.5455H145.942V40H144.182V38.0611H144.063C143.794 38.6428 143.377 39.1374 142.81 39.5451C142.243 39.9478 141.527 40.1491 140.662 40.1491C139.946 40.1491 139.31 39.9925 138.753 39.6793C138.196 39.3612 137.759 38.8839 137.441 38.2475C137.122 37.6062 136.963 36.7983 136.963 35.8239V28.5455H138.723V35.7045C138.723 36.5398 138.957 37.206 139.424 37.7031C139.897 38.2003 140.498 38.4489 141.229 38.4489C141.666 38.4489 142.111 38.337 142.564 38.1133C143.021 37.8896 143.404 37.5465 143.712 37.0842C144.025 36.6218 144.182 36.0327 144.182 35.3168ZM150.925 33.1094V40H149.165V28.5455H150.866V30.3352H151.015C151.283 29.7536 151.691 29.2862 152.238 28.9332C152.785 28.5753 153.491 28.3963 154.356 28.3963C155.131 28.3963 155.81 28.5554 156.392 28.8736C156.973 29.1868 157.426 29.6641 157.749 30.3054C158.072 30.9418 158.234 31.7472 158.234 32.7216V40H156.474V32.8409C156.474 31.9411 156.24 31.2401 155.773 30.7379C155.305 30.2308 154.664 29.9773 153.849 29.9773C153.287 29.9773 152.785 30.0991 152.342 30.3427C151.905 30.5863 151.559 30.9418 151.306 31.4091C151.052 31.8764 150.925 32.4432 150.925 33.1094ZM166.431 28.5455V30.0369H160.495V28.5455H166.431ZM162.225 25.8011H163.985V36.7188C163.985 37.2159 164.057 37.5888 164.201 37.8374C164.351 38.081 164.54 38.245 164.768 38.3295C165.002 38.4091 165.248 38.4489 165.506 38.4489C165.7 38.4489 165.859 38.4389 165.984 38.419C166.108 38.3942 166.207 38.3743 166.282 38.3594L166.64 39.9403C166.521 39.9851 166.354 40.0298 166.14 40.0746C165.927 40.1243 165.656 40.1491 165.328 40.1491C164.83 40.1491 164.343 40.0423 163.866 39.8285C163.394 39.6147 163.001 39.2891 162.688 38.8516C162.379 38.4141 162.225 37.8622 162.225 37.196V25.8011ZM176.297 35.3168V28.5455H178.057V40H176.297V38.0611H176.178C175.91 38.6428 175.492 39.1374 174.925 39.5451C174.358 39.9478 173.642 40.1491 172.777 40.1491C172.062 40.1491 171.425 39.9925 170.868 39.6793C170.312 39.3612 169.874 38.8839 169.556 38.2475C169.238 37.6062 169.079 36.7983 169.079 35.8239V28.5455H170.839V35.7045C170.839 36.5398 171.072 37.206 171.54 37.7031C172.012 38.2003 172.613 38.4489 173.344 38.4489C173.782 38.4489 174.227 38.337 174.679 38.1133C175.136 37.8896 175.519 37.5465 175.828 37.0842C176.141 36.6218 176.297 36.0327 176.297 35.3168ZM182.921 35.8239L182.892 33.6463H183.249L188.261 28.5455H190.438L185.099 33.9446H184.95L182.921 35.8239ZM181.281 40V24.7273H183.041V40H181.281ZM188.559 40L184.085 34.3324L185.338 33.1094L190.796 40H188.559ZM40.0052 50.1108L38.4242 50.5582C38.3248 50.2947 38.1781 50.0387 37.9842 49.7901C37.7953 49.5366 37.5368 49.3278 37.2087 49.1637C36.8805 48.9996 36.4604 48.9176 35.9484 48.9176C35.2474 48.9176 34.6632 49.0792 34.1959 49.4023C33.7335 49.7205 33.5024 50.1257 33.5024 50.6179C33.5024 51.0554 33.6614 51.4009 33.9796 51.6545C34.2978 51.908 34.795 52.1193 35.4711 52.2884L37.1714 52.706C38.1955 52.9545 38.9587 53.3349 39.4608 53.8469C39.9629 54.354 40.214 55.0078 40.214 55.8082C40.214 56.4645 40.0251 57.0511 39.6472 57.5682C39.2744 58.0852 38.7524 58.4929 38.0812 58.7912C37.41 59.0895 36.6295 59.2386 35.7396 59.2386C34.5712 59.2386 33.6043 58.9851 32.8386 58.478C32.073 57.9709 31.5883 57.2301 31.3845 56.2557L33.0549 55.8381C33.214 56.4545 33.5148 56.9169 33.9573 57.2251C34.4047 57.5334 34.9889 57.6875 35.7097 57.6875C36.5301 57.6875 37.1813 57.5135 37.6636 57.1655C38.1508 56.8125 38.3944 56.3899 38.3944 55.8977C38.3944 55.5 38.2552 55.1669 37.9768 54.8984C37.6984 54.625 37.2708 54.4212 36.6941 54.2869L34.785 53.8395C33.736 53.5909 32.9654 53.2056 32.4732 52.6836C31.986 52.1566 31.7424 51.4979 31.7424 50.7074C31.7424 50.0611 31.9239 49.4893 32.2868 48.9922C32.6547 48.495 33.1543 48.1048 33.7857 47.8214C34.4221 47.538 35.143 47.3963 35.9484 47.3963C37.0819 47.3963 37.9718 47.6449 38.6181 48.142C39.2694 48.6392 39.7318 49.2955 40.0052 50.1108ZM42.8632 59V47.5455H44.6232V59H42.8632ZM43.7581 45.6364C43.4151 45.6364 43.1193 45.5195 42.8707 45.2859C42.6271 45.0522 42.5053 44.7713 42.5053 44.4432C42.5053 44.1151 42.6271 43.8342 42.8707 43.6005C43.1193 43.3668 43.4151 43.25 43.7581 43.25C44.1012 43.25 44.3945 43.3668 44.6381 43.6005C44.8867 43.8342 45.011 44.1151 45.011 44.4432C45.011 44.7713 44.8867 45.0522 44.6381 45.2859C44.3945 45.5195 44.1012 45.6364 43.7581 45.6364ZM55.9603 50.1108L54.3793 50.5582C54.2799 50.2947 54.1332 50.0387 53.9393 49.7901C53.7504 49.5366 53.4919 49.3278 53.1638 49.1637C52.8356 48.9996 52.4155 48.9176 51.9035 48.9176C51.2025 48.9176 50.6183 49.0792 50.151 49.4023C49.6886 49.7205 49.4574 50.1257 49.4574 50.6179C49.4574 51.0554 49.6165 51.4009 49.9347 51.6545C50.2529 51.908 50.75 52.1193 51.4262 52.2884L53.1265 52.706C54.1506 52.9545 54.9138 53.3349 55.4159 53.8469C55.918 54.354 56.1691 55.0078 56.1691 55.8082C56.1691 56.4645 55.9802 57.0511 55.6023 57.5682C55.2294 58.0852 54.7074 58.4929 54.0363 58.7912C53.3651 59.0895 52.5846 59.2386 51.6946 59.2386C50.5263 59.2386 49.5593 58.9851 48.7937 58.478C48.0281 57.9709 47.5434 57.2301 47.3395 56.2557L49.01 55.8381C49.1691 56.4545 49.4699 56.9169 49.9123 57.2251C50.3598 57.5334 50.9439 57.6875 51.6648 57.6875C52.4851 57.6875 53.1364 57.5135 53.6187 57.1655C54.1059 56.8125 54.3495 56.3899 54.3495 55.8977C54.3495 55.5 54.2103 55.1669 53.9319 54.8984C53.6535 54.625 53.2259 54.4212 52.6492 54.2869L50.7401 53.8395C49.6911 53.5909 48.9205 53.2056 48.4283 52.6836C47.9411 52.1566 47.6975 51.4979 47.6975 50.7074C47.6975 50.0611 47.879 49.4893 48.2419 48.9922C48.6098 48.495 49.1094 48.1048 49.7408 47.8214C50.3772 47.538 51.0981 47.3963 51.9035 47.3963C53.037 47.3963 53.9269 47.6449 54.5732 48.142C55.2245 48.6392 55.6868 49.2955 55.9603 50.1108ZM61.4135 59L57.9234 47.5455H59.7729L62.2487 56.3153H62.368L64.8141 47.5455H66.6933L69.1095 56.2855H69.2288L71.7047 47.5455H73.5541L70.0641 59H68.3339L65.8283 50.2003H65.6493L63.1436 59H61.4135ZM79.2516 59.2685C78.5257 59.2685 77.867 59.1317 77.2753 58.8583C76.6837 58.5799 76.2139 58.1797 75.8659 57.6577C75.5179 57.1307 75.3439 56.4943 75.3439 55.7486C75.3439 55.0923 75.4731 54.5604 75.7317 54.1527C75.9902 53.7401 76.3357 53.4169 76.7682 53.1832C77.2008 52.9496 77.678 52.7756 78.2001 52.6612C78.7271 52.5419 79.2565 52.4474 79.7885 52.3778C80.4845 52.2884 81.0488 52.2212 81.4813 52.1765C81.9188 52.1268 82.237 52.0447 82.4359 51.9304C82.6397 51.8161 82.7416 51.6172 82.7416 51.3338V51.2741C82.7416 50.5384 82.5403 49.9666 82.1376 49.5589C81.7398 49.1513 81.1358 48.9474 80.3254 48.9474C79.4852 48.9474 78.8265 49.1314 78.3492 49.4993C77.8719 49.8672 77.5364 50.2599 77.3425 50.6776L75.672 50.081C75.9703 49.3849 76.368 48.843 76.8652 48.4553C77.3673 48.0625 77.9142 47.7891 78.5058 47.6349C79.1024 47.4759 79.6891 47.3963 80.2658 47.3963C80.6337 47.3963 81.0562 47.4411 81.5335 47.5305C82.0158 47.6151 82.4806 47.7915 82.928 48.06C83.3805 48.3285 83.7558 48.7337 84.0541 49.2756C84.3524 49.8175 84.5016 50.5433 84.5016 51.4531V59H82.7416V57.4489H82.6521C82.5328 57.6974 82.3339 57.9634 82.0555 58.2468C81.7771 58.5302 81.4067 58.7713 80.9444 58.9702C80.482 59.169 79.9177 59.2685 79.2516 59.2685ZM79.52 57.6875C80.216 57.6875 80.8027 57.5508 81.28 57.2773C81.7622 57.0039 82.1251 56.6509 82.3687 56.2184C82.6173 55.7859 82.7416 55.331 82.7416 54.8537V53.2429C82.667 53.3324 82.503 53.4144 82.2494 53.489C82.0008 53.5586 81.7125 53.6207 81.3844 53.6754C81.0612 53.7251 80.7455 53.7699 80.4373 53.8097C80.134 53.8445 79.8879 53.8743 79.699 53.8991C79.2416 53.9588 78.8141 54.0558 78.4163 54.19C78.0236 54.3192 77.7054 54.5156 77.4618 54.7791C77.2231 55.0376 77.1038 55.3906 77.1038 55.8381C77.1038 56.4496 77.33 56.9119 77.7824 57.2251C78.2398 57.5334 78.819 57.6875 79.52 57.6875ZM95.7081 43.7273V59H93.8587V43.7273H95.7081ZM100.938 52.1094V59H99.1777V47.5455H100.878V49.3352H101.027C101.296 48.7536 101.703 48.2862 102.25 47.9332C102.797 47.5753 103.503 47.3963 104.368 47.3963C105.144 47.3963 105.822 47.5554 106.404 47.8736C106.986 48.1868 107.438 48.6641 107.761 49.3054C108.084 49.9418 108.246 50.7472 108.246 51.7216V59H106.486V51.8409C106.486 50.9411 106.252 50.2401 105.785 49.7379C105.318 49.2308 104.676 48.9773 103.861 48.9773C103.299 48.9773 102.797 49.0991 102.355 49.3427C101.917 49.5863 101.572 49.9418 101.318 50.4091C101.064 50.8764 100.938 51.4432 100.938 52.1094ZM115.787 59.2386C114.833 59.2386 113.99 58.9975 113.259 58.5153C112.528 58.0281 111.957 57.342 111.544 56.457C111.131 55.5671 110.925 54.5156 110.925 53.3026C110.925 52.0994 111.131 51.0554 111.544 50.1705C111.957 49.2855 112.531 48.6019 113.267 48.1197C114.002 47.6374 114.852 47.3963 115.817 47.3963C116.563 47.3963 117.152 47.5206 117.584 47.7692C118.022 48.0128 118.355 48.2912 118.584 48.6044C118.817 48.9126 118.999 49.1662 119.128 49.3651H119.277V43.7273H121.037V59H119.337V57.2401H119.128C118.999 57.4489 118.815 57.7124 118.576 58.0305C118.338 58.3437 117.997 58.6246 117.555 58.8732C117.112 59.1168 116.523 59.2386 115.787 59.2386ZM116.026 57.6577C116.732 57.6577 117.328 57.4737 117.816 57.1058C118.303 56.733 118.673 56.2184 118.927 55.5621C119.18 54.9009 119.307 54.1378 119.307 53.2727C119.307 52.4176 119.183 51.6694 118.934 51.0281C118.686 50.3817 118.318 49.8796 117.83 49.5217C117.343 49.1587 116.742 48.9773 116.026 48.9773C115.28 48.9773 114.659 49.1687 114.161 49.5515C113.669 49.9293 113.299 50.4439 113.05 51.0952C112.807 51.7415 112.685 52.4673 112.685 53.2727C112.685 54.0881 112.809 54.8288 113.058 55.495C113.311 56.1562 113.684 56.6832 114.176 57.076C114.674 57.4638 115.29 57.6577 116.026 57.6577ZM129.158 59.2386C128.124 59.2386 127.217 58.9925 126.436 58.5004C125.661 58.0082 125.054 57.3196 124.617 56.4347C124.184 55.5497 123.968 54.5156 123.968 53.3324C123.968 52.1392 124.184 51.0977 124.617 50.2077C125.054 49.3178 125.661 48.6268 126.436 48.1346C127.217 47.6424 128.124 47.3963 129.158 47.3963C130.192 47.3963 131.097 47.6424 131.873 48.1346C132.653 48.6268 133.26 49.3178 133.692 50.2077C134.13 51.0977 134.349 52.1392 134.349 53.3324C134.349 54.5156 134.13 55.5497 133.692 56.4347C133.26 57.3196 132.653 58.0082 131.873 58.5004C131.097 58.9925 130.192 59.2386 129.158 59.2386ZM129.158 57.6577C129.944 57.6577 130.59 57.4563 131.097 57.0536C131.604 56.6509 131.98 56.1214 132.223 55.4652C132.467 54.8089 132.589 54.098 132.589 53.3324C132.589 52.5668 132.467 51.8533 132.223 51.1921C131.98 50.5309 131.604 49.9964 131.097 49.5888C130.59 49.1811 129.944 48.9773 129.158 48.9773C128.373 48.9773 127.726 49.1811 127.219 49.5888C126.712 49.9964 126.337 50.5309 126.093 51.1921C125.85 51.8533 125.728 52.5668 125.728 53.3324C125.728 54.098 125.85 54.8089 126.093 55.4652C126.337 56.1214 126.712 56.6509 127.219 57.0536C127.726 57.4563 128.373 57.6577 129.158 57.6577ZM138.795 52.1094V59H137.035V47.5455H138.735V49.3352H138.885C139.153 48.7536 139.561 48.2862 140.108 47.9332C140.654 47.5753 141.36 47.3963 142.225 47.3963C143.001 47.3963 143.68 47.5554 144.261 47.8736C144.843 48.1868 145.295 48.6641 145.619 49.3054C145.942 49.9418 146.103 50.7472 146.103 51.7216V59H144.343V51.8409C144.343 50.9411 144.11 50.2401 143.642 49.7379C143.175 49.2308 142.534 48.9773 141.718 48.9773C141.157 48.9773 140.654 49.0991 140.212 49.3427C139.774 49.5863 139.429 49.9418 139.175 50.4091C138.922 50.8764 138.795 51.4432 138.795 52.1094ZM154.122 59.2386C153.018 59.2386 152.066 58.995 151.266 58.5078C150.47 58.0156 149.856 57.3295 149.424 56.4496C148.996 55.5646 148.782 54.5355 148.782 53.3622C148.782 52.1889 148.996 51.1548 149.424 50.2599C149.856 49.3601 150.458 48.6591 151.228 48.157C152.004 47.6499 152.909 47.3963 153.943 47.3963C154.539 47.3963 155.129 47.4957 155.71 47.6946C156.292 47.8935 156.821 48.2166 157.299 48.6641C157.776 49.1065 158.156 49.6932 158.44 50.424C158.723 51.1548 158.865 52.0547 158.865 53.1236V53.8693H150.035V52.348H157.075C157.075 51.7017 156.946 51.125 156.687 50.6179C156.434 50.1108 156.071 49.7106 155.598 49.4173C155.131 49.1239 154.579 48.9773 153.943 48.9773C153.242 48.9773 152.635 49.1513 152.123 49.4993C151.616 49.8423 151.226 50.2898 150.952 50.8416C150.679 51.3935 150.542 51.9851 150.542 52.6165V53.6307C150.542 54.4957 150.691 55.229 150.99 55.8306C151.293 56.4272 151.713 56.8821 152.25 57.1953C152.787 57.5036 153.411 57.6577 154.122 57.6577C154.584 57.6577 155.002 57.593 155.375 57.4638C155.753 57.3295 156.078 57.1307 156.352 56.8672C156.625 56.5987 156.836 56.2656 156.985 55.8679L158.686 56.3452C158.507 56.9219 158.206 57.429 157.783 57.8665C157.361 58.299 156.839 58.6371 156.217 58.8807C155.596 59.1193 154.897 59.2386 154.122 59.2386ZM169.656 50.1108L168.075 50.5582C167.975 50.2947 167.829 50.0387 167.635 49.7901C167.446 49.5366 167.187 49.3278 166.859 49.1637C166.531 48.9996 166.111 48.9176 165.599 48.9176C164.898 48.9176 164.314 49.0792 163.846 49.4023C163.384 49.7205 163.153 50.1257 163.153 50.6179C163.153 51.0554 163.312 51.4009 163.63 51.6545C163.948 51.908 164.445 52.1193 165.121 52.2884L166.822 52.706C167.846 52.9545 168.609 53.3349 169.111 53.8469C169.613 54.354 169.864 55.0078 169.864 55.8082C169.864 56.4645 169.675 57.0511 169.298 57.5682C168.925 58.0852 168.403 58.4929 167.732 58.7912C167.06 59.0895 166.28 59.2386 165.39 59.2386C164.222 59.2386 163.255 58.9851 162.489 58.478C161.723 57.9709 161.239 57.2301 161.035 56.2557L162.705 55.8381C162.864 56.4545 163.165 56.9169 163.608 57.2251C164.055 57.5334 164.639 57.6875 165.36 57.6875C166.18 57.6875 166.832 57.5135 167.314 57.1655C167.801 56.8125 168.045 56.3899 168.045 55.8977C168.045 55.5 167.906 55.1669 167.627 54.8984C167.349 54.625 166.921 54.4212 166.345 54.2869L164.435 53.8395C163.386 53.5909 162.616 53.2056 162.124 52.6836C161.636 52.1566 161.393 51.4979 161.393 50.7074C161.393 50.0611 161.574 49.4893 161.937 48.9922C162.305 48.495 162.805 48.1048 163.436 47.8214C164.072 47.538 164.793 47.3963 165.599 47.3963C166.732 47.3963 167.622 47.6449 168.269 48.142C168.92 48.6392 169.382 49.2955 169.656 50.1108ZM172.514 59V47.5455H174.274V59H172.514ZM173.409 45.6364C173.065 45.6364 172.77 45.5195 172.521 45.2859C172.277 45.0522 172.156 44.7713 172.156 44.4432C172.156 44.1151 172.277 43.8342 172.521 43.6005C172.77 43.3668 173.065 43.25 173.409 43.25C173.752 43.25 174.045 43.3668 174.288 43.6005C174.537 43.8342 174.661 44.1151 174.661 44.4432C174.661 44.7713 174.537 45.0522 174.288 45.2859C174.045 45.5195 173.752 45.6364 173.409 45.6364ZM180.868 59.2685C180.142 59.2685 179.483 59.1317 178.892 58.8583C178.3 58.5799 177.83 58.1797 177.482 57.6577C177.134 57.1307 176.96 56.4943 176.96 55.7486C176.96 55.0923 177.089 54.5604 177.348 54.1527C177.606 53.7401 177.952 53.4169 178.384 53.1832C178.817 52.9496 179.294 52.7756 179.816 52.6612C180.343 52.5419 180.873 52.4474 181.405 52.3778C182.101 52.2884 182.665 52.2212 183.098 52.1765C183.535 52.1268 183.853 52.0447 184.052 51.9304C184.256 51.8161 184.358 51.6172 184.358 51.3338V51.2741C184.358 50.5384 184.156 49.9666 183.754 49.5589C183.356 49.1513 182.752 48.9474 181.942 48.9474C181.101 48.9474 180.443 49.1314 179.965 49.4993C179.488 49.8672 179.153 50.2599 178.959 50.6776L177.288 50.081C177.587 49.3849 177.984 48.843 178.481 48.4553C178.984 48.0625 179.53 47.7891 180.122 47.6349C180.719 47.4759 181.305 47.3963 181.882 47.3963C182.25 47.3963 182.672 47.4411 183.15 47.5305C183.632 47.6151 184.097 47.7915 184.544 48.06C184.997 48.3285 185.372 48.7337 185.67 49.2756C185.969 49.8175 186.118 50.5433 186.118 51.4531V59H184.358V57.4489H184.268C184.149 57.6974 183.95 57.9634 183.672 58.2468C183.393 58.5302 183.023 58.7713 182.561 58.9702C182.098 59.169 181.534 59.2685 180.868 59.2685ZM181.136 57.6875C181.832 57.6875 182.419 57.5508 182.896 57.2773C183.378 57.0039 183.741 56.6509 183.985 56.2184C184.234 55.7859 184.358 55.331 184.358 54.8537V53.2429C184.283 53.3324 184.119 53.4144 183.866 53.489C183.617 53.5586 183.329 53.6207 183.001 53.6754C182.677 53.7251 182.362 53.7699 182.053 53.8097C181.75 53.8445 181.504 53.8743 181.315 53.8991C180.858 53.9588 180.43 54.0558 180.033 54.19C179.64 54.3192 179.322 54.5156 179.078 54.7791C178.839 55.0376 178.72 55.3906 178.72 55.8381C178.72 56.4496 178.946 56.9119 179.399 57.2251C179.856 57.5334 180.435 57.6875 181.136 57.6875Z" fill="black"/>
<path d="M44.0344 156V137.818H47.8163V144.654H47.9317C48.0974 144.287 48.3372 143.914 48.6508 143.536C48.9704 143.151 49.3847 142.831 49.8937 142.577C50.4086 142.316 51.0479 142.186 51.8113 142.186C52.8057 142.186 53.723 142.446 54.5635 142.967C55.4039 143.482 56.0757 144.261 56.5787 145.302C57.0818 146.338 57.3334 147.637 57.3334 149.2C57.3334 150.721 57.0877 152.005 56.5965 153.053C56.1112 154.094 55.4483 154.884 54.6079 155.423C53.7733 155.956 52.8382 156.222 51.8025 156.222C51.0686 156.222 50.4442 156.101 49.9292 155.858C49.4202 155.615 49.003 155.31 48.6775 154.944C48.3519 154.571 48.1034 154.195 47.9317 153.816H47.7631V156H44.0344ZM47.7364 149.182C47.7364 149.993 47.8489 150.7 48.0738 151.304C48.2987 151.907 48.6242 152.378 49.0503 152.715C49.4765 153.047 49.9943 153.212 50.604 153.212C51.2195 153.212 51.7403 153.044 52.1665 152.706C52.5926 152.363 52.9152 151.89 53.1341 151.286C53.359 150.676 53.4715 149.975 53.4715 149.182C53.4715 148.395 53.362 147.702 53.143 147.104C52.924 146.507 52.6015 146.039 52.1753 145.702C51.7492 145.364 51.2254 145.196 50.604 145.196C49.9884 145.196 49.4676 145.358 49.0415 145.684C48.6212 146.009 48.2987 146.471 48.0738 147.069C47.8489 147.667 47.7364 148.371 47.7364 149.182ZM66.0714 156.266C64.6687 156.266 63.4613 155.982 62.4492 155.414C61.4431 154.84 60.6677 154.029 60.1232 152.982C59.5787 151.928 59.3065 150.682 59.3065 149.244C59.3065 147.841 59.5787 146.61 60.1232 145.551C60.6677 144.491 61.4342 143.666 62.4226 143.074C63.4169 142.482 64.5829 142.186 65.9205 142.186C66.8201 142.186 67.6576 142.331 68.4329 142.621C69.2141 142.905 69.8948 143.334 70.4748 143.908C71.0607 144.482 71.5165 145.205 71.842 146.075C72.1675 146.939 72.3303 147.951 72.3303 149.111V150.15H60.8157V147.806H68.7702C68.7702 147.261 68.6519 146.779 68.4151 146.359C68.1784 145.938 67.8499 145.61 67.4297 145.373C67.0154 145.131 66.533 145.009 65.9826 145.009C65.4085 145.009 64.8995 145.142 64.4556 145.409C64.0176 145.669 63.6744 146.021 63.4258 146.465C63.1772 146.903 63.05 147.391 63.044 147.93V150.158C63.044 150.833 63.1683 151.416 63.4169 151.907C63.6714 152.399 64.0295 152.777 64.4911 153.044C64.9528 153.31 65.5002 153.443 66.1335 153.443C66.5537 153.443 66.9384 153.384 67.2876 153.266C67.6368 153.147 67.9357 152.97 68.1843 152.733C68.4329 152.496 68.6223 152.206 68.7525 151.863L72.2504 152.094C72.0728 152.934 71.7088 153.668 71.1584 154.295C70.6139 154.917 69.9096 155.402 69.0455 155.751C68.1873 156.095 67.1959 156.266 66.0714 156.266ZM74.7983 156V142.364H78.4648V144.743H78.6069C78.8555 143.897 79.2727 143.257 79.8587 142.825C80.4446 142.387 81.1193 142.168 81.8828 142.168C82.0722 142.168 82.2764 142.18 82.4954 142.204C82.7144 142.228 82.9067 142.26 83.0724 142.301V145.657C82.8949 145.604 82.6493 145.557 82.3356 145.515C82.0219 145.474 81.7348 145.453 81.4744 145.453C80.9181 145.453 80.4209 145.574 79.983 145.817C79.5509 146.054 79.2076 146.385 78.9531 146.811C78.7045 147.238 78.5803 147.729 78.5803 148.285V156H74.7983ZM96.3737 146.252L92.9113 146.465C92.8521 146.169 92.7249 145.903 92.5296 145.666C92.3343 145.424 92.0768 145.231 91.7572 145.089C91.4435 144.941 91.0677 144.867 90.6297 144.867C90.0438 144.867 89.5496 144.991 89.1471 145.24C88.7446 145.483 88.5434 145.808 88.5434 146.217C88.5434 146.542 88.6736 146.817 88.934 147.042C89.1945 147.267 89.6413 147.448 90.2746 147.584L92.7426 148.081C94.0684 148.353 95.0568 148.791 95.7078 149.395C96.3589 149.999 96.6844 150.792 96.6844 151.774C96.6844 152.668 96.421 153.452 95.8943 154.127C95.3734 154.801 94.6573 155.328 93.7458 155.707C92.8403 156.08 91.7957 156.266 90.6119 156.266C88.8068 156.266 87.3686 155.891 86.2973 155.139C85.232 154.381 84.6076 153.351 84.4241 152.049L88.1439 151.854C88.2564 152.404 88.5286 152.825 88.9607 153.115C89.3927 153.399 89.9461 153.541 90.6208 153.541C91.2837 153.541 91.8164 153.414 92.2188 153.159C92.6272 152.899 92.8344 152.564 92.8403 152.156C92.8344 151.813 92.6894 151.531 92.4053 151.312C92.1212 151.088 91.6832 150.916 91.0914 150.798L88.7298 150.327C87.3982 150.061 86.4068 149.599 85.7558 148.942C85.1106 148.285 84.7881 147.448 84.7881 146.43C84.7881 145.554 85.0248 144.799 85.4983 144.166C85.9777 143.533 86.6495 143.044 87.5136 142.701C88.3836 142.358 89.4016 142.186 90.5676 142.186C92.2899 142.186 93.6452 142.55 94.6336 143.278C95.6279 144.006 96.2079 144.997 96.3737 146.252ZM106.319 142.364V145.205H98.1071V142.364H106.319ZM99.9714 139.097H103.753V151.81C103.753 152.159 103.807 152.431 103.913 152.626C104.02 152.816 104.168 152.949 104.357 153.026C104.552 153.103 104.777 153.141 105.032 153.141C105.209 153.141 105.387 153.127 105.564 153.097C105.742 153.061 105.878 153.035 105.973 153.017L106.568 155.831C106.378 155.891 106.112 155.959 105.769 156.036C105.425 156.118 105.008 156.169 104.517 156.186C103.605 156.222 102.806 156.101 102.12 155.822C101.439 155.544 100.91 155.112 100.531 154.526C100.152 153.94 99.9655 153.201 99.9714 152.307V139.097ZM112.671 156.257C111.801 156.257 111.026 156.107 110.345 155.805C109.665 155.497 109.126 155.044 108.729 154.446C108.339 153.843 108.143 153.091 108.143 152.191C108.143 151.434 108.283 150.798 108.561 150.283C108.839 149.768 109.218 149.353 109.697 149.04C110.176 148.726 110.721 148.489 111.331 148.33C111.946 148.17 112.591 148.057 113.266 147.992C114.059 147.909 114.698 147.832 115.184 147.761C115.669 147.684 116.021 147.572 116.24 147.424C116.459 147.276 116.569 147.057 116.569 146.767V146.714C116.569 146.152 116.391 145.717 116.036 145.409C115.687 145.101 115.19 144.947 114.544 144.947C113.864 144.947 113.322 145.098 112.92 145.4C112.517 145.696 112.251 146.069 112.121 146.518L108.623 146.234C108.8 145.406 109.15 144.69 109.67 144.086C110.191 143.476 110.863 143.009 111.686 142.683C112.514 142.352 113.473 142.186 114.562 142.186C115.32 142.186 116.045 142.275 116.737 142.452C117.436 142.63 118.054 142.905 118.593 143.278C119.137 143.651 119.566 144.13 119.88 144.716C120.194 145.296 120.35 145.992 120.35 146.803V156H116.764V154.109H116.657C116.438 154.535 116.145 154.911 115.778 155.237C115.411 155.556 114.971 155.808 114.456 155.991C113.941 156.169 113.346 156.257 112.671 156.257ZM113.754 153.647C114.311 153.647 114.802 153.538 115.228 153.319C115.654 153.094 115.989 152.792 116.231 152.413C116.474 152.035 116.595 151.605 116.595 151.126V149.679C116.477 149.756 116.314 149.827 116.107 149.892C115.906 149.951 115.678 150.007 115.423 150.061C115.169 150.108 114.914 150.152 114.66 150.194C114.405 150.229 114.174 150.262 113.967 150.292C113.523 150.357 113.136 150.46 112.804 150.602C112.473 150.744 112.215 150.937 112.032 151.179C111.848 151.416 111.757 151.712 111.757 152.067C111.757 152.582 111.943 152.976 112.316 153.248C112.695 153.514 113.174 153.647 113.754 153.647ZM127.067 148.116V156H123.285V142.364H126.889V144.77H127.049C127.351 143.976 127.857 143.349 128.567 142.887C129.277 142.42 130.138 142.186 131.15 142.186C132.097 142.186 132.923 142.393 133.627 142.808C134.332 143.222 134.879 143.814 135.27 144.583C135.66 145.347 135.856 146.258 135.856 147.317V156H132.074V147.992C132.08 147.158 131.867 146.507 131.434 146.039C131.002 145.566 130.408 145.329 129.65 145.329C129.141 145.329 128.691 145.438 128.301 145.657C127.916 145.876 127.614 146.196 127.395 146.616C127.182 147.03 127.073 147.531 127.067 148.116ZM143.861 156.222C142.825 156.222 141.887 155.956 141.047 155.423C140.212 154.884 139.55 154.094 139.058 153.053C138.573 152.005 138.33 150.721 138.33 149.2C138.33 147.637 138.582 146.338 139.085 145.302C139.588 144.261 140.257 143.482 141.091 142.967C141.932 142.446 142.852 142.186 143.852 142.186C144.616 142.186 145.252 142.316 145.761 142.577C146.276 142.831 146.69 143.151 147.004 143.536C147.324 143.914 147.566 144.287 147.732 144.654H147.847V137.818H151.62V156H147.892V153.816H147.732C147.554 154.195 147.303 154.571 146.977 154.944C146.658 155.31 146.241 155.615 145.726 155.858C145.217 156.101 144.595 156.222 143.861 156.222ZM145.06 153.212C145.669 153.212 146.184 153.047 146.604 152.715C147.031 152.378 147.356 151.907 147.581 151.304C147.812 150.7 147.927 149.993 147.927 149.182C147.927 148.371 147.815 147.667 147.59 147.069C147.365 146.471 147.04 146.009 146.613 145.684C146.187 145.358 145.669 145.196 145.06 145.196C144.438 145.196 143.915 145.364 143.488 145.702C143.062 146.039 142.74 146.507 142.521 147.104C142.302 147.702 142.192 148.395 142.192 149.182C142.192 149.975 142.302 150.676 142.521 151.286C142.746 151.89 143.068 152.363 143.488 152.706C143.915 153.044 144.438 153.212 145.06 153.212ZM158.618 156.257C157.748 156.257 156.973 156.107 156.292 155.805C155.612 155.497 155.073 155.044 154.677 154.446C154.286 153.843 154.091 153.091 154.091 152.191C154.091 151.434 154.23 150.798 154.508 150.283C154.786 149.768 155.165 149.353 155.644 149.04C156.124 148.726 156.668 148.489 157.278 148.33C157.893 148.17 158.539 148.057 159.213 147.992C160.006 147.909 160.646 147.832 161.131 147.761C161.616 147.684 161.968 147.572 162.187 147.424C162.406 147.276 162.516 147.057 162.516 146.767V146.714C162.516 146.152 162.338 145.717 161.983 145.409C161.634 145.101 161.137 144.947 160.492 144.947C159.811 144.947 159.269 145.098 158.867 145.4C158.465 145.696 158.198 146.069 158.068 146.518L154.57 146.234C154.748 145.406 155.097 144.69 155.618 144.086C156.139 143.476 156.81 143.009 157.633 142.683C158.462 142.352 159.42 142.186 160.509 142.186C161.267 142.186 161.992 142.275 162.684 142.452C163.383 142.63 164.001 142.905 164.54 143.278C165.084 143.651 165.514 144.13 165.827 144.716C166.141 145.296 166.298 145.992 166.298 146.803V156H162.711V154.109H162.605C162.386 154.535 162.093 154.911 161.726 155.237C161.359 155.556 160.918 155.808 160.403 155.991C159.888 156.169 159.293 156.257 158.618 156.257ZM159.702 153.647C160.258 153.647 160.749 153.538 161.175 153.319C161.601 153.094 161.936 152.792 162.178 152.413C162.421 152.035 162.542 151.605 162.542 151.126V149.679C162.424 149.756 162.261 149.827 162.054 149.892C161.853 149.951 161.625 150.007 161.371 150.061C161.116 150.108 160.862 150.152 160.607 150.194C160.353 150.229 160.122 150.262 159.915 150.292C159.471 150.357 159.083 150.46 158.752 150.602C158.42 150.744 158.163 150.937 157.979 151.179C157.796 151.416 157.704 151.712 157.704 152.067C157.704 152.582 157.89 152.976 158.263 153.248C158.642 153.514 159.122 153.647 159.702 153.647ZM169.232 156V142.364H172.898V144.743H173.04C173.289 143.897 173.706 143.257 174.292 142.825C174.878 142.387 175.553 142.168 176.316 142.168C176.506 142.168 176.71 142.18 176.929 142.204C177.148 142.228 177.34 142.26 177.506 142.301V145.657C177.328 145.604 177.083 145.557 176.769 145.515C176.455 145.474 176.168 145.453 175.908 145.453C175.352 145.453 174.855 145.574 174.417 145.817C173.984 146.054 173.641 146.385 173.387 146.811C173.138 147.238 173.014 147.729 173.014 148.285V156H169.232ZM27.9067 178V164.364H31.6887V178H27.9067ZM29.8066 162.606C29.2443 162.606 28.7619 162.419 28.3595 162.047C27.9629 161.668 27.7646 161.215 27.7646 160.688C27.7646 160.167 27.9629 159.721 28.3595 159.348C28.7619 158.969 29.2443 158.779 29.8066 158.779C30.3688 158.779 30.8482 158.969 31.2448 159.348C31.6472 159.721 31.8485 160.167 31.8485 160.688C31.8485 161.215 31.6472 161.668 31.2448 162.047C30.8482 162.419 30.3688 162.606 29.8066 162.606ZM38.5002 170.116V178H34.7182V164.364H38.3226V166.77H38.4824C38.7843 165.976 39.2903 165.349 40.0005 164.887C40.7108 164.42 41.5719 164.186 42.584 164.186C43.531 164.186 44.3566 164.393 45.0609 164.808C45.7652 165.222 46.3127 165.814 46.7033 166.583C47.0939 167.347 47.2892 168.258 47.2892 169.317V178H43.5073V169.992C43.5132 169.158 43.3001 168.507 42.8681 168.039C42.436 167.566 41.8412 167.329 41.0836 167.329C40.5746 167.329 40.1248 167.438 39.7342 167.657C39.3495 167.876 39.0476 168.196 38.8287 168.616C38.6156 169.03 38.5061 169.531 38.5002 170.116ZM57.5232 164.364V167.205H49.3112V164.364H57.5232ZM51.1755 161.097H54.9575V173.81C54.9575 174.159 55.0107 174.431 55.1173 174.626C55.2238 174.816 55.3718 174.949 55.5612 175.026C55.7565 175.103 55.9814 175.141 56.2359 175.141C56.4134 175.141 56.591 175.127 56.7686 175.097C56.9461 175.061 57.0822 175.035 57.1769 175.017L57.7718 177.831C57.5824 177.891 57.316 177.959 56.9727 178.036C56.6295 178.118 56.2122 178.169 55.721 178.186C54.8095 178.222 54.0105 178.101 53.324 177.822C52.6433 177.544 52.1136 177.112 51.7348 176.526C51.356 175.94 51.1696 175.201 51.1755 174.307V161.097ZM66.0548 178.266C64.6521 178.266 63.4447 177.982 62.4326 177.414C61.4265 176.84 60.6511 176.029 60.1066 174.982C59.5621 173.928 59.2899 172.682 59.2899 171.244C59.2899 169.841 59.5621 168.61 60.1066 167.551C60.6511 166.491 61.4176 165.666 62.406 165.074C63.4003 164.482 64.5663 164.186 65.9039 164.186C66.8035 164.186 67.641 164.331 68.4163 164.621C69.1975 164.905 69.8782 165.334 70.4582 165.908C71.0441 166.482 71.4999 167.205 71.8254 168.075C72.1509 168.939 72.3137 169.951 72.3137 171.111V172.15H60.7991V169.806H68.7536C68.7536 169.261 68.6353 168.779 68.3985 168.359C68.1618 167.938 67.8333 167.61 67.4131 167.373C66.9988 167.131 66.5164 167.009 65.966 167.009C65.3919 167.009 64.8829 167.142 64.439 167.409C64.001 167.669 63.6578 168.021 63.4092 168.465C63.1606 168.903 63.0334 169.391 63.0274 169.93V172.158C63.0274 172.833 63.1517 173.416 63.4003 173.907C63.6548 174.399 64.0129 174.777 64.4745 175.044C64.9362 175.31 65.4836 175.443 66.1169 175.443C66.5371 175.443 66.9218 175.384 67.271 175.266C67.6202 175.147 67.9191 174.97 68.1677 174.733C68.4163 174.496 68.6057 174.206 68.7359 173.863L72.2338 174.094C72.0562 174.934 71.6922 175.668 71.1418 176.295C70.5973 176.917 69.893 177.402 69.0289 177.751C68.1707 178.095 67.1793 178.266 66.0548 178.266ZM74.7817 178V164.364H78.4482V166.743H78.5903C78.8389 165.897 79.2561 165.257 79.8421 164.825C80.428 164.387 81.1027 164.168 81.8662 164.168C82.0556 164.168 82.2598 164.18 82.4788 164.204C82.6978 164.228 82.8901 164.26 83.0558 164.301V167.657C82.8783 167.604 82.6327 167.557 82.319 167.515C82.0053 167.474 81.7182 167.453 81.4578 167.453C80.9015 167.453 80.4043 167.574 79.9664 167.817C79.5343 168.054 79.191 168.385 78.9365 168.811C78.6879 169.238 78.5637 169.729 78.5637 170.285V178H74.7817ZM88.7931 170.116V178H85.0112V164.364H88.6156V166.77H88.7754C89.0772 165.976 89.5833 165.349 90.2935 164.887C91.0037 164.42 91.8649 164.186 92.877 164.186C93.8239 164.186 94.6496 164.393 95.3539 164.808C96.0582 165.222 96.6056 165.814 96.9963 166.583C97.3869 167.347 97.5822 168.258 97.5822 169.317V178H93.8002V169.992C93.8062 169.158 93.5931 168.507 93.161 168.039C92.729 167.566 92.1342 167.329 91.3766 167.329C90.8676 167.329 90.4178 167.438 90.0272 167.657C89.6425 167.876 89.3406 168.196 89.1216 168.616C88.9086 169.03 88.7991 169.531 88.7931 170.116ZM104.451 178.257C103.581 178.257 102.806 178.107 102.125 177.805C101.445 177.497 100.906 177.044 100.51 176.446C100.119 175.843 99.9237 175.091 99.9237 174.191C99.9237 173.434 100.063 172.798 100.341 172.283C100.619 171.768 100.998 171.353 101.477 171.04C101.957 170.726 102.501 170.489 103.111 170.33C103.726 170.17 104.372 170.057 105.046 169.992C105.839 169.909 106.479 169.832 106.964 169.761C107.449 169.684 107.801 169.572 108.02 169.424C108.239 169.276 108.349 169.057 108.349 168.767V168.714C108.349 168.152 108.171 167.717 107.816 167.409C107.467 167.101 106.97 166.947 106.325 166.947C105.644 166.947 105.102 167.098 104.7 167.4C104.298 167.696 104.031 168.069 103.901 168.518L100.403 168.234C100.581 167.406 100.93 166.69 101.451 166.086C101.972 165.476 102.643 165.009 103.466 164.683C104.295 164.352 105.253 164.186 106.342 164.186C107.1 164.186 107.825 164.275 108.517 164.452C109.216 164.63 109.834 164.905 110.373 165.278C110.917 165.651 111.347 166.13 111.66 166.716C111.974 167.296 112.131 167.992 112.131 168.803V178H108.544V176.109H108.438C108.219 176.535 107.926 176.911 107.559 177.237C107.192 177.556 106.751 177.808 106.236 177.991C105.721 178.169 105.126 178.257 104.451 178.257ZM105.535 175.647C106.091 175.647 106.582 175.538 107.008 175.319C107.434 175.094 107.769 174.792 108.011 174.413C108.254 174.035 108.375 173.605 108.375 173.126V171.679C108.257 171.756 108.094 171.827 107.887 171.892C107.686 171.951 107.458 172.007 107.204 172.061C106.949 172.108 106.695 172.152 106.44 172.194C106.186 172.229 105.955 172.262 105.748 172.292C105.304 172.357 104.916 172.46 104.585 172.602C104.253 172.744 103.996 172.937 103.812 173.179C103.629 173.416 103.537 173.712 103.537 174.067C103.537 174.582 103.723 174.976 104.096 175.248C104.475 175.514 104.955 175.647 105.535 175.647ZM126.411 168.252L122.948 168.465C122.889 168.169 122.762 167.903 122.567 167.666C122.371 167.424 122.114 167.231 121.794 167.089C121.481 166.941 121.105 166.867 120.667 166.867C120.081 166.867 119.587 166.991 119.184 167.24C118.782 167.483 118.581 167.808 118.581 168.217C118.581 168.542 118.711 168.817 118.971 169.042C119.232 169.267 119.678 169.448 120.312 169.584L122.78 170.081C124.105 170.353 125.094 170.791 125.745 171.395C126.396 171.999 126.722 172.792 126.722 173.774C126.722 174.668 126.458 175.452 125.931 176.127C125.411 176.801 124.694 177.328 123.783 177.707C122.877 178.08 121.833 178.266 120.649 178.266C118.844 178.266 117.406 177.891 116.334 177.139C115.269 176.381 114.645 175.351 114.461 174.049L118.181 173.854C118.293 174.404 118.566 174.825 118.998 175.115C119.43 175.399 119.983 175.541 120.658 175.541C121.321 175.541 121.853 175.414 122.256 175.159C122.664 174.899 122.871 174.564 122.877 174.156C122.871 173.813 122.726 173.531 122.442 173.312C122.158 173.088 121.72 172.916 121.128 172.798L118.767 172.327C117.435 172.061 116.444 171.599 115.793 170.942C115.148 170.285 114.825 169.448 114.825 168.43C114.825 167.554 115.062 166.799 115.535 166.166C116.015 165.533 116.687 165.044 117.551 164.701C118.421 164.358 119.439 164.186 120.605 164.186C122.327 164.186 123.682 164.55 124.671 165.278C125.665 166.006 126.245 166.997 126.411 168.252ZM129.103 178V164.364H132.885V178H129.103ZM131.003 162.606C130.441 162.606 129.958 162.419 129.556 162.047C129.159 161.668 128.961 161.215 128.961 160.688C128.961 160.167 129.159 159.721 129.556 159.348C129.958 158.969 130.441 158.779 131.003 158.779C131.565 158.779 132.045 158.969 132.441 159.348C132.844 159.721 133.045 160.167 133.045 160.688C133.045 161.215 132.844 161.668 132.441 162.047C132.045 162.419 131.565 162.606 131.003 162.606ZM142.076 178.266C140.697 178.266 139.504 177.973 138.498 177.387C137.498 176.796 136.725 175.973 136.181 174.919C135.636 173.86 135.364 172.632 135.364 171.235C135.364 169.826 135.636 168.595 136.181 167.542C136.725 166.482 137.498 165.66 138.498 165.074C139.504 164.482 140.697 164.186 142.076 164.186C143.455 164.186 144.644 164.482 145.645 165.074C146.651 165.66 147.426 166.482 147.971 167.542C148.515 168.595 148.787 169.826 148.787 171.235C148.787 172.632 148.515 173.86 147.971 174.919C147.426 175.973 146.651 176.796 145.645 177.387C144.644 177.973 143.455 178.266 142.076 178.266ZM142.093 175.337C142.721 175.337 143.245 175.159 143.665 174.804C144.085 174.443 144.402 173.952 144.615 173.33C144.834 172.709 144.943 172.002 144.943 171.208C144.943 170.415 144.834 169.708 144.615 169.087C144.402 168.465 144.085 167.974 143.665 167.613C143.245 167.252 142.721 167.071 142.093 167.071C141.46 167.071 140.928 167.252 140.495 167.613C140.069 167.974 139.747 168.465 139.528 169.087C139.315 169.708 139.208 170.415 139.208 171.208C139.208 172.002 139.315 172.709 139.528 173.33C139.747 173.952 140.069 174.443 140.495 174.804C140.928 175.159 141.46 175.337 142.093 175.337ZM155.028 170.116V178H151.247V164.364H154.851V166.77H155.011C155.313 165.976 155.819 165.349 156.529 164.887C157.239 164.42 158.1 164.186 159.112 164.186C160.059 164.186 160.885 164.393 161.589 164.808C162.294 165.222 162.841 165.814 163.232 166.583C163.622 167.347 163.818 168.258 163.818 169.317V178H160.036V169.992C160.042 169.158 159.828 168.507 159.396 168.039C158.964 167.566 158.37 167.329 157.612 167.329C157.103 167.329 156.653 167.438 156.263 167.657C155.878 167.876 155.576 168.196 155.357 168.616C155.144 169.03 155.034 169.531 155.028 170.116ZM170.687 178.257C169.817 178.257 169.041 178.107 168.361 177.805C167.68 177.497 167.142 177.044 166.745 176.446C166.354 175.843 166.159 175.091 166.159 174.191C166.159 173.434 166.298 172.798 166.576 172.283C166.855 171.768 167.233 171.353 167.713 171.04C168.192 170.726 168.737 170.489 169.346 170.33C169.962 170.17 170.607 170.057 171.282 169.992C172.075 169.909 172.714 169.832 173.199 169.761C173.685 169.684 174.037 169.572 174.256 169.424C174.475 169.276 174.584 169.057 174.584 168.767V168.714C174.584 168.152 174.407 167.717 174.051 167.409C173.702 167.101 173.205 166.947 172.56 166.947C171.879 166.947 171.338 167.098 170.935 167.4C170.533 167.696 170.267 168.069 170.136 168.518L166.638 168.234C166.816 167.406 167.165 166.69 167.686 166.086C168.207 165.476 168.879 165.009 169.701 164.683C170.53 164.352 171.489 164.186 172.578 164.186C173.335 164.186 174.06 164.275 174.753 164.452C175.451 164.63 176.07 164.905 176.608 165.278C177.153 165.651 177.582 166.13 177.896 166.716C178.209 167.296 178.366 167.992 178.366 168.803V178H174.779V176.109H174.673C174.454 176.535 174.161 176.911 173.794 177.237C173.427 177.556 172.986 177.808 172.471 177.991C171.956 178.169 171.362 178.257 170.687 178.257ZM171.77 175.647C172.326 175.647 172.817 175.538 173.244 175.319C173.67 175.094 174.004 174.792 174.247 174.413C174.489 174.035 174.611 173.605 174.611 173.126V171.679C174.492 171.756 174.33 171.827 174.123 171.892C173.921 171.951 173.693 172.007 173.439 172.061C173.184 172.108 172.93 172.152 172.675 172.194C172.421 172.229 172.19 172.262 171.983 172.292C171.539 172.357 171.151 172.46 170.82 172.602C170.489 172.744 170.231 172.937 170.048 173.179C169.864 173.416 169.772 173.712 169.772 174.067C169.772 174.582 169.959 174.976 170.332 175.248C170.71 175.514 171.19 175.647 171.77 175.647ZM185.082 159.818V178H181.3V159.818H185.082Z" fill="#6BAC8C"/>
<path d="M36.5263 116.364H38.2081L42.1626 126.023H42.299L46.2536 116.364H47.9354V128H46.6172V119.159H46.5036L42.8672 128H41.5945L37.9581 119.159H37.8445V128H36.5263V116.364ZM54.2379 128.182C53.397 128.182 52.6716 127.996 52.0618 127.625C51.4557 127.25 50.9879 126.727 50.6584 126.057C50.3326 125.383 50.1697 124.598 50.1697 123.705C50.1697 122.811 50.3326 122.023 50.6584 121.341C50.9879 120.655 51.4463 120.121 52.0334 119.739C52.6243 119.352 53.3137 119.159 54.1016 119.159C54.5561 119.159 55.005 119.235 55.4482 119.386C55.8913 119.538 56.2947 119.784 56.6584 120.125C57.022 120.462 57.3118 120.909 57.5277 121.466C57.7436 122.023 57.8516 122.708 57.8516 123.523V124.091H51.1243V122.932H56.4879C56.4879 122.439 56.3894 122 56.1925 121.614C55.9993 121.227 55.7228 120.922 55.3629 120.699C55.0069 120.475 54.5864 120.364 54.1016 120.364C53.5675 120.364 53.1054 120.496 52.7152 120.761C52.3288 121.023 52.0315 121.364 51.8232 121.784C51.6148 122.205 51.5107 122.655 51.5107 123.136V123.909C51.5107 124.568 51.6243 125.127 51.8516 125.585C52.0826 126.04 52.4027 126.386 52.8118 126.625C53.2209 126.86 53.6963 126.977 54.2379 126.977C54.5902 126.977 54.9084 126.928 55.1925 126.83C55.4804 126.727 55.7285 126.576 55.9368 126.375C56.1451 126.17 56.3061 125.917 56.4197 125.614L57.7152 125.977C57.5788 126.417 57.3497 126.803 57.0277 127.136C56.7057 127.466 56.308 127.723 55.8345 127.909C55.361 128.091 54.8288 128.182 54.2379 128.182ZM61.2322 122.75V128H59.8913V119.273H61.1868V120.636H61.3004C61.505 120.193 61.8156 119.837 62.2322 119.568C62.6489 119.295 63.1868 119.159 63.8459 119.159C64.4368 119.159 64.9538 119.28 65.397 119.523C65.8402 119.761 66.1849 120.125 66.4311 120.614C66.6773 121.098 66.8004 121.712 66.8004 122.455V128H65.4595V122.545C65.4595 121.86 65.2815 121.326 64.9254 120.943C64.5694 120.557 64.0807 120.364 63.4595 120.364C63.0315 120.364 62.6489 120.456 62.3118 120.642C61.9785 120.828 61.7152 121.098 61.522 121.455C61.3288 121.811 61.2322 122.242 61.2322 122.75ZM74.7507 124.432V119.273H76.0916V128H74.7507V126.523H74.6598C74.4553 126.966 74.1371 127.343 73.7053 127.653C73.2734 127.96 72.728 128.114 72.0689 128.114C71.5234 128.114 71.0386 127.994 70.6143 127.756C70.1901 127.513 69.8568 127.15 69.6143 126.665C69.3719 126.176 69.2507 125.561 69.2507 124.818V119.273H70.5916V124.727C70.5916 125.364 70.7696 125.871 71.1257 126.25C71.4856 126.629 71.9439 126.818 72.5007 126.818C72.834 126.818 73.1731 126.733 73.5178 126.562C73.8662 126.392 74.1579 126.131 74.3928 125.778C74.6314 125.426 74.7507 124.977 74.7507 124.432ZM78.5476 119.273H79.8885V128.636C79.8885 129.174 79.7957 129.64 79.6101 130.034C79.4283 130.428 79.1518 130.733 78.7805 130.949C78.4131 131.165 77.9491 131.273 77.3885 131.273C77.343 131.273 77.2976 131.273 77.2521 131.273C77.2067 131.273 77.1612 131.273 77.1158 131.273V130.023C77.1612 130.023 77.2029 130.023 77.2408 130.023C77.2786 130.023 77.3203 130.023 77.3658 130.023C77.7749 130.023 78.0741 129.902 78.2635 129.659C78.4529 129.42 78.5476 129.08 78.5476 128.636V119.273ZM79.2067 117.818C78.9453 117.818 78.7199 117.729 78.5305 117.551C78.3449 117.373 78.2521 117.159 78.2521 116.909C78.2521 116.659 78.3449 116.445 78.5305 116.267C78.7199 116.089 78.9453 116 79.2067 116C79.468 116 79.6915 116.089 79.8771 116.267C80.0665 116.445 80.1612 116.659 80.1612 116.909C80.1612 117.159 80.0665 117.373 79.8771 117.551C79.6915 117.729 79.468 117.818 79.2067 117.818ZM87.8445 124.432V119.273H89.1854V128H87.8445V126.523H87.7536C87.549 126.966 87.2308 127.343 86.799 127.653C86.3672 127.96 85.8217 128.114 85.1626 128.114C84.6172 128.114 84.1323 127.994 83.7081 127.756C83.2839 127.513 82.9505 127.15 82.7081 126.665C82.4657 126.176 82.3445 125.561 82.3445 124.818V119.273H83.6854V124.727C83.6854 125.364 83.8634 125.871 84.2195 126.25C84.5793 126.629 85.0376 126.818 85.5945 126.818C85.9278 126.818 86.2668 126.733 86.6115 126.562C86.96 126.392 87.2517 126.131 87.4865 125.778C87.7251 125.426 87.8445 124.977 87.8445 124.432ZM96.1413 131.273V119.273H97.4368V120.659H97.5959C97.6944 120.508 97.8307 120.314 98.005 120.08C98.183 119.841 98.4368 119.629 98.7663 119.443C99.0997 119.254 99.5504 119.159 100.119 119.159C100.853 119.159 101.501 119.343 102.062 119.71C102.622 120.078 103.06 120.598 103.374 121.273C103.689 121.947 103.846 122.742 103.846 123.659C103.846 124.583 103.689 125.384 103.374 126.062C103.06 126.737 102.624 127.259 102.067 127.631C101.511 127.998 100.869 128.182 100.141 128.182C99.5807 128.182 99.1319 128.089 98.7947 127.903C98.4576 127.714 98.1982 127.5 98.0163 127.261C97.8345 127.019 97.6944 126.818 97.5959 126.659H97.4822V131.273H96.1413ZM97.4595 123.636C97.4595 124.295 97.5561 124.877 97.7493 125.381C97.9425 125.881 98.2247 126.273 98.5959 126.557C98.9671 126.837 99.4216 126.977 99.9595 126.977C100.52 126.977 100.988 126.83 101.363 126.534C101.742 126.235 102.026 125.833 102.215 125.33C102.408 124.822 102.505 124.258 102.505 123.636C102.505 123.023 102.41 122.47 102.221 121.977C102.035 121.481 101.753 121.089 101.374 120.801C100.999 120.509 100.528 120.364 99.9595 120.364C99.4141 120.364 98.9557 120.502 98.5845 120.778C98.2133 121.051 97.933 121.434 97.7436 121.926C97.5542 122.415 97.4595 122.985 97.4595 123.636ZM109.55 128.182C108.71 128.182 107.984 127.996 107.374 127.625C106.768 127.25 106.3 126.727 105.971 126.057C105.645 125.383 105.482 124.598 105.482 123.705C105.482 122.811 105.645 122.023 105.971 121.341C106.3 120.655 106.759 120.121 107.346 119.739C107.937 119.352 108.626 119.159 109.414 119.159C109.869 119.159 110.317 119.235 110.761 119.386C111.204 119.538 111.607 119.784 111.971 120.125C112.335 120.462 112.624 120.909 112.84 121.466C113.056 122.023 113.164 122.708 113.164 123.523V124.091H106.437V122.932H111.8C111.8 122.439 111.702 122 111.505 121.614C111.312 121.227 111.035 120.922 110.675 120.699C110.319 120.475 109.899 120.364 109.414 120.364C108.88 120.364 108.418 120.496 108.028 120.761C107.641 121.023 107.344 121.364 107.136 121.784C106.927 122.205 106.823 122.655 106.823 123.136V123.909C106.823 124.568 106.937 125.127 107.164 125.585C107.395 126.04 107.715 126.386 108.124 126.625C108.533 126.86 109.009 126.977 109.55 126.977C109.903 126.977 110.221 126.928 110.505 126.83C110.793 126.727 111.041 126.576 111.249 126.375C111.458 126.17 111.619 125.917 111.732 125.614L113.028 125.977C112.891 126.417 112.662 126.803 112.34 127.136C112.018 127.466 111.621 127.723 111.147 127.909C110.674 128.091 110.141 128.182 109.55 128.182ZM116.545 122.75V128H115.204V119.273H116.499V120.636H116.613C116.817 120.193 117.128 119.837 117.545 119.568C117.961 119.295 118.499 119.159 119.158 119.159C119.749 119.159 120.266 119.28 120.71 119.523C121.153 119.761 121.497 120.125 121.744 120.614C121.99 121.098 122.113 121.712 122.113 122.455V128H120.772V122.545C120.772 121.86 120.594 121.326 120.238 120.943C119.882 120.557 119.393 120.364 118.772 120.364C118.344 120.364 117.961 120.456 117.624 120.642C117.291 120.828 117.028 121.098 116.835 121.455C116.641 121.811 116.545 122.242 116.545 122.75ZM127.859 128.182C127.131 128.182 126.489 127.998 125.933 127.631C125.376 127.259 124.94 126.737 124.626 126.062C124.311 125.384 124.154 124.583 124.154 123.659C124.154 122.742 124.311 121.947 124.626 121.273C124.94 120.598 125.378 120.078 125.938 119.71C126.499 119.343 127.147 119.159 127.881 119.159C128.45 119.159 128.898 119.254 129.228 119.443C129.561 119.629 129.815 119.841 129.989 120.08C130.167 120.314 130.306 120.508 130.404 120.659H130.518V116.364H131.859V128H130.563V126.659H130.404C130.306 126.818 130.165 127.019 129.984 127.261C129.802 127.5 129.542 127.714 129.205 127.903C128.868 128.089 128.419 128.182 127.859 128.182ZM128.04 126.977C128.578 126.977 129.033 126.837 129.404 126.557C129.775 126.273 130.058 125.881 130.251 125.381C130.444 124.877 130.54 124.295 130.54 123.636C130.54 122.985 130.446 122.415 130.256 121.926C130.067 121.434 129.787 121.051 129.415 120.778C129.044 120.502 128.586 120.364 128.04 120.364C127.472 120.364 126.999 120.509 126.62 120.801C126.245 121.089 125.963 121.481 125.773 121.977C125.588 122.47 125.495 123.023 125.495 123.636C125.495 124.258 125.59 124.822 125.779 125.33C125.972 125.833 126.256 126.235 126.631 126.534C127.01 126.83 127.48 126.977 128.04 126.977ZM134.501 128V119.273H135.842V128H134.501ZM135.183 117.818C134.921 117.818 134.696 117.729 134.506 117.551C134.321 117.373 134.228 117.159 134.228 116.909C134.228 116.659 134.321 116.445 134.506 116.267C134.696 116.089 134.921 116 135.183 116C135.444 116 135.667 116.089 135.853 116.267C136.042 116.445 136.137 116.659 136.137 116.909C136.137 117.159 136.042 117.373 135.853 117.551C135.667 117.729 135.444 117.818 135.183 117.818ZM141.593 128.182C140.866 128.182 140.224 127.998 139.667 127.631C139.11 127.259 138.674 126.737 138.36 126.062C138.046 125.384 137.888 124.583 137.888 123.659C137.888 122.742 138.046 121.947 138.36 121.273C138.674 120.598 139.112 120.078 139.673 119.71C140.233 119.343 140.881 119.159 141.616 119.159C142.184 119.159 142.633 119.254 142.962 119.443C143.296 119.629 143.549 119.841 143.724 120.08C143.902 120.314 144.04 120.508 144.138 120.659H144.252V116.364H145.593V128H144.298V126.659H144.138C144.04 126.818 143.9 127.019 143.718 127.261C143.536 127.5 143.277 127.714 142.94 127.903C142.603 128.089 142.154 128.182 141.593 128.182ZM141.775 126.977C142.313 126.977 142.767 126.837 143.138 126.557C143.51 126.273 143.792 125.881 143.985 125.381C144.178 124.877 144.275 124.295 144.275 123.636C144.275 122.985 144.18 122.415 143.991 121.926C143.801 121.434 143.521 121.051 143.15 120.778C142.779 120.502 142.32 120.364 141.775 120.364C141.207 120.364 140.733 120.509 140.354 120.801C139.979 121.089 139.697 121.481 139.508 121.977C139.322 122.47 139.229 123.023 139.229 123.636C139.229 124.258 139.324 124.822 139.513 125.33C139.707 125.833 139.991 126.235 140.366 126.534C140.745 126.83 141.214 126.977 141.775 126.977ZM148.235 128V119.273H149.576V128H148.235ZM148.917 117.818C148.656 117.818 148.43 117.729 148.241 117.551C148.055 117.373 147.962 117.159 147.962 116.909C147.962 116.659 148.055 116.445 148.241 116.267C148.43 116.089 148.656 116 148.917 116C149.178 116 149.402 116.089 149.587 116.267C149.777 116.445 149.871 116.659 149.871 116.909C149.871 117.159 149.777 117.373 149.587 117.551C149.402 117.729 149.178 117.818 148.917 117.818ZM153.282 124.818L153.259 123.159H153.532L157.35 119.273H159.009L154.941 123.386H154.827L153.282 124.818ZM152.032 128V116.364H153.373V128H152.032ZM157.577 128L154.168 123.682L155.123 122.75L159.282 128H157.577ZM163.303 128.205C162.75 128.205 162.248 128.1 161.798 127.892C161.347 127.68 160.989 127.375 160.724 126.977C160.459 126.576 160.326 126.091 160.326 125.523C160.326 125.023 160.424 124.617 160.621 124.307C160.818 123.992 161.082 123.746 161.411 123.568C161.741 123.39 162.104 123.258 162.502 123.17C162.904 123.08 163.307 123.008 163.712 122.955C164.243 122.886 164.673 122.835 165.002 122.801C165.335 122.763 165.578 122.701 165.729 122.614C165.885 122.527 165.962 122.375 165.962 122.159V122.114C165.962 121.553 165.809 121.117 165.502 120.807C165.199 120.496 164.739 120.341 164.121 120.341C163.481 120.341 162.979 120.481 162.616 120.761C162.252 121.042 161.996 121.341 161.849 121.659L160.576 121.205C160.803 120.674 161.106 120.261 161.485 119.966C161.868 119.667 162.284 119.458 162.735 119.341C163.19 119.22 163.637 119.159 164.076 119.159C164.356 119.159 164.678 119.193 165.042 119.261C165.409 119.326 165.763 119.46 166.104 119.665C166.449 119.869 166.735 120.178 166.962 120.591C167.19 121.004 167.303 121.557 167.303 122.25V128H165.962V126.818H165.894C165.803 127.008 165.652 127.21 165.44 127.426C165.228 127.642 164.945 127.826 164.593 127.977C164.241 128.129 163.811 128.205 163.303 128.205ZM163.508 127C164.038 127 164.485 126.896 164.849 126.688C165.216 126.479 165.493 126.21 165.678 125.881C165.868 125.551 165.962 125.205 165.962 124.841V123.614C165.906 123.682 165.781 123.744 165.587 123.801C165.398 123.854 165.178 123.902 164.928 123.943C164.682 123.981 164.442 124.015 164.207 124.045C163.976 124.072 163.788 124.095 163.644 124.114C163.296 124.159 162.97 124.233 162.667 124.335C162.368 124.434 162.125 124.583 161.94 124.784C161.758 124.981 161.667 125.25 161.667 125.591C161.667 126.057 161.839 126.409 162.184 126.648C162.532 126.883 162.974 127 163.508 127ZM171.092 122.75V128H169.751V119.273H171.046V120.636H171.16C171.364 120.193 171.675 119.837 172.092 119.568C172.508 119.295 173.046 119.159 173.705 119.159C174.296 119.159 174.813 119.28 175.256 119.523C175.7 119.761 176.044 120.125 176.29 120.614C176.537 121.098 176.66 121.712 176.66 122.455V128H175.319V122.545C175.319 121.86 175.141 121.326 174.785 120.943C174.429 120.557 173.94 120.364 173.319 120.364C172.891 120.364 172.508 120.456 172.171 120.642C171.838 120.828 171.575 121.098 171.381 121.455C171.188 121.811 171.092 122.242 171.092 122.75Z" fill="#6BAC8C"/>
<g clip-path="url(#clip0_96_10)">
<path d="M118.2 79.163C117.638 78.6929 116.979 78.3524 116.27 78.1655C115.562 77.9787 114.821 77.9502 114.1 78.082L110.278 78.776C109.396 78.938 108.593 79.392 108 80.065C107.405 79.3908 106.601 78.9368 105.716 78.776L101.9 78.082C101.179 77.9501 100.438 77.9782 99.7294 78.1645C99.0206 78.3507 98.3615 78.6904 97.7986 79.1596C97.2357 79.6288 96.7828 80.216 96.472 80.8797C96.1612 81.5433 96 82.2672 96 83V93.793C96.0001 94.9638 96.411 96.0974 97.1611 96.9963C97.9113 97.8952 98.9531 98.5024 100.105 98.712L106.391 99.855C107.455 100.048 108.545 100.048 109.609 99.855L115.9 98.712C117.051 98.5014 118.092 97.8938 118.841 96.9949C119.59 96.0961 120 94.9631 120 93.793V83C120 82.2674 119.839 81.5438 119.528 80.8806C119.217 80.2174 118.764 79.6309 118.2 79.163V79.163ZM107 97.928C106.916 97.916 106.832 97.902 106.748 97.887L100.463 96.745C99.7718 96.6192 99.1466 96.2548 98.6965 95.7154C98.2464 95.1759 97.9999 94.4956 98 93.793V83C98 82.2043 98.3161 81.4413 98.8787 80.8787C99.4413 80.316 100.204 80 101 80C101.181 80.0004 101.362 80.0168 101.54 80.049L105.36 80.749C105.82 80.8331 106.235 81.0754 106.535 81.434C106.834 81.7926 106.999 82.2447 107 82.712V97.928ZM118 93.793C118 94.4956 117.754 95.1759 117.304 95.7154C116.853 96.2548 116.228 96.6192 115.537 96.745L109.252 97.887C109.168 97.902 109.084 97.916 109 97.928V82.712C109 82.2436 109.164 81.79 109.464 81.4304C109.764 81.0707 110.181 80.8278 110.642 80.744L114.463 80.044C114.896 79.9652 115.34 79.9826 115.766 80.0949C116.191 80.2071 116.586 80.4115 116.924 80.6936C117.261 80.9756 117.533 81.3284 117.719 81.727C117.905 82.1256 118.001 82.5602 118 83V93.793Z" fill="#374957"/>
</g>
<defs>
<clipPath id="clip0_96_10">
<rect width="24" height="24" fill="white" transform="translate(96 77)"/>
</clipPath>
</defs>
</svg>
