<svg width="150" height="35" viewBox="0 0 150 35" fill="none" xmlns="http://www.w3.org/2000/svg">
<path d="M78.9433 7.52818L78.2138 6.16239H78.1597L78.2948 7.52818V13.7216H77.2411V4.10693H77.8355L82.3613 10.422L83.0638 11.7202H83.1314L82.9828 10.422V4.25568H84.0366V13.8703H83.4421L78.9433 7.52818ZM89.0873 6.96023V10.8142C89.0873 11.1658 89.1054 11.4768 89.1413 11.7473C89.1864 12.0087 89.2583 12.2296 89.3575 12.4099C89.4566 12.5812 89.5917 12.7119 89.7628 12.802C89.9338 12.8922 90.15 12.9373 90.4113 12.9373C90.6544 12.9373 90.8706 12.9012 91.0597 12.8291C91.2489 12.748 91.4156 12.6398 91.5596 12.5045C91.7128 12.3693 91.8433 12.2161 91.9514 12.0448C92.0684 11.8645 92.163 11.6751 92.2351 11.4768V6.96023L93.3159 6.96023V11.8014C93.3159 12.1259 93.3248 12.464 93.3429 12.8156C93.3699 13.1582 93.4105 13.4601 93.4645 13.7216H92.7215L92.4513 12.6533H92.3837C92.1765 13.0049 91.8974 13.2979 91.5461 13.5323C91.1948 13.7667 90.749 13.8839 90.2086 13.8839C89.8484 13.8839 89.5285 13.8388 89.2494 13.7486C88.9792 13.6675 88.7495 13.5188 88.5604 13.3024C88.3802 13.086 88.2407 12.7975 88.1416 12.4369C88.0516 12.0673 88.0065 11.603 88.0065 11.0441V6.96023H89.0873ZM100.261 11.8825C100.261 11.612 100.18 11.4002 100.018 11.2469C99.8555 11.0937 99.6528 10.9675 99.4097 10.8683C99.1754 10.7601 98.9144 10.6609 98.6261 10.5708C98.347 10.4716 98.0857 10.3499 97.8425 10.2057C97.6083 10.0524 97.4102 9.85861 97.2481 9.62421C97.086 9.38981 97.0049 9.07429 97.0049 8.67762C97.0049 8.02852 97.1895 7.55523 97.5588 7.25773C97.9281 6.95122 98.4415 6.79796 99.0989 6.79796C99.5853 6.79796 99.9906 6.84304 100.315 6.93318C100.648 7.01432 100.936 7.11349 101.179 7.23068L100.923 8.12318C100.716 8.02401 100.463 7.93838 100.166 7.86625C99.878 7.78512 99.5672 7.74455 99.234 7.74455C98.8377 7.74455 98.545 7.81216 98.3559 7.94739C98.1757 8.08262 98.0857 8.31702 98.0857 8.65057C98.0857 8.88497 98.1668 9.06977 98.3289 9.205C98.491 9.33122 98.6891 9.44841 98.9233 9.55659C99.1665 9.65577 99.4277 9.75492 99.7069 9.85409C99.9952 9.95327 100.256 10.084 100.49 10.2463C100.734 10.4085 100.936 10.6159 101.098 10.8683C101.261 11.1117 101.342 11.4363 101.342 11.8419C101.342 12.1304 101.292 12.4009 101.193 12.6533C101.103 12.9057 100.959 13.1221 100.761 13.3024C100.563 13.4827 100.315 13.6224 100.018 13.7216C99.7293 13.8298 99.3872 13.8839 98.9909 13.8839C98.4775 13.8839 98.0406 13.8343 97.6804 13.7351C97.3202 13.6359 97.0184 13.5188 96.7752 13.3835L97.0995 12.464C97.3067 12.5812 97.5769 12.6894 97.9101 12.7885C98.2432 12.8877 98.581 12.9373 98.9233 12.9373C99.3105 12.9373 99.6304 12.8607 99.8825 12.7074C100.135 12.5541 100.261 12.2792 100.261 11.8825ZM104.758 7.46057C105.101 7.25321 105.497 7.09997 105.947 7.0008C106.406 6.90162 106.884 6.85205 107.379 6.85205C107.848 6.85205 108.221 6.91515 108.5 7.04137C108.789 7.16758 109.005 7.33435 109.149 7.54171C109.302 7.74003 109.401 7.96091 109.446 8.20432C109.5 8.44773 109.527 8.69114 109.527 8.93455C109.527 9.47546 109.514 10.0028 109.487 10.5167C109.46 11.0306 109.446 11.5174 109.446 11.9772C109.446 12.3107 109.46 12.6263 109.487 12.9238C109.514 13.2213 109.563 13.4962 109.635 13.7486H108.838L108.555 12.802H108.487C108.406 12.9283 108.302 13.0545 108.176 13.1807C108.059 13.2979 107.915 13.4061 107.744 13.5052C107.573 13.5954 107.375 13.672 107.149 13.7351C106.924 13.7982 106.668 13.8298 106.379 13.8298C106.091 13.8298 105.821 13.7847 105.569 13.6945C105.326 13.6044 105.114 13.4782 104.934 13.3159C104.754 13.1446 104.61 12.9418 104.502 12.7074C104.403 12.473 104.353 12.207 104.353 11.9095C104.353 11.5129 104.434 11.1838 104.596 10.9224C104.758 10.6519 104.984 10.4401 105.272 10.2868C105.569 10.1245 105.92 10.0119 106.325 9.94875C106.74 9.87662 107.195 9.84057 107.69 9.84057C107.816 9.84057 107.938 9.84057 108.055 9.84057C108.181 9.84057 108.307 9.84958 108.433 9.86762C108.46 9.59716 108.473 9.35375 108.473 9.13739C108.473 8.64156 108.375 8.29447 108.176 8.09614C107.978 7.89781 107.618 7.79864 107.095 7.79864C106.942 7.79864 106.776 7.81216 106.596 7.83921C106.425 7.85724 106.244 7.88878 106.055 7.93387C105.875 7.96992 105.7 8.01952 105.528 8.08262C105.366 8.13671 105.222 8.19981 105.096 8.27193L104.758 7.46057ZM106.677 12.8832C106.929 12.8832 107.154 12.8516 107.352 12.7885C107.55 12.7164 107.721 12.6308 107.865 12.5316C108.01 12.4234 108.127 12.3062 108.217 12.18C108.316 12.0538 108.388 11.9321 108.433 11.8149V10.6925C108.307 10.6835 108.176 10.679 108.041 10.679C107.915 10.67 107.789 10.6655 107.663 10.6655C107.384 10.6655 107.109 10.6835 106.839 10.7195C106.578 10.7466 106.343 10.8052 106.136 10.8953C105.938 10.9765 105.776 11.0937 105.65 11.2469C105.533 11.3912 105.474 11.576 105.474 11.8014C105.474 12.1169 105.587 12.3783 105.812 12.5857C106.037 12.784 106.325 12.8832 106.677 12.8832ZM117.797 13.7216V9.86762C117.797 9.16443 117.693 8.63705 117.486 8.28546C117.288 7.92486 116.919 7.74455 116.378 7.74455C115.901 7.74455 115.504 7.87526 115.189 8.13671C114.883 8.38912 114.667 8.70918 114.541 9.09682V13.7216H113.46V6.96023H114.217L114.419 7.78512H114.473C114.689 7.49662 114.977 7.26224 115.338 7.08193C115.707 6.89262 116.144 6.79796 116.648 6.79796C117.017 6.79796 117.342 6.84304 117.621 6.93318C117.9 7.01432 118.13 7.16307 118.31 7.37943C118.499 7.5958 118.639 7.88878 118.729 8.25841C118.828 8.61901 118.877 9.07878 118.877 9.63773V13.7216H117.797ZM121.848 6.96023H122.902V5.62148L123.982 5.31046V6.96023L125.82 6.96023V7.90682L123.982 7.90682V11.6526C123.982 12.1214 124.041 12.455 124.158 12.6533C124.275 12.8426 124.473 12.9373 124.753 12.9373C124.987 12.9373 125.185 12.9147 125.347 12.8697C125.509 12.8156 125.689 12.748 125.887 12.6668L126.131 13.4917C125.887 13.6089 125.622 13.7036 125.333 13.7757C125.045 13.8478 124.734 13.8839 124.401 13.8839C123.852 13.8839 123.465 13.7306 123.239 13.4241C123.014 13.1086 122.902 12.5857 122.902 11.8555V7.90682H121.848V6.96023ZM129.101 7.46057C129.443 7.25321 129.839 7.09997 130.29 7.0008C130.749 6.90162 131.227 6.85205 131.722 6.85205C132.19 6.85205 132.564 6.91515 132.843 7.04137C133.131 7.16758 133.348 7.33435 133.492 7.54171C133.645 7.74003 133.744 7.96091 133.789 8.20432C133.843 8.44773 133.87 8.69114 133.87 8.93455C133.87 9.47546 133.856 10.0028 133.829 10.5167C133.802 11.0306 133.789 11.5174 133.789 11.9772C133.789 12.3107 133.802 12.6263 133.829 12.9238C133.856 13.2213 133.906 13.4962 133.978 13.7486H133.181L132.897 12.802H132.83C132.749 12.9283 132.645 13.0545 132.519 13.1807C132.402 13.2979 132.258 13.4061 132.087 13.5052C131.916 13.5954 131.717 13.672 131.492 13.7351C131.267 13.7982 131.01 13.8298 130.722 13.8298C130.434 13.8298 130.164 13.7847 129.912 13.6945C129.668 13.6044 129.457 13.4782 129.277 13.3159C129.096 13.1446 128.952 12.9418 128.844 12.7074C128.745 12.473 128.696 12.207 128.696 11.9095C128.696 11.5129 128.777 11.1838 128.939 10.9224C129.101 10.6519 129.326 10.4401 129.614 10.2868C129.912 10.1245 130.263 10.0119 130.668 9.94875C131.082 9.87662 131.537 9.84057 132.033 9.84057C132.159 9.84057 132.28 9.84057 132.397 9.84057C132.524 9.84057 132.649 9.84958 132.776 9.86762C132.803 9.59716 132.816 9.35375 132.816 9.13739C132.816 8.64156 132.717 8.29447 132.519 8.09614C132.321 7.89781 131.96 7.79864 131.438 7.79864C131.285 7.79864 131.118 7.81216 130.938 7.83921C130.767 7.85724 130.587 7.88878 130.398 7.93387C130.218 7.96992 130.042 8.01952 129.871 8.08262C129.709 8.13671 129.565 8.19981 129.439 8.27193L129.101 7.46057ZM131.019 12.8832C131.271 12.8832 131.497 12.8516 131.695 12.7885C131.893 12.7164 132.064 12.6308 132.208 12.5316C132.352 12.4234 132.469 12.3062 132.559 12.18C132.659 12.0538 132.731 11.9321 132.776 11.8149V10.6925C132.649 10.6835 132.519 10.679 132.384 10.679C132.258 10.67 132.132 10.6655 132.006 10.6655C131.726 10.6655 131.452 10.6835 131.181 10.7195C130.92 10.7466 130.686 10.8052 130.479 10.8953C130.281 10.9765 130.119 11.0937 129.993 11.2469C129.876 11.3912 129.817 11.576 129.817 11.8014C129.817 12.1169 129.93 12.3783 130.155 12.5857C130.38 12.784 130.668 12.8832 131.019 12.8832ZM140.991 8.00148C140.721 7.91133 140.464 7.86625 140.221 7.86625C139.834 7.86625 139.527 7.97443 139.302 8.1908C139.077 8.39815 138.937 8.66409 138.883 8.98864V13.7216L137.803 13.7216V6.96023H138.559L138.762 7.78512H138.816C138.987 7.47861 139.19 7.24421 139.424 7.08193C139.667 6.91065 139.973 6.825 140.342 6.825C140.604 6.825 140.896 6.87008 141.221 6.96023L140.991 8.00148ZM144.177 7.46057C144.52 7.25321 144.916 7.09997 145.366 7.0008C145.825 6.90162 146.303 6.85205 146.798 6.85205C147.266 6.85205 147.64 6.91515 147.919 7.04137C148.208 7.16758 148.424 7.33435 148.568 7.54171C148.721 7.74003 148.82 7.96091 148.865 8.20432C148.919 8.44773 148.946 8.69114 148.946 8.93455C148.946 9.47546 148.933 10.0028 148.906 10.5167C148.879 11.0306 148.865 11.5174 148.865 11.9772C148.865 12.3107 148.879 12.6263 148.906 12.9238C148.933 13.2213 148.982 13.4962 149.054 13.7486L148.257 13.7486L147.974 12.802H147.906C147.825 12.9283 147.721 13.0545 147.595 13.1807C147.478 13.2979 147.334 13.4061 147.163 13.5052C146.992 13.5954 146.794 13.672 146.568 13.7351C146.343 13.7982 146.087 13.8298 145.798 13.8298C145.51 13.8298 145.24 13.7847 144.988 13.6945C144.745 13.6044 144.533 13.4782 144.353 13.3159C144.173 13.1446 144.029 12.9418 143.921 12.7074C143.821 12.473 143.772 12.207 143.772 11.9095C143.772 11.5129 143.853 11.1838 144.015 10.9224C144.177 10.6519 144.402 10.4401 144.691 10.2868C144.988 10.1245 145.339 10.0119 145.744 9.94875C146.159 9.87662 146.614 9.84057 147.109 9.84057C147.235 9.84057 147.357 9.84057 147.474 9.84057C147.6 9.84057 147.726 9.84958 147.852 9.86762C147.879 9.59716 147.892 9.35375 147.892 9.13739C147.892 8.64156 147.793 8.29447 147.595 8.09614C147.397 7.89781 147.037 7.79864 146.514 7.79864C146.361 7.79864 146.195 7.81216 146.015 7.83921C145.844 7.85724 145.663 7.88878 145.474 7.93387C145.294 7.96992 145.118 8.01952 144.947 8.08262C144.785 8.13671 144.641 8.19981 144.515 8.27193L144.177 7.46057ZM146.096 12.8832C146.348 12.8832 146.573 12.8516 146.771 12.7885C146.969 12.7164 147.14 12.6308 147.285 12.5316C147.429 12.4234 147.546 12.3062 147.636 12.18C147.735 12.0538 147.807 11.9321 147.852 11.8149V10.6925C147.726 10.6835 147.595 10.679 147.46 10.679C147.334 10.67 147.208 10.6655 147.082 10.6655C146.803 10.6655 146.528 10.6835 146.258 10.7195C145.996 10.7466 145.762 10.8052 145.555 10.8953C145.357 10.9765 145.195 11.0937 145.069 11.2469C144.952 11.3912 144.893 11.576 144.893 11.8014C144.893 12.1169 145.006 12.3783 145.231 12.5857C145.456 12.784 145.744 12.8832 146.096 12.8832ZM77.2411 21.8503C77.5834 21.7692 77.9525 21.7151 78.3489 21.6881C78.7452 21.661 79.137 21.6475 79.5242 21.6475C79.9385 21.6475 80.3573 21.6881 80.7807 21.7692C81.213 21.8503 81.6048 21.9991 81.956 22.2155C82.3073 22.4318 82.591 22.7293 82.8071 23.108C83.0322 23.4866 83.1449 23.9688 83.1449 24.5549C83.1449 25.1318 83.0414 25.6186 82.8342 26.0153C82.627 26.4121 82.3524 26.7366 82.0101 26.989C81.6677 27.2324 81.276 27.4082 80.8347 27.5164C80.3934 27.6245 79.9385 27.6786 79.4702 27.6786C79.4251 27.6786 79.3486 27.6786 79.2405 27.6786C79.1414 27.6786 79.0333 27.6786 78.9163 27.6786C78.8082 27.6697 78.7001 27.6605 78.592 27.6516C78.484 27.6426 78.4075 27.6335 78.3624 27.6245V31.2216H77.2411V21.8503ZM79.5513 22.6211C79.317 22.6211 79.0919 22.6257 78.8758 22.6347C78.6596 22.6436 78.4885 22.6663 78.3624 22.7023V26.6239C78.4075 26.642 78.4794 26.6555 78.5785 26.6644C78.6777 26.6644 78.7812 26.669 78.8893 26.678C78.9973 26.678 79.1009 26.678 79.2 26.678C79.2991 26.678 79.3711 26.678 79.4162 26.678C79.7223 26.678 80.0241 26.6509 80.3213 26.5968C80.6275 26.5338 80.9023 26.4256 81.1454 26.2723C81.3886 26.119 81.5823 25.9026 81.7264 25.6232C81.8795 25.3438 81.956 24.9876 81.956 24.5549C81.956 24.1852 81.8839 23.8788 81.7399 23.6353C81.6048 23.383 81.4202 23.1845 81.186 23.0403C80.9609 22.887 80.7042 22.7788 80.4159 22.7158C80.1276 22.6528 79.8395 22.6211 79.5513 22.6211ZM85.9879 24.9606C86.3301 24.7532 86.7264 24.6 87.1768 24.5008C87.6362 24.4016 88.1134 24.352 88.6089 24.352C89.0771 24.352 89.4509 24.4151 89.7302 24.5414C90.0183 24.6676 90.2344 24.8343 90.3787 25.0417C90.5317 25.24 90.6308 25.4609 90.6759 25.7043C90.7299 25.9477 90.757 26.1911 90.757 26.4345C90.757 26.9755 90.7434 27.5028 90.7164 28.0167C90.6894 28.5306 90.6759 29.0174 90.6759 29.4772C90.6759 29.8107 90.6894 30.1263 90.7164 30.4238C90.7434 30.7213 90.7929 30.9963 90.865 31.2486H90.0679L89.7842 30.302H89.7167C89.6356 30.4283 89.5319 30.5544 89.406 30.6807C89.2887 30.7978 89.1447 30.906 88.9736 31.0052C88.8024 31.0953 88.6043 31.1721 88.3792 31.2351C88.1539 31.2982 87.8972 31.3298 87.6091 31.3298C87.3209 31.3298 87.0507 31.2846 86.7985 31.1946C86.5554 31.1045 86.3436 30.9782 86.1636 30.8159C85.9834 30.6447 85.8393 30.4418 85.7313 30.2074C85.6321 29.9729 85.5826 29.7071 85.5826 29.4095C85.5826 29.0128 85.6637 28.6839 85.8258 28.4224C85.9879 28.1519 86.213 27.9401 86.5013 27.7868C86.7985 27.6245 87.1498 27.5118 87.5551 27.4488C87.9693 27.3766 88.4241 27.3406 88.9196 27.3406C89.0456 27.3406 89.1672 27.3406 89.2844 27.3406C89.4103 27.3406 89.5365 27.3495 89.6626 27.3676C89.6897 27.0972 89.7032 26.8538 89.7032 26.6374C89.7032 26.1416 89.604 25.7944 89.406 25.5961C89.2077 25.3979 88.8475 25.2986 88.3252 25.2986C88.172 25.2986 88.0053 25.3122 87.8253 25.3392C87.654 25.3573 87.474 25.3887 87.2849 25.4339C87.1047 25.4699 86.9291 25.5196 86.758 25.5826C86.5959 25.6367 86.4517 25.6997 86.3257 25.7719L85.9879 24.9606ZM87.9064 30.3832C88.1585 30.3832 88.3836 30.3516 88.5819 30.2885C88.7799 30.2163 88.951 30.1308 89.0952 30.0316C89.2393 29.9234 89.3563 29.8063 89.4465 29.68C89.5454 29.5537 89.6175 29.432 89.6626 29.3149V28.1925C89.5365 28.1836 89.406 28.179 89.2709 28.179C89.1447 28.17 89.0185 28.1655 88.8926 28.1655C88.6132 28.1655 88.3387 28.1836 88.0685 28.2195C87.8072 28.2466 87.573 28.3053 87.366 28.3953C87.1677 28.4765 87.0056 28.5936 86.8796 28.7469C86.7624 28.8911 86.704 29.0761 86.704 29.3014C86.704 29.617 86.8164 29.8783 87.0417 30.0857C87.2668 30.284 87.5551 30.3832 87.9064 30.3832ZM93.7979 24.4602H94.8517V23.1215L95.9324 22.8105V24.4602H97.7698V25.4068H95.9324V29.1526C95.9324 29.6213 95.9911 29.955 96.1081 30.1533C96.2251 30.3426 96.4234 30.4373 96.7025 30.4373C96.9368 30.4373 97.1348 30.4148 97.297 30.3697C97.4591 30.3156 97.6393 30.248 97.8374 30.1668L98.0805 30.9917C97.8374 31.1088 97.5717 31.2035 97.2834 31.2757C96.9952 31.3479 96.6844 31.3839 96.3513 31.3839C95.8019 31.3839 95.4145 31.2305 95.1894 30.9241C94.9643 30.6085 94.8517 30.0857 94.8517 29.3555V25.4068H93.7979V24.4602ZM105.496 31.2216V27.3676C105.496 27.016 105.473 26.7096 105.428 26.4481C105.392 26.1776 105.32 25.9567 105.212 25.7855C105.104 25.6051 104.955 25.4699 104.766 25.3798C104.586 25.2897 104.347 25.2445 104.05 25.2445C103.627 25.2445 103.244 25.3843 102.902 25.6638C102.559 25.9342 102.339 26.2858 102.24 26.7185V31.2216H101.159V21.7557H102.24V25.2175H102.294C102.528 24.9381 102.807 24.7172 103.131 24.5549C103.465 24.3837 103.875 24.298 104.361 24.298C104.739 24.298 105.068 24.3431 105.347 24.4332C105.626 24.5143 105.856 24.6631 106.036 24.8794C106.225 25.0958 106.36 25.3887 106.441 25.7584C106.531 26.119 106.576 26.5787 106.576 27.1377V31.2216H105.496ZM114.816 24.4602L116.37 28.4089L116.707 29.707H116.734L116.991 28.3818L118.193 24.4602H119.22L116.951 31.3703H116.424L114.654 26.9078L114.397 25.799H114.357L114.086 26.9214L112.384 31.3703H111.857L109.507 24.4602L110.682 24.4602L112.019 28.3953L112.249 29.707H112.263L112.587 28.3683L114.032 24.4602H114.816ZM122.157 24.9606C122.499 24.7532 122.895 24.6 123.345 24.5008C123.805 24.4016 124.282 24.352 124.778 24.352C125.246 24.352 125.62 24.4151 125.899 24.5414C126.187 24.6676 126.403 24.8343 126.547 25.0417C126.7 25.24 126.799 25.4609 126.845 25.7043C126.899 25.9477 126.926 26.1911 126.926 26.4345C126.926 26.9755 126.912 27.5028 126.885 28.0167C126.858 28.5306 126.845 29.0174 126.845 29.4772C126.845 29.8107 126.858 30.1263 126.885 30.4238C126.912 30.7213 126.962 30.9963 127.034 31.2486H126.237L125.953 30.302H125.885C125.804 30.4283 125.701 30.5544 125.575 30.6807C125.457 30.7978 125.313 30.906 125.142 31.0052C124.971 31.0953 124.773 31.1721 124.548 31.2351C124.323 31.2982 124.066 31.3298 123.778 31.3298C123.49 31.3298 123.219 31.2846 122.967 31.1946C122.724 31.1045 122.512 30.9782 122.332 30.8159C122.152 30.6447 122.008 30.4418 121.9 30.2074C121.801 29.9729 121.751 29.7071 121.751 29.4095C121.751 29.0128 121.832 28.6839 121.995 28.4224C122.157 28.1519 122.382 27.9401 122.67 27.7868C122.967 27.6245 123.318 27.5118 123.724 27.4488C124.138 27.3766 124.593 27.3406 125.088 27.3406C125.214 27.3406 125.336 27.3406 125.453 27.3406C125.579 27.3406 125.705 27.3495 125.831 27.3676C125.858 27.0972 125.872 26.8538 125.872 26.6374C125.872 26.1416 125.773 25.7944 125.575 25.5961C125.376 25.3979 125.016 25.2986 124.494 25.2986C124.341 25.2986 124.174 25.3122 123.994 25.3392C123.823 25.3573 123.643 25.3887 123.454 25.4339C123.273 25.4699 123.098 25.5196 122.927 25.5826C122.765 25.6367 122.62 25.6997 122.494 25.7719L122.157 24.9606ZM124.075 30.3832C124.327 30.3832 124.552 30.3516 124.751 30.2885C124.949 30.2163 125.12 30.1308 125.264 30.0316C125.408 29.9234 125.525 29.8063 125.615 29.68C125.714 29.5537 125.786 29.432 125.831 29.3149V28.1925C125.705 28.1836 125.575 28.179 125.44 28.179C125.313 28.17 125.187 28.1655 125.061 28.1655C124.782 28.1655 124.507 28.1836 124.237 28.2195C123.976 28.2466 123.742 28.3053 123.535 28.3953C123.336 28.4765 123.174 28.5936 123.048 28.7469C122.931 28.8911 122.873 29.0761 122.873 29.3014C122.873 29.617 122.985 29.8783 123.21 30.0857C123.435 30.284 123.724 30.3832 124.075 30.3832ZM132.844 28.8416L133.222 30.1398H133.29L133.587 28.8281L134.898 24.4602H135.992L133.993 30.5319C133.839 30.9736 133.686 31.402 133.533 31.8166C133.389 32.2312 133.227 32.6009 133.047 32.9255C132.867 33.25 132.664 33.5069 132.439 33.6963C132.214 33.8945 131.953 33.9938 131.655 33.9938C131.331 33.9938 131.065 33.9486 130.858 33.8585L131.047 32.9255C131.164 32.9706 131.277 32.9931 131.385 32.9931C131.637 32.9931 131.88 32.8578 132.115 32.5874C132.349 32.3259 132.542 31.8707 132.696 31.2216L129.98 24.4602H131.223L132.844 28.8416Z" fill="white"/>
<path d="M4.23117 9.84685H0L0 14.082H4.23117L4.23117 9.84685Z" fill="#F36D50" fill-opacity="0.8"/>
<path d="M8.46234 9.84685H4.23117L4.23117 14.082H8.46234V9.84685Z" fill="#F36D50" fill-opacity="0.8"/>
<path d="M8.46234 14.082H4.23117L4.23117 18.3172H8.46234V14.082Z" fill="white"/>
<path d="M8.41269 14.1317H4.28085L4.28085 18.2675H8.41269V14.1317Z" stroke="#F36D50" stroke-opacity="0.8" stroke-width="0.5"/>
<path d="M12.6935 14.082H8.46231V18.3172H12.6935V14.082Z" fill="#F36D50" fill-opacity="0.8"/>
<path d="M8.46234 18.3172H4.23117L4.23117 22.5524H8.46234V18.3172Z" fill="#F36D50" fill-opacity="0.8"/>
<path d="M12.6935 18.3172H8.46231V22.5524H12.6935V18.3172Z" fill="#F36D50" fill-opacity="0.8"/>
<path d="M12.6935 22.5523H8.46231V26.7875H12.6935V22.5523Z" fill="white"/>
<path d="M12.6438 22.602H8.51199V26.7378H12.6438V22.602Z" stroke="#F36D50" stroke-opacity="0.8" stroke-width="0.5"/>
<path d="M16.9247 18.3172H12.6935V22.5524H16.9247V18.3172Z" fill="white"/>
<path d="M16.875 18.3669H12.7432V22.5027H16.875V18.3669Z" stroke="#F36D50" stroke-opacity="0.8" stroke-width="0.5"/>
<path d="M16.9247 22.5523H12.6935V26.7875H16.9247V22.5523Z" fill="#F36D50" fill-opacity="0.8"/>
<path d="M16.9247 26.7875H12.6935V31.0227H16.9247V26.7875Z" fill="white"/>
<path d="M16.875 26.8372H12.7432V30.973H16.875V26.8372Z" stroke="#F36D50" stroke-opacity="0.8" stroke-width="0.5"/>
<path d="M21.1559 26.7875H16.9247V31.0227H21.1559V26.7875Z" fill="#F36D50" fill-opacity="0.8"/>
<path d="M29.6181 26.7875H25.387V31.0227H29.6181V26.7875Z" fill="#DE707B" fill-opacity="0.8"/>
<path d="M24.8034 11.4533H20.5723V15.6885H24.8034V11.4533Z" fill="#77B881" fill-opacity="0.8"/>
<path d="M29.0346 11.4533H24.8034V15.6885H29.0346V11.4533Z" fill="#77B881" fill-opacity="0.8"/>
<path d="M29.0346 7.21813L24.8034 7.21813V11.4533H29.0346V7.21813Z" fill="#77B881" fill-opacity="0.8"/>
<path d="M33.2658 11.4533H29.0346V15.6885H33.2658V11.4533Z" fill="white"/>
<path d="M33.2161 11.503H29.0843V15.6388H33.2161V11.503Z" stroke="#77B881" stroke-opacity="0.8" stroke-width="0.5"/>
<path d="M33.2658 7.21814L29.0346 7.21814V11.4533H33.2658V7.21814Z" fill="#77B881" fill-opacity="0.8"/>
<path d="M37.497 7.21814L33.2658 7.21814V11.4533H37.497V7.21814Z" fill="white"/>
<path d="M37.4473 7.26785L33.3155 7.26785V11.4036H37.4473V7.26785Z" stroke="#77B881" stroke-opacity="0.8" stroke-width="0.5"/>
<path d="M37.497 11.4533H33.2658V15.6885H37.497V11.4533Z" fill="#77B881" fill-opacity="0.8"/>
<path d="M29.0346 15.6885H24.8034V19.9237H29.0346V15.6885Z" fill="white"/>
<path d="M28.985 15.7382H24.8531V19.8739H28.985V15.7382Z" stroke="#77B881" stroke-opacity="0.8" stroke-width="0.5"/>
<path d="M37.497 2.98296L33.2658 2.98296V7.21813L37.497 7.21813V2.98296Z" fill="white"/>
<path d="M37.4473 3.03267L33.3155 3.03267V7.16842L37.4473 7.16842V3.03267Z" stroke="#77B881" stroke-opacity="0.8" stroke-width="0.5"/>
<path d="M33.2658 15.6885H29.0346V19.9237H33.2658V15.6885Z" fill="white"/>
<path d="M33.2161 15.7382H29.0843V19.8739H33.2161V15.7382Z" stroke="#77B881" stroke-opacity="0.8" stroke-width="0.5"/>
<path d="M41.728 2.98296L37.4968 2.98296V7.21813L41.728 7.21813V2.98296Z" fill="#77B881" fill-opacity="0.8"/>
<path d="M45.9592 11.4533H41.728V15.6885H45.9592V11.4533Z" fill="#8DC7E4" fill-opacity="0.8"/>
<path d="M50.1904 15.6885H45.9592V19.9237H50.1904V15.6885Z" fill="#8DC7E4" fill-opacity="0.8"/>
<path d="M58.6527 15.6885H54.4216V19.9237H58.6527V15.6885Z" fill="#9899CC" fill-opacity="0.8"/>
<path d="M62.8839 19.9238H58.6528V24.1589H62.8839V19.9238Z" fill="white"/>
<path d="M62.8343 19.9735H58.7025V24.1092H62.8343V19.9735Z" stroke="#9899CC" stroke-opacity="0.8" stroke-width="0.5"/>
<path d="M67.1151 19.9238H62.884V24.1589H67.1151V19.9238Z" fill="#9899CC" fill-opacity="0.8"/>
<path d="M67.1151 24.1588H62.884V28.3939H67.1151V24.1588Z" fill="white"/>
<path d="M67.0655 24.2085H62.9336V28.3442H67.0655V24.2085Z" stroke="#9899CC" stroke-opacity="0.8" stroke-width="0.5"/>
<path d="M45.9592 19.9238H41.728V24.1589H45.9592V19.9238Z" fill="white"/>
<path d="M45.9095 19.9735H41.7777V24.1092H45.9095V19.9735Z" stroke="#8DC7E4" stroke-opacity="0.8" stroke-width="0.5"/>
<path d="M50.1904 7.21814L45.9592 7.21814V11.4533H50.1904V7.21814Z" fill="#8DC7E4" fill-opacity="0.8"/>
<path d="M54.4216 7.21814L50.1904 7.21814V11.4533H54.4216V7.21814Z" fill="white"/>
<path d="M54.3719 7.26785L50.2401 7.26785V11.4036H54.3719V7.26785Z" stroke="#8DC7E4" stroke-opacity="0.8" stroke-width="0.5"/>
<path d="M33.8493 26.7875H29.6181V31.0227H33.8493V26.7875Z" fill="#DE707B" fill-opacity="0.8"/>
<path d="M38.0805 26.7875H33.8493V31.0227H38.0805V26.7875Z" fill="#DE707B" fill-opacity="0.8"/>
<path d="M42.3117 26.7875H38.0805V31.0227H42.3117V26.7875Z" fill="white"/>
<path d="M42.262 26.8372H38.1302V30.973H42.262V26.8372Z" stroke="#DE707B" stroke-opacity="0.8" stroke-width="0.5"/>
</svg>
