<svg width="338" height="141" viewBox="0 0 338 141" fill="none" xmlns="http://www.w3.org/2000/svg">
<rect y="34.5156" width="21.2969" height="21.2969" fill="#F36D50" fill-opacity="0.8"/>
<rect x="21.2969" y="34.5156" width="21.2969" height="21.2969" fill="#F36D50" fill-opacity="0.8"/>
<rect x="21.2969" y="55.8125" width="21.2969" height="21.2969" fill="white"/>
<rect x="21.5469" y="56.0625" width="20.7969" height="20.7969" stroke="#F36D50" stroke-opacity="0.8" stroke-width="0.5"/>
<rect x="42.5938" y="55.8125" width="21.2969" height="21.2969" fill="#F36D50" fill-opacity="0.8"/>
<rect x="21.2969" y="77.1094" width="21.2969" height="21.2969" fill="#F36D50" fill-opacity="0.8"/>
<rect x="42.5938" y="77.1094" width="21.2969" height="21.2969" fill="#F36D50" fill-opacity="0.8"/>
<rect x="42.5938" y="98.4062" width="21.2969" height="21.2969" fill="white"/>
<rect x="42.8438" y="98.6562" width="20.7969" height="20.7969" stroke="#F36D50" stroke-opacity="0.8" stroke-width="0.5"/>
<rect x="63.8906" y="77.1094" width="21.2969" height="21.2969" fill="white"/>
<rect x="64.1406" y="77.3594" width="20.7969" height="20.7969" stroke="#F36D50" stroke-opacity="0.8" stroke-width="0.5"/>
<rect x="63.8906" y="98.4062" width="21.2969" height="21.2969" fill="#F36D50" fill-opacity="0.8"/>
<rect x="63.8906" y="119.703" width="21.2969" height="21.2969" fill="white"/>
<rect x="64.1406" y="119.953" width="20.7969" height="20.7969" stroke="#F36D50" stroke-opacity="0.8" stroke-width="0.5"/>
<rect x="85.1875" y="119.703" width="21.2969" height="21.2969" fill="#F36D50" fill-opacity="0.8"/>
<rect x="127.781" y="119.703" width="21.2969" height="21.2969" fill="#DE707B" fill-opacity="0.8"/>
<rect x="103.547" y="42.5938" width="21.2969" height="21.2969" fill="#77B881" fill-opacity="0.8"/>
<rect x="124.844" y="42.5938" width="21.2969" height="21.2969" fill="#77B881" fill-opacity="0.8"/>
<rect x="124.844" y="21.2969" width="21.2969" height="21.2969" fill="#77B881" fill-opacity="0.8"/>
<rect x="146.141" y="42.5938" width="21.2969" height="21.2969" fill="white"/>
<rect x="146.391" y="42.8438" width="20.7969" height="20.7969" stroke="#77B881" stroke-opacity="0.8" stroke-width="0.5"/>
<rect x="146.141" y="21.2969" width="21.2969" height="21.2969" fill="#77B881" fill-opacity="0.8"/>
<rect x="167.438" y="21.2969" width="21.2969" height="21.2969" fill="white"/>
<rect x="167.688" y="21.5469" width="20.7969" height="20.7969" stroke="#77B881" stroke-opacity="0.8" stroke-width="0.5"/>
<rect x="167.438" y="42.5938" width="21.2969" height="21.2969" fill="#77B881" fill-opacity="0.8"/>
<rect x="124.844" y="63.8906" width="21.2969" height="21.2969" fill="white"/>
<rect x="125.094" y="64.1406" width="20.7969" height="20.7969" stroke="#77B881" stroke-opacity="0.8" stroke-width="0.5"/>
<rect x="167.438" width="21.2969" height="21.2969" fill="white"/>
<rect x="167.688" y="0.25" width="20.7969" height="20.7969" stroke="#77B881" stroke-opacity="0.8" stroke-width="0.5"/>
<rect x="146.141" y="63.8906" width="21.2969" height="21.2969" fill="white"/>
<rect x="146.391" y="64.1406" width="20.7969" height="20.7969" stroke="#77B881" stroke-opacity="0.8" stroke-width="0.5"/>
<rect x="188.734" width="21.2969" height="21.2969" fill="#77B881" fill-opacity="0.8"/>
<rect x="210.031" y="42.5938" width="21.2969" height="21.2969" fill="#8DC7E4" fill-opacity="0.8"/>
<rect x="231.328" y="63.8906" width="21.2969" height="21.2969" fill="#8DC7E4" fill-opacity="0.8"/>
<rect x="273.922" y="63.8906" width="21.2969" height="21.2969" fill="#9899CC" fill-opacity="0.8"/>
<rect x="295.219" y="85.1875" width="21.2969" height="21.2969" fill="white"/>
<rect x="295.469" y="85.4375" width="20.7969" height="20.7969" stroke="#9899CC" stroke-opacity="0.8" stroke-width="0.5"/>
<rect x="316.516" y="85.1875" width="21.2969" height="21.2969" fill="#9899CC" fill-opacity="0.8"/>
<rect x="316.516" y="106.484" width="21.2969" height="21.2969" fill="white"/>
<rect x="316.766" y="106.734" width="20.7969" height="20.7969" stroke="#9899CC" stroke-opacity="0.8" stroke-width="0.5"/>
<rect x="210.031" y="85.1875" width="21.2969" height="21.2969" fill="white"/>
<rect x="210.281" y="85.4375" width="20.7969" height="20.7969" stroke="#8DC7E4" stroke-opacity="0.8" stroke-width="0.5"/>
<rect x="231.328" y="21.2969" width="21.2969" height="21.2969" fill="#8DC7E4" fill-opacity="0.8"/>
<rect x="252.625" y="21.2969" width="21.2969" height="21.2969" fill="white"/>
<rect x="252.875" y="21.5469" width="20.7969" height="20.7969" stroke="#8DC7E4" stroke-opacity="0.8" stroke-width="0.5"/>
<rect x="149.078" y="119.703" width="21.2969" height="21.2969" fill="#DE707B" fill-opacity="0.8"/>
<rect x="170.375" y="119.703" width="21.2969" height="21.2969" fill="#DE707B" fill-opacity="0.8"/>
<rect x="191.672" y="119.703" width="21.2969" height="21.2969" fill="white"/>
<rect x="191.922" y="119.953" width="20.7969" height="20.7969" stroke="#DE707B" stroke-opacity="0.8" stroke-width="0.5"/>
</svg>
